M48
;Layer_Color=9474304
;FILE_FORMAT=4:4
METRIC,LZ
;TYPE=PLATED
T01F00S00C0.2000
T03F00S00C0.7000
T04F00S00C1.1000
%
T01
X001651Y0009652
X0018415Y0011557
Y0012319
Y0013081
X00193463
Y0012319
Y0011557
X00202777
Y0012319
Y0013081
X0021209
Y0012319
Y0011557
X0025908Y0008763
X0027178
X0028448
Y0007239
X0027178
X0025908
X0027178Y0005588
X0028448
X0029464
Y0004318
X0028448
X0029464Y0003048
X0035179Y0002667
Y0001651
X0036703Y0002667
X0036322Y0012954
X0037973Y0013589
X0035052Y0015748
X0032639Y0014859
X003175Y0017907
Y0018923
X0029464Y0018415
Y0019431
X0028321
Y0018415
X0027178
Y0019431
Y0020574
X0028321
X0029464
X0030988Y0022479
X0031242Y0024257
X0030607Y0025146
X0028321Y0026035
X00255901Y0026924
X0025908Y0024384
X0024892
X0024638Y0023495
X0023495Y0024384
X0022098Y0025146
X00194918Y00253836
X0018034Y0024892
X0017526Y0025654
X0016256Y0024892
X001524Y0027305
X0016637Y0029083
X0018034Y0030099
X0015367Y003048
X0015494Y003429
X0019939Y00381
X002413Y0036703
X0027432Y003683
X0028448
X0029591Y0037465
X0030353
Y0038354
X0029591
X0030607Y0032639
X0032385Y0032766
X0032258Y0031115
X003302Y0030099
X0028448Y0030988
X0027432Y0029972
X0026924Y0032131
X00267075Y00338195
X0025654Y0033782
X0023241Y0032131
X0023114Y002921
X0022225Y0022352
X0023495Y0020574
X0024892Y0018923
Y0017907
X0025019Y0014859
X0022762Y0016002
X002159Y0016516
X002032Y0018288
X0018034Y0017653
X0018542Y0020828
X0027813Y0016002
X0028829
X0033909Y0021336
X0033274Y0022479
X0038989Y0032385
X001397Y00301014
X00140823Y0027715
X001016Y0028702
X0009271
X0009906Y0026416
X0008763Y0025019
X0007366Y002286
X0008001Y0021717
X0012192Y0021971
X001397Y0020828
X0013462Y0019431
X0011684Y0014351
X0006604Y0015113
X0008001Y0016891
X0007239Y0027686
X0006731Y0032766
X0004953Y0031242
X000381
X00105887
X00121497Y00313267
X00110629Y00330741
X00101739
T03
X0039878Y0016923
Y0018923
Y0020923
Y0022923
Y0024923
Y0026923
X000381Y0026971
Y0024971
Y0022971
Y0020971
Y0018971
Y0016971
T04
X0003048Y0010287
X0010414Y0003302
X0017018Y0002159
X0019558
X0022098
X0024638
X0032004Y0003175
X0039243Y0010414
X0018288Y0040386
X0015748
X0013208
X0010668
M30
