G04*
G04 #@! TF.GenerationSoftware,Altium Limited,Altium Designer,24.8.2 (39)*
G04*
G04 Layer_Physical_Order=1*
G04 Layer_Color=255*
%FSLAX44Y44*%
%MOMM*%
G71*
G04*
G04 #@! TF.SameCoordinates,C7BC70F5-E38B-40BF-8CF6-97473964AE68*
G04*
G04*
G04 #@! TF.FilePolarity,Positive*
G04*
G01*
G75*
%ADD18R,0.6000X0.5000*%
%ADD19R,0.6000X0.6400*%
%ADD20R,0.7500X0.6000*%
G04:AMPARAMS|DCode=22|XSize=0.81mm|YSize=0.27mm|CornerRadius=0.0338mm|HoleSize=0mm|Usage=FLASHONLY|Rotation=180.000|XOffset=0mm|YOffset=0mm|HoleType=Round|Shape=RoundedRectangle|*
%AMROUNDEDRECTD22*
21,1,0.8100,0.2025,0,0,180.0*
21,1,0.7425,0.2700,0,0,180.0*
1,1,0.0675,-0.3713,0.1013*
1,1,0.0675,0.3713,0.1013*
1,1,0.0675,0.3713,-0.1013*
1,1,0.0675,-0.3713,-0.1013*
%
%ADD22ROUNDEDRECTD22*%
G04:AMPARAMS|DCode=23|XSize=0.27mm|YSize=0.81mm|CornerRadius=0.0338mm|HoleSize=0mm|Usage=FLASHONLY|Rotation=180.000|XOffset=0mm|YOffset=0mm|HoleType=Round|Shape=RoundedRectangle|*
%AMROUNDEDRECTD23*
21,1,0.2700,0.7425,0,0,180.0*
21,1,0.2025,0.8100,0,0,180.0*
1,1,0.0675,-0.1013,0.3713*
1,1,0.0675,0.1013,0.3713*
1,1,0.0675,0.1013,-0.3713*
1,1,0.0675,-0.1013,-0.3713*
%
%ADD23ROUNDEDRECTD23*%
%ADD24R,1.6000X1.6000*%
%ADD25R,1.6000X1.1000*%
%ADD26O,0.2500X1.5500*%
%ADD27O,1.5500X0.2500*%
%ADD28R,0.6400X0.6000*%
%ADD29R,0.5000X0.6000*%
%ADD30R,0.8000X0.8000*%
%ADD31R,0.6000X0.7500*%
%ADD32R,1.2000X1.0000*%
%ADD33R,0.6250X0.8300*%
%ADD34R,0.8500X0.9500*%
%ADD35R,3.2000X1.6000*%
%ADD36R,1.1500X1.3500*%
%ADD37R,1.3500X1.1500*%
%ADD38R,1.0000X0.9000*%
%ADD39R,2.4384X1.6510*%
%ADD40R,0.3048X0.7620*%
%ADD41P,1.6971X4X180.0*%
%ADD42P,1.6971X4X90.0*%
%ADD43R,0.9000X0.6000*%
%ADD44R,2.0000X0.8000*%
%ADD45R,1.2000X0.6000*%
%ADD46R,0.9000X1.0000*%
%ADD47R,1.7000X0.5500*%
%ADD48R,1.4000X1.2000*%
%ADD49R,0.3000X0.7000*%
%ADD50R,1.0000X0.7000*%
%ADD51R,0.9000X1.0000*%
%ADD52R,0.5000X0.4000*%
%ADD53R,0.9900X0.3000*%
%ADD91R,3.7000X3.7000*%
%ADD92C,0.5080*%
%ADD93C,0.2540*%
%ADD94C,0.6350*%
%ADD95C,1.6000*%
G04:AMPARAMS|DCode=96|XSize=1.6mm|YSize=1.6mm|CornerRadius=0.4mm|HoleSize=0mm|Usage=FLASHONLY|Rotation=0.000|XOffset=0mm|YOffset=0mm|HoleType=Round|Shape=RoundedRectangle|*
%AMROUNDEDRECTD96*
21,1,1.6000,0.8000,0,0,0.0*
21,1,0.8000,1.6000,0,0,0.0*
1,1,0.8000,0.4000,-0.4000*
1,1,0.8000,-0.4000,-0.4000*
1,1,0.8000,-0.4000,0.4000*
1,1,0.8000,0.4000,0.4000*
%
%ADD96ROUNDEDRECTD96*%
%ADD97O,2.5000X1.5000*%
%ADD98O,1.1000X2.1000*%
%ADD99O,1.1000X2.6000*%
%ADD100C,0.4500*%
G36*
X330200Y383540D02*
Y360680D01*
X335280Y355600D01*
X341630D01*
X346710Y350520D01*
Y321662D01*
X346580Y320700D01*
X345694Y320700D01*
X344850D01*
Y317500D01*
Y314300D01*
X345883D01*
X346304Y313284D01*
X345440Y312420D01*
X339090D01*
X337820Y313690D01*
Y344170D01*
X336956Y345034D01*
Y345056D01*
X336934D01*
X336550Y345440D01*
X327660D01*
X322580Y350520D01*
Y360680D01*
X312420Y370840D01*
X293370D01*
X290830Y373380D01*
X290830Y384810D01*
X293370Y387350D01*
X326390D01*
X330200Y383540D01*
D02*
G37*
G36*
X328930Y342900D02*
X329540Y342647D01*
Y342310D01*
X332740D01*
Y341040D01*
X334010D01*
Y338040D01*
X335940D01*
X336550Y337277D01*
Y334362D01*
X336420Y333400D01*
X335534Y333400D01*
X334690D01*
Y330200D01*
Y327000D01*
X336420D01*
X336550Y326038D01*
Y311150D01*
X337820Y309880D01*
X346710D01*
X346880Y309710D01*
Y307622D01*
X346580Y306730D01*
X345864Y306730D01*
X344850D01*
Y303530D01*
Y300330D01*
X345514D01*
X345910Y299314D01*
X332312Y286850D01*
X329169D01*
X328890Y287750D01*
X328890Y287866D01*
Y288480D01*
X326390D01*
X323890D01*
Y287866D01*
X323890Y287750D01*
X323611Y286850D01*
X317955D01*
X313520Y291285D01*
Y307340D01*
X313198Y308118D01*
X310658Y310658D01*
X309880Y310980D01*
X303530D01*
X302752Y310658D01*
X300212Y308118D01*
X299990Y307580D01*
X299868Y307321D01*
X299173Y306730D01*
X298874Y306730D01*
X297860D01*
Y303530D01*
Y300330D01*
X298874D01*
X299890Y299438D01*
Y296080D01*
X299720Y295910D01*
X293370D01*
X292100Y294640D01*
Y285750D01*
X290830Y284480D01*
X279400D01*
X278130Y283210D01*
Y281940D01*
X276860Y280670D01*
X270510D01*
X267970Y283210D01*
Y306070D01*
X278130Y316230D01*
X312420D01*
X318770Y322580D01*
Y339090D01*
X322580Y342900D01*
X328930D01*
D02*
G37*
G36*
X358140Y322580D02*
Y293370D01*
X337820Y273050D01*
X309880D01*
X300990Y281940D01*
X300990Y307340D01*
X303530Y309880D01*
X309880D01*
X312420Y307340D01*
Y290830D01*
X317500Y285750D01*
X332740D01*
X347537Y299314D01*
X347596D01*
Y299368D01*
X347980Y299720D01*
Y322100D01*
X349730Y323850D01*
X356870D01*
X358140Y322580D01*
D02*
G37*
G36*
X260350Y280670D02*
X268955D01*
X269732Y279892D01*
X270390Y279620D01*
X270548Y278683D01*
X270550Y278632D01*
X270550Y278554D01*
Y277940D01*
X273050D01*
X275550D01*
Y278554D01*
X275550Y278670D01*
X275829Y279570D01*
X276860D01*
X277638Y279892D01*
X280670Y276860D01*
X299720D01*
X307340Y269240D01*
Y260350D01*
X300990Y254000D01*
X279400D01*
X267970Y265430D01*
X250190D01*
X246380Y269240D01*
Y280670D01*
X248920Y283210D01*
X257810D01*
X260350Y280670D01*
D02*
G37*
G36*
X186690Y157480D02*
Y146050D01*
X185420Y144780D01*
X171450D01*
X170180Y143510D01*
Y140970D01*
X168910Y139700D01*
X161290D01*
X160020Y140970D01*
X160020Y152400D01*
X161290Y153670D01*
X172720D01*
X177800Y158750D01*
X185420D01*
X186690Y157480D01*
D02*
G37*
G36*
X115570Y124460D02*
X129540D01*
X132080Y121920D01*
Y116840D01*
X129540Y114300D01*
X54610D01*
Y85090D01*
X50401Y80881D01*
X39769D01*
X33020Y74131D01*
Y39370D01*
X25400Y31750D01*
X20320D01*
X12700Y39370D01*
Y82550D01*
X11837Y83413D01*
X12317Y84370D01*
X29210D01*
Y102870D01*
Y121370D01*
X12317D01*
X11837Y122327D01*
X17780Y128270D01*
X91663D01*
X98800Y121132D01*
Y116260D01*
X103530D01*
Y121260D01*
Y126657D01*
X102856Y127331D01*
X103245Y128270D01*
X111760D01*
X115570Y124460D01*
D02*
G37*
G36*
X170180Y137160D02*
Y115570D01*
X168910Y114300D01*
X161290Y114300D01*
X160020Y115570D01*
X160020Y123190D01*
X158750Y124460D01*
X142240D01*
X140970Y125730D01*
X140970Y132080D01*
X142240Y133350D01*
X158750D01*
X160020Y134620D01*
X160020Y137160D01*
X161290Y138430D01*
X168910D01*
X170180Y137160D01*
D02*
G37*
G36*
X142015Y123454D02*
X142240Y123360D01*
X142360D01*
X142774Y123248D01*
X142850Y122380D01*
X142850Y122344D01*
Y120650D01*
X148850D01*
X154850D01*
Y122344D01*
X154850Y122380D01*
X154936Y123360D01*
X158163D01*
X158920Y122604D01*
X158920Y115570D01*
X159242Y114792D01*
X160512Y113522D01*
X161290Y113200D01*
X168910Y113200D01*
X169688Y113522D01*
X171450Y111760D01*
Y104140D01*
X168910Y101600D01*
X161290D01*
X158750Y104140D01*
Y110490D01*
X155866Y113374D01*
Y113896D01*
X155344D01*
X154940Y114300D01*
X142240D01*
X140970Y115570D01*
X140970Y122847D01*
X141825Y123505D01*
X142015Y123454D01*
D02*
G37*
G36*
X125120Y106880D02*
X129540D01*
Y104140D01*
X133350Y100330D01*
Y95280D01*
X125730D01*
Y91280D01*
X123190D01*
Y95280D01*
X115570D01*
Y101600D01*
X118110Y104140D01*
Y106880D01*
X122580D01*
Y109880D01*
X125120D01*
Y106880D01*
D02*
G37*
G36*
X89770Y68660D02*
X92964D01*
X93000Y68660D01*
X93980Y68573D01*
Y62230D01*
X100330Y55880D01*
X121920D01*
X127000Y50800D01*
Y44450D01*
X130810Y40640D01*
X144780Y40640D01*
X147320Y38100D01*
Y27940D01*
X144780Y25400D01*
X130810D01*
X127000Y21590D01*
Y16510D01*
X121920Y11430D01*
X40640Y11430D01*
X33020Y19050D01*
X33020Y24130D01*
X41910Y33020D01*
X77470Y33020D01*
X83820Y39370D01*
Y67719D01*
X83987Y68594D01*
X84803Y68660D01*
X84836D01*
X87230D01*
Y73660D01*
X89770D01*
Y68660D01*
D02*
G37*
G36*
X139700Y76200D02*
Y68580D01*
X148590Y59690D01*
Y48260D01*
X146050Y45720D01*
X132080Y45720D01*
X129540Y48260D01*
Y57150D01*
X125730Y60960D01*
X115570D01*
X111760Y64770D01*
X100330D01*
X97425Y67675D01*
X97877Y68660D01*
X100730D01*
Y73660D01*
Y78660D01*
X99824D01*
X99315Y79676D01*
X99565Y80010D01*
X135890D01*
X139700Y76200D01*
D02*
G37*
G36*
X375920Y125730D02*
X411480D01*
X415290Y121920D01*
Y40640D01*
X408305Y33655D01*
X403871D01*
X403836Y34671D01*
X404520Y35354D01*
X407156Y37991D01*
X403812Y41336D01*
X400467Y37991D01*
X403094Y35364D01*
X403787Y34671D01*
X403752Y33655D01*
X396875D01*
X391160Y39370D01*
X391160Y76200D01*
X384810Y82550D01*
X374650D01*
X370840Y86360D01*
X370840Y113030D01*
X364490Y119380D01*
X347980D01*
X340360Y111760D01*
Y93980D01*
X335444Y89064D01*
X303366D01*
X298450Y93980D01*
Y106680D01*
X293371Y111759D01*
X288291Y111759D01*
X285750Y114300D01*
X254000D01*
X248920Y109220D01*
X181610D01*
X179070Y111760D01*
Y134620D01*
X181610Y137160D01*
X364490D01*
X375920Y125730D01*
D02*
G37*
G36*
X287513Y110982D02*
X287513Y110982D01*
X287938Y110805D01*
X288291Y110660D01*
X288291D01*
X288291D01*
X289390Y110660D01*
X290830Y109220D01*
X290830Y72390D01*
X309946Y53274D01*
X337801Y53359D01*
X341630Y49530D01*
Y38100D01*
X347980Y31750D01*
X377190D01*
X382270Y36830D01*
X387350D01*
X393700Y30480D01*
Y21590D01*
X383540Y11430D01*
X299720D01*
X294640Y16510D01*
X248920Y62230D01*
X248920Y108120D01*
D01*
X249698Y108442D01*
X254456Y113200D01*
X285294D01*
X287513Y110982D01*
D02*
G37*
%LPC*%
G36*
X304800Y385449D02*
Y384810D01*
X305439D01*
X305437Y384814D01*
X304804Y385447D01*
X304800Y385449D01*
D02*
G37*
G36*
X302260D02*
X302255Y385447D01*
X301623Y384814D01*
X301621Y384810D01*
X302260D01*
Y385449D01*
D02*
G37*
G36*
X297180D02*
Y384810D01*
X297819D01*
X297817Y384814D01*
X297185Y385447D01*
X297180Y385449D01*
D02*
G37*
G36*
X294640D02*
X294636Y385447D01*
X294003Y384814D01*
X294001Y384810D01*
X294640D01*
Y385449D01*
D02*
G37*
G36*
X305439Y382270D02*
X304800D01*
Y381631D01*
X304804Y381633D01*
X305437Y382266D01*
X305439Y382270D01*
D02*
G37*
G36*
X302260D02*
X301621D01*
X301623Y382266D01*
X302255Y381633D01*
X302260Y381631D01*
Y382270D01*
D02*
G37*
G36*
X297819D02*
X297180D01*
Y381631D01*
X297185Y381633D01*
X297817Y382266D01*
X297819Y382270D01*
D02*
G37*
G36*
X294640D02*
X294001D01*
X294003Y382266D01*
X294636Y381633D01*
X294640Y381631D01*
Y382270D01*
D02*
G37*
G36*
X304800Y376559D02*
Y375920D01*
X305439D01*
X305437Y375924D01*
X304804Y376557D01*
X304800Y376559D01*
D02*
G37*
G36*
X302260D02*
X302255Y376557D01*
X301623Y375924D01*
X301621Y375920D01*
X302260D01*
Y376559D01*
D02*
G37*
G36*
X297180D02*
Y375920D01*
X297819D01*
X297817Y375924D01*
X297185Y376557D01*
X297180Y376559D01*
D02*
G37*
G36*
X294640D02*
X294636Y376557D01*
X294003Y375924D01*
X294001Y375920D01*
X294640D01*
Y376559D01*
D02*
G37*
G36*
X305439Y373380D02*
X304800D01*
Y372741D01*
X304804Y372743D01*
X305437Y373376D01*
X305439Y373380D01*
D02*
G37*
G36*
X302260D02*
X301621D01*
X301623Y373376D01*
X302255Y372743D01*
X302260Y372741D01*
Y373380D01*
D02*
G37*
G36*
X297819D02*
X297180D01*
Y372741D01*
X297185Y372743D01*
X297817Y373376D01*
X297819Y373380D01*
D02*
G37*
G36*
X294640D02*
X294001D01*
X294003Y373376D01*
X294636Y372743D01*
X294640Y372741D01*
Y373380D01*
D02*
G37*
G36*
X335940Y352840D02*
X334010D01*
Y351110D01*
X335940D01*
Y352840D01*
D02*
G37*
G36*
X331470D02*
X329540D01*
Y351110D01*
X331470D01*
Y352840D01*
D02*
G37*
G36*
X335940Y348570D02*
X334010D01*
Y346840D01*
X335940D01*
Y348570D01*
D02*
G37*
G36*
X331470D02*
X329540D01*
Y346840D01*
X331470D01*
Y348570D01*
D02*
G37*
G36*
X345220Y333400D02*
X343490D01*
Y331470D01*
X345220D01*
Y333400D01*
D02*
G37*
G36*
X340950D02*
X339220D01*
Y331470D01*
X340950D01*
Y333400D01*
D02*
G37*
G36*
X345220Y328930D02*
X343490D01*
Y327000D01*
X345220D01*
Y328930D01*
D02*
G37*
G36*
X340950D02*
X339220D01*
Y327000D01*
X340950D01*
Y328930D01*
D02*
G37*
G36*
X342310Y320700D02*
X340580D01*
Y318770D01*
X342310D01*
Y320700D01*
D02*
G37*
G36*
Y316230D02*
X340580D01*
Y314300D01*
X342310D01*
Y316230D01*
D02*
G37*
G36*
X331470Y339770D02*
X329540D01*
Y338040D01*
X331470D01*
Y339770D01*
D02*
G37*
G36*
X332150Y333400D02*
X330420D01*
Y331470D01*
X332150D01*
Y333400D01*
D02*
G37*
G36*
X325120Y329569D02*
Y328930D01*
X325759D01*
X325757Y328935D01*
X325125Y329567D01*
X325120Y329569D01*
D02*
G37*
G36*
X322580D02*
X322575Y329567D01*
X321943Y328935D01*
X321941Y328930D01*
X322580D01*
Y329569D01*
D02*
G37*
G36*
X332150Y328930D02*
X330420D01*
Y327000D01*
X332150D01*
Y328930D01*
D02*
G37*
G36*
X325759Y326390D02*
X325120D01*
Y325751D01*
X325125Y325753D01*
X325757Y326385D01*
X325759Y326390D01*
D02*
G37*
G36*
X322580D02*
X321941D01*
X321943Y326385D01*
X322575Y325753D01*
X322580Y325751D01*
Y326390D01*
D02*
G37*
G36*
X323850Y313059D02*
Y312420D01*
X324489D01*
X324487Y312425D01*
X323854Y313057D01*
X323850Y313059D01*
D02*
G37*
G36*
X321310D02*
X321306Y313057D01*
X320673Y312425D01*
X320671Y312420D01*
X321310D01*
Y313059D01*
D02*
G37*
G36*
X285750Y311789D02*
Y311150D01*
X286389D01*
X286387Y311154D01*
X285755Y311787D01*
X285750Y311789D01*
D02*
G37*
G36*
X283210D02*
X283206Y311787D01*
X282573Y311154D01*
X282571Y311150D01*
X283210D01*
Y311789D01*
D02*
G37*
G36*
X324489Y309880D02*
X323850D01*
Y309241D01*
X323854Y309243D01*
X324487Y309876D01*
X324489Y309880D01*
D02*
G37*
G36*
X321310D02*
X320671D01*
X320673Y309876D01*
X321306Y309243D01*
X321310Y309241D01*
Y309880D01*
D02*
G37*
G36*
X286389Y308610D02*
X285750D01*
Y307971D01*
X285755Y307973D01*
X286387Y308605D01*
X286389Y308610D01*
D02*
G37*
G36*
X283210D02*
X282571D01*
X282573Y308605D01*
X283206Y307973D01*
X283210Y307971D01*
Y308610D01*
D02*
G37*
G36*
X342310Y306730D02*
X340580D01*
Y304800D01*
X342310D01*
Y306730D01*
D02*
G37*
G36*
X295320D02*
X293590D01*
Y304800D01*
X295320D01*
Y306730D01*
D02*
G37*
G36*
X331470Y302899D02*
Y302260D01*
X332109D01*
X332107Y302264D01*
X331474Y302897D01*
X331470Y302899D01*
D02*
G37*
G36*
X328930D02*
X328926Y302897D01*
X328293Y302264D01*
X328291Y302260D01*
X328930D01*
Y302899D01*
D02*
G37*
G36*
X275590Y301629D02*
Y300990D01*
X276229D01*
X276227Y300994D01*
X275595Y301627D01*
X275590Y301629D01*
D02*
G37*
G36*
X273050D02*
X273046Y301627D01*
X272413Y300994D01*
X272411Y300990D01*
X273050D01*
Y301629D01*
D02*
G37*
G36*
X342310Y302260D02*
X340580D01*
Y300330D01*
X342310D01*
Y302260D01*
D02*
G37*
G36*
X295320D02*
X293590D01*
Y300330D01*
X295320D01*
Y302260D01*
D02*
G37*
G36*
X332109Y299720D02*
X331470D01*
Y299081D01*
X331474Y299083D01*
X332107Y299715D01*
X332109Y299720D01*
D02*
G37*
G36*
X328930D02*
X328291D01*
X328293Y299715D01*
X328926Y299083D01*
X328930Y299081D01*
Y299720D01*
D02*
G37*
G36*
X276229Y298450D02*
X275590D01*
Y297811D01*
X275595Y297813D01*
X276227Y298445D01*
X276229Y298450D01*
D02*
G37*
G36*
X273050D02*
X272411D01*
X272413Y298445D01*
X273046Y297813D01*
X273050Y297811D01*
Y298450D01*
D02*
G37*
G36*
X328890Y291750D02*
X327660D01*
Y291020D01*
X328890D01*
Y291750D01*
D02*
G37*
G36*
X325120D02*
X323890D01*
Y291020D01*
X325120D01*
Y291750D01*
D02*
G37*
G36*
X290220Y291900D02*
X286990D01*
Y290170D01*
X290220D01*
Y291900D01*
D02*
G37*
G36*
X284450D02*
X281220D01*
Y290170D01*
X284450D01*
Y291900D01*
D02*
G37*
G36*
X275550Y286670D02*
X274320D01*
Y285940D01*
X275550D01*
Y286670D01*
D02*
G37*
G36*
X271780D02*
X270550D01*
Y285940D01*
X271780D01*
Y286670D01*
D02*
G37*
G36*
X290220Y287630D02*
X286990D01*
Y285900D01*
X290220D01*
Y287630D01*
D02*
G37*
G36*
X284450D02*
X281220D01*
Y285900D01*
X284450D01*
Y287630D01*
D02*
G37*
G36*
X275550Y283400D02*
X274320D01*
Y282670D01*
X275550D01*
Y283400D01*
D02*
G37*
G36*
X271780D02*
X270550D01*
Y282670D01*
X271780D01*
Y283400D01*
D02*
G37*
G36*
X255730Y280710D02*
X254000D01*
Y279480D01*
X255730D01*
Y280710D01*
D02*
G37*
G36*
X251460D02*
X249730D01*
Y279480D01*
X251460D01*
Y280710D01*
D02*
G37*
G36*
X255730Y276940D02*
X254000D01*
Y275710D01*
X255730D01*
Y276940D01*
D02*
G37*
G36*
X251460D02*
X249730D01*
Y275710D01*
X251460D01*
Y276940D01*
D02*
G37*
G36*
X275550Y275400D02*
X274320D01*
Y274670D01*
X275550D01*
Y275400D01*
D02*
G37*
G36*
X271780D02*
X270550D01*
Y274670D01*
X271780D01*
Y275400D01*
D02*
G37*
G36*
X290220Y272900D02*
X286990D01*
Y271170D01*
X290220D01*
Y272900D01*
D02*
G37*
G36*
X284450D02*
X281220D01*
Y271170D01*
X284450D01*
Y272900D01*
D02*
G37*
G36*
X257171Y271149D02*
Y270510D01*
X257810D01*
X257808Y270515D01*
X257175Y271147D01*
X257171Y271149D01*
D02*
G37*
G36*
X254631D02*
X254626Y271147D01*
X253993Y270515D01*
X253991Y270510D01*
X254631D01*
Y271149D01*
D02*
G37*
G36*
X257810Y267970D02*
X257171D01*
Y267331D01*
X257175Y267333D01*
X257808Y267966D01*
X257810Y267970D01*
D02*
G37*
G36*
X254631D02*
X253991D01*
X253993Y267966D01*
X254626Y267333D01*
X254631Y267331D01*
Y267970D01*
D02*
G37*
G36*
X290220Y268630D02*
X286990D01*
Y266900D01*
X290220D01*
Y268630D01*
D02*
G37*
G36*
X284450D02*
X281220D01*
Y266900D01*
X284450D01*
Y268630D01*
D02*
G37*
G36*
X284480Y262259D02*
Y261620D01*
X285119D01*
X285117Y261625D01*
X284485Y262257D01*
X284480Y262259D01*
D02*
G37*
G36*
X281940D02*
X281936Y262257D01*
X281303Y261625D01*
X281301Y261620D01*
X281940D01*
Y262259D01*
D02*
G37*
G36*
X285119Y259080D02*
X284480D01*
Y258441D01*
X284485Y258443D01*
X285117Y259076D01*
X285119Y259080D01*
D02*
G37*
G36*
X281940D02*
X281301D01*
X281303Y259076D01*
X281936Y258443D01*
X281940Y258441D01*
Y259080D01*
D02*
G37*
G36*
X185040Y156550D02*
X183185D01*
Y153670D01*
X185040D01*
Y156550D01*
D02*
G37*
G36*
X180645D02*
X178790D01*
Y153670D01*
X180645D01*
Y156550D01*
D02*
G37*
G36*
X185040Y151130D02*
X183185D01*
Y148250D01*
X185040D01*
Y151130D01*
D02*
G37*
G36*
X180645D02*
X178790D01*
Y148250D01*
X180645D01*
Y151130D01*
D02*
G37*
G36*
X168100Y145930D02*
X166370D01*
Y144700D01*
X168100D01*
Y145930D01*
D02*
G37*
G36*
X163830D02*
X162100D01*
Y144700D01*
X163830D01*
Y145930D01*
D02*
G37*
G36*
X168100Y142160D02*
X166370D01*
Y140930D01*
X168100D01*
Y142160D01*
D02*
G37*
G36*
X163830D02*
X162100D01*
Y140930D01*
X163830D01*
Y142160D01*
D02*
G37*
G36*
X110800Y126260D02*
X106070D01*
Y122530D01*
X110800D01*
Y126260D01*
D02*
G37*
G36*
X75850Y125810D02*
X71120D01*
Y122080D01*
X75850D01*
Y125810D01*
D02*
G37*
G36*
X68580D02*
X63850D01*
Y122080D01*
X68580D01*
Y125810D01*
D02*
G37*
G36*
X129850Y122380D02*
X125120D01*
Y120650D01*
X129850D01*
Y122380D01*
D02*
G37*
G36*
X122580D02*
X117850D01*
Y120650D01*
X122580D01*
Y122380D01*
D02*
G37*
G36*
X129850Y118110D02*
X125120D01*
Y116380D01*
X129850D01*
Y118110D01*
D02*
G37*
G36*
X122580D02*
X117850D01*
Y116380D01*
X122580D01*
Y118110D01*
D02*
G37*
G36*
X110800Y119990D02*
X106070D01*
Y116260D01*
X110800D01*
Y119990D01*
D02*
G37*
G36*
X75850Y119540D02*
X71120D01*
Y115810D01*
X75850D01*
Y119540D01*
D02*
G37*
G36*
X68580D02*
X63850D01*
Y115810D01*
X68580D01*
Y119540D01*
D02*
G37*
G36*
X31750Y121370D02*
Y104140D01*
X48980D01*
Y112647D01*
Y121370D01*
X31750D01*
D02*
G37*
G36*
X48980Y101600D02*
X31750D01*
Y84370D01*
X48980D01*
Y101600D01*
D02*
G37*
G36*
X22908Y50347D02*
X19564Y47002D01*
X22908Y43658D01*
X26253Y47002D01*
X22908Y50347D01*
D02*
G37*
G36*
X17768Y45206D02*
X14423Y41862D01*
X17768Y38517D01*
X21112Y41862D01*
X17768Y45206D01*
D02*
G37*
G36*
X28049D02*
X24704Y41862D01*
X28049Y38517D01*
X31394Y41862D01*
X28049Y45206D01*
D02*
G37*
G36*
X22908Y40066D02*
X19564Y36721D01*
X22908Y33376D01*
X26253Y36721D01*
X22908Y40066D01*
D02*
G37*
G36*
X168100Y135930D02*
X166370D01*
Y134700D01*
X168100D01*
Y135930D01*
D02*
G37*
G36*
X163830D02*
X162100D01*
Y134700D01*
X163830D01*
Y135930D01*
D02*
G37*
G36*
X168100Y132160D02*
X166370D01*
Y130930D01*
X168100D01*
Y132160D01*
D02*
G37*
G36*
X163830D02*
X162100D01*
Y130930D01*
X163830D01*
Y132160D01*
D02*
G37*
G36*
X154850Y131880D02*
X150120D01*
Y130150D01*
X154850D01*
Y131880D01*
D02*
G37*
G36*
X147580D02*
X142850D01*
Y130150D01*
X147580D01*
Y131880D01*
D02*
G37*
G36*
X154850Y127610D02*
X150120D01*
Y125880D01*
X154850D01*
Y127610D01*
D02*
G37*
G36*
X147580D02*
X142850D01*
Y125880D01*
X147580D01*
Y127610D01*
D02*
G37*
G36*
X168100Y123130D02*
X166370D01*
Y120650D01*
X168100D01*
Y123130D01*
D02*
G37*
G36*
X163830D02*
X162100D01*
Y120650D01*
X163830D01*
Y123130D01*
D02*
G37*
G36*
X168100Y118110D02*
X166370D01*
Y115630D01*
X168100D01*
Y118110D01*
D02*
G37*
G36*
X163830D02*
X162100D01*
Y115630D01*
X163830D01*
Y118110D01*
D02*
G37*
G36*
X154850D02*
X150120D01*
Y116380D01*
X154850D01*
Y118110D01*
D02*
G37*
G36*
X147580D02*
X142850D01*
Y116380D01*
X147580D01*
Y118110D01*
D02*
G37*
G36*
X168100Y111630D02*
X166370D01*
Y109150D01*
X168100D01*
Y111630D01*
D02*
G37*
G36*
X163830D02*
X162100D01*
Y109150D01*
X163830D01*
Y111630D01*
D02*
G37*
G36*
X168100Y106610D02*
X166370D01*
Y104130D01*
X168100D01*
Y106610D01*
D02*
G37*
G36*
X163830D02*
X162100D01*
Y104130D01*
X163830D01*
Y106610D01*
D02*
G37*
G36*
X144430Y38180D02*
X139700D01*
Y34450D01*
X144430D01*
Y38180D01*
D02*
G37*
G36*
X137160D02*
X132430D01*
Y34450D01*
X137160D01*
Y38180D01*
D02*
G37*
G36*
X122640Y51520D02*
X105410D01*
Y34290D01*
X122640D01*
Y51520D01*
D02*
G37*
G36*
X102870D02*
X85640D01*
Y34290D01*
X102870D01*
Y51520D01*
D02*
G37*
G36*
X144430Y31910D02*
X139700D01*
Y28180D01*
X144430D01*
Y31910D01*
D02*
G37*
G36*
X137160D02*
X132430D01*
Y28180D01*
X137160D01*
Y31910D01*
D02*
G37*
G36*
X43132Y30124D02*
X39787Y26779D01*
X43132Y23434D01*
X46476Y26779D01*
X43132Y30124D01*
D02*
G37*
G36*
X48272Y24983D02*
X44928Y21638D01*
X48272Y18294D01*
X51617Y21638D01*
X48272Y24983D01*
D02*
G37*
G36*
X37991D02*
X34646Y21638D01*
X37991Y18294D01*
X41336Y21638D01*
X37991Y24983D01*
D02*
G37*
G36*
X122640Y31750D02*
X105410D01*
Y14520D01*
X122640D01*
Y31750D01*
D02*
G37*
G36*
X102870D02*
X85640D01*
Y14520D01*
X102870D01*
Y31750D01*
D02*
G37*
G36*
X43132Y19842D02*
X39787Y16498D01*
X43132Y13153D01*
X46476Y16498D01*
X43132Y19842D01*
D02*
G37*
G36*
X106500Y78660D02*
X103270D01*
Y74930D01*
X106500D01*
Y78660D01*
D02*
G37*
G36*
X134460Y75280D02*
X125730D01*
Y72550D01*
X134460D01*
Y75280D01*
D02*
G37*
G36*
X123190D02*
X114460D01*
Y72550D01*
X123190D01*
Y75280D01*
D02*
G37*
G36*
X106500Y72390D02*
X103270D01*
Y68660D01*
X106500D01*
Y72390D01*
D02*
G37*
G36*
X134460Y70010D02*
X125730D01*
Y67280D01*
X134460D01*
Y70010D01*
D02*
G37*
G36*
X123190D02*
X114460D01*
Y67280D01*
X123190D01*
Y70010D01*
D02*
G37*
G36*
X144430Y58180D02*
X139700D01*
Y54450D01*
X144430D01*
Y58180D01*
D02*
G37*
G36*
X137160D02*
X132430D01*
Y54450D01*
X137160D01*
Y58180D01*
D02*
G37*
G36*
X144430Y51910D02*
X139700D01*
Y48180D01*
X144430D01*
Y51910D01*
D02*
G37*
G36*
X137160D02*
X132430D01*
Y48180D01*
X137160D01*
Y51910D01*
D02*
G37*
G36*
X213360Y132719D02*
Y132080D01*
X213999D01*
X213997Y132085D01*
X213364Y132717D01*
X213360Y132719D01*
D02*
G37*
G36*
X210820D02*
X210816Y132717D01*
X210182Y132085D01*
X210181Y132080D01*
X210820D01*
Y132719D01*
D02*
G37*
G36*
X204047D02*
Y132080D01*
X204686D01*
X204684Y132085D01*
X204051Y132717D01*
X204047Y132719D01*
D02*
G37*
G36*
X201507D02*
X201502Y132717D01*
X200869Y132085D01*
X200867Y132080D01*
X201507D01*
Y132719D01*
D02*
G37*
G36*
X194733D02*
Y132080D01*
X195373D01*
X195371Y132085D01*
X194738Y132717D01*
X194733Y132719D01*
D02*
G37*
G36*
X192193D02*
X192189Y132717D01*
X191556Y132085D01*
X191554Y132080D01*
X192193D01*
Y132719D01*
D02*
G37*
G36*
X185420D02*
Y132080D01*
X186059D01*
X186057Y132085D01*
X185424Y132717D01*
X185420Y132719D01*
D02*
G37*
G36*
X182880D02*
X182875Y132717D01*
X182243Y132085D01*
X182241Y132080D01*
X182880D01*
Y132719D01*
D02*
G37*
G36*
X364490Y131449D02*
Y130810D01*
X365129D01*
X365127Y130815D01*
X364495Y131447D01*
X364490Y131449D01*
D02*
G37*
G36*
X361950D02*
X361945Y131447D01*
X361313Y130815D01*
X361311Y130810D01*
X361950D01*
Y131449D01*
D02*
G37*
G36*
X356520Y133430D02*
X351790D01*
Y129700D01*
X356520D01*
Y133430D01*
D02*
G37*
G36*
X349250D02*
X344520D01*
Y129700D01*
X349250D01*
Y133430D01*
D02*
G37*
G36*
X213999Y129540D02*
X213360D01*
Y128901D01*
X213364Y128903D01*
X213997Y129536D01*
X213999Y129540D01*
D02*
G37*
G36*
X210820D02*
X210181D01*
X210182Y129536D01*
X210816Y128903D01*
X210820Y128901D01*
Y129540D01*
D02*
G37*
G36*
X204686D02*
X204047D01*
Y128901D01*
X204051Y128903D01*
X204684Y129536D01*
X204686Y129540D01*
D02*
G37*
G36*
X201507D02*
X200867D01*
X200869Y129536D01*
X201502Y128903D01*
X201507Y128901D01*
Y129540D01*
D02*
G37*
G36*
X195373D02*
X194733D01*
Y128901D01*
X194738Y128903D01*
X195371Y129536D01*
X195373Y129540D01*
D02*
G37*
G36*
X192193D02*
X191554D01*
X191556Y129536D01*
X192189Y128903D01*
X192193Y128901D01*
Y129540D01*
D02*
G37*
G36*
X186059D02*
X185420D01*
Y128901D01*
X185424Y128903D01*
X186057Y129536D01*
X186059Y129540D01*
D02*
G37*
G36*
X182880D02*
X182241D01*
X182243Y129536D01*
X182875Y128903D01*
X182880Y128901D01*
Y129540D01*
D02*
G37*
G36*
X365129Y128270D02*
X364490D01*
Y127631D01*
X364495Y127633D01*
X365127Y128265D01*
X365129Y128270D01*
D02*
G37*
G36*
X361950D02*
X361311D01*
X361313Y128265D01*
X361945Y127633D01*
X361950Y127631D01*
Y128270D01*
D02*
G37*
G36*
X213360Y125099D02*
Y124460D01*
X213999D01*
X213997Y124465D01*
X213364Y125097D01*
X213360Y125099D01*
D02*
G37*
G36*
X210820D02*
X210816Y125097D01*
X210182Y124465D01*
X210181Y124460D01*
X210820D01*
Y125099D01*
D02*
G37*
G36*
X204047D02*
Y124460D01*
X204686D01*
X204684Y124465D01*
X204051Y125097D01*
X204047Y125099D01*
D02*
G37*
G36*
X201507D02*
X201502Y125097D01*
X200869Y124465D01*
X200867Y124460D01*
X201507D01*
Y125099D01*
D02*
G37*
G36*
X194733D02*
Y124460D01*
X195373D01*
X195371Y124465D01*
X194738Y125097D01*
X194733Y125099D01*
D02*
G37*
G36*
X192193D02*
X192189Y125097D01*
X191556Y124465D01*
X191554Y124460D01*
X192193D01*
Y125099D01*
D02*
G37*
G36*
X185420D02*
Y124460D01*
X186059D01*
X186057Y124465D01*
X185424Y125097D01*
X185420Y125099D01*
D02*
G37*
G36*
X182880D02*
X182875Y125097D01*
X182243Y124465D01*
X182241Y124460D01*
X182880D01*
Y125099D01*
D02*
G37*
G36*
X356520Y127160D02*
X351790D01*
Y123430D01*
X356520D01*
Y127160D01*
D02*
G37*
G36*
X349250D02*
X344520D01*
Y123430D01*
X349250D01*
Y127160D01*
D02*
G37*
G36*
X213999Y121920D02*
X213360D01*
Y121281D01*
X213364Y121283D01*
X213997Y121916D01*
X213999Y121920D01*
D02*
G37*
G36*
X210820D02*
X210181D01*
X210182Y121916D01*
X210816Y121283D01*
X210820Y121281D01*
Y121920D01*
D02*
G37*
G36*
X204686D02*
X204047D01*
Y121281D01*
X204051Y121283D01*
X204684Y121916D01*
X204686Y121920D01*
D02*
G37*
G36*
X201507D02*
X200867D01*
X200869Y121916D01*
X201502Y121283D01*
X201507Y121281D01*
Y121920D01*
D02*
G37*
G36*
X195373D02*
X194733D01*
Y121281D01*
X194738Y121283D01*
X195371Y121916D01*
X195373Y121920D01*
D02*
G37*
G36*
X192193D02*
X191554D01*
X191556Y121916D01*
X192189Y121283D01*
X192193Y121281D01*
Y121920D01*
D02*
G37*
G36*
X186059D02*
X185420D01*
Y121281D01*
X185424Y121283D01*
X186057Y121916D01*
X186059Y121920D01*
D02*
G37*
G36*
X182880D02*
X182241D01*
X182243Y121916D01*
X182875Y121283D01*
X182880Y121281D01*
Y121920D01*
D02*
G37*
G36*
X213360Y117479D02*
Y116840D01*
X213999D01*
X213997Y116845D01*
X213364Y117477D01*
X213360Y117479D01*
D02*
G37*
G36*
X210820D02*
X210816Y117477D01*
X210182Y116845D01*
X210181Y116840D01*
X210820D01*
Y117479D01*
D02*
G37*
G36*
X204047D02*
Y116840D01*
X204686D01*
X204684Y116845D01*
X204051Y117477D01*
X204047Y117479D01*
D02*
G37*
G36*
X201507D02*
X201502Y117477D01*
X200869Y116845D01*
X200867Y116840D01*
X201507D01*
Y117479D01*
D02*
G37*
G36*
X194733D02*
Y116840D01*
X195373D01*
X195371Y116845D01*
X194738Y117477D01*
X194733Y117479D01*
D02*
G37*
G36*
X192193D02*
X192189Y117477D01*
X191556Y116845D01*
X191554Y116840D01*
X192193D01*
Y117479D01*
D02*
G37*
G36*
X185420D02*
Y116840D01*
X186059D01*
X186057Y116845D01*
X185424Y117477D01*
X185420Y117479D01*
D02*
G37*
G36*
X182880D02*
X182875Y117477D01*
X182243Y116845D01*
X182241Y116840D01*
X182880D01*
Y117479D01*
D02*
G37*
G36*
X213999Y114300D02*
X213360D01*
Y113661D01*
X213364Y113663D01*
X213997Y114296D01*
X213999Y114300D01*
D02*
G37*
G36*
X210820D02*
X210181D01*
X210182Y114296D01*
X210816Y113663D01*
X210820Y113661D01*
Y114300D01*
D02*
G37*
G36*
X204686D02*
X204047D01*
Y113661D01*
X204051Y113663D01*
X204684Y114296D01*
X204686Y114300D01*
D02*
G37*
G36*
X201507D02*
X200867D01*
X200869Y114296D01*
X201502Y113663D01*
X201507Y113661D01*
Y114300D01*
D02*
G37*
G36*
X195373D02*
X194733D01*
Y113661D01*
X194738Y113663D01*
X195371Y114296D01*
X195373Y114300D01*
D02*
G37*
G36*
X192193D02*
X191554D01*
X191556Y114296D01*
X192189Y113663D01*
X192193Y113661D01*
Y114300D01*
D02*
G37*
G36*
X186059D02*
X185420D01*
Y113661D01*
X185424Y113663D01*
X186057Y114296D01*
X186059Y114300D01*
D02*
G37*
G36*
X182880D02*
X182241D01*
X182243Y114296D01*
X182875Y113663D01*
X182880Y113661D01*
Y114300D01*
D02*
G37*
G36*
X410930Y122640D02*
X393700D01*
Y105410D01*
X410930D01*
Y122640D01*
D02*
G37*
G36*
X391160D02*
X373930D01*
Y105410D01*
X391160D01*
Y122640D01*
D02*
G37*
G36*
X336910Y109600D02*
X322180D01*
Y102870D01*
X336910D01*
Y109600D01*
D02*
G37*
G36*
X319640D02*
X304910D01*
Y102870D01*
X319640D01*
Y109600D01*
D02*
G37*
G36*
X336910Y100330D02*
X322180D01*
Y93600D01*
X336910D01*
Y100330D01*
D02*
G37*
G36*
X319640D02*
X304910D01*
Y93600D01*
X319640D01*
Y100330D01*
D02*
G37*
G36*
X410930Y102870D02*
X393700D01*
Y85640D01*
X410930D01*
Y102870D01*
D02*
G37*
G36*
X391160D02*
X373930D01*
Y85640D01*
X391160D01*
Y102870D01*
D02*
G37*
G36*
X403812Y51617D02*
X400467Y48272D01*
X403812Y44928D01*
X407156Y48272D01*
X403812Y51617D01*
D02*
G37*
G36*
X408952Y46476D02*
X405608Y43132D01*
X408952Y39787D01*
X412297Y43132D01*
X408952Y46476D01*
D02*
G37*
G36*
X398671Y46476D02*
X395326Y43132D01*
X398671Y39787D01*
X402016Y43132D01*
X398671Y46476D01*
D02*
G37*
G36*
X286910Y109600D02*
X272180D01*
Y102870D01*
X286910D01*
Y109600D01*
D02*
G37*
G36*
X269640D02*
X254910D01*
Y102870D01*
X269640D01*
Y109600D01*
D02*
G37*
G36*
X286910Y100330D02*
X272180D01*
Y93600D01*
X286910D01*
Y100330D01*
D02*
G37*
G36*
X269640D02*
X254910D01*
Y93600D01*
X269640D01*
Y100330D01*
D02*
G37*
G36*
X285750Y89539D02*
Y88900D01*
X286389D01*
X286387Y88904D01*
X285755Y89537D01*
X285750Y89539D01*
D02*
G37*
G36*
X283210D02*
X283206Y89537D01*
X282573Y88904D01*
X282571Y88900D01*
X283210D01*
Y89539D01*
D02*
G37*
G36*
X273050D02*
Y88900D01*
X273689D01*
X273687Y88904D01*
X273055Y89537D01*
X273050Y89539D01*
D02*
G37*
G36*
X270510D02*
X270506Y89537D01*
X269873Y88904D01*
X269871Y88900D01*
X270510D01*
Y89539D01*
D02*
G37*
G36*
X260350D02*
Y88900D01*
X260989D01*
X260987Y88904D01*
X260354Y89537D01*
X260350Y89539D01*
D02*
G37*
G36*
X257810D02*
X257806Y89537D01*
X257173Y88904D01*
X257171Y88900D01*
X257810D01*
Y89539D01*
D02*
G37*
G36*
X286389Y86360D02*
X285750D01*
Y85721D01*
X285755Y85723D01*
X286387Y86355D01*
X286389Y86360D01*
D02*
G37*
G36*
X283210D02*
X282571D01*
X282573Y86355D01*
X283206Y85723D01*
X283210Y85721D01*
Y86360D01*
D02*
G37*
G36*
X273689D02*
X273050D01*
Y85721D01*
X273055Y85723D01*
X273687Y86355D01*
X273689Y86360D01*
D02*
G37*
G36*
X270510D02*
X269871D01*
X269873Y86355D01*
X270506Y85723D01*
X270510Y85721D01*
Y86360D01*
D02*
G37*
G36*
X260989D02*
X260350D01*
Y85721D01*
X260354Y85723D01*
X260987Y86355D01*
X260989Y86360D01*
D02*
G37*
G36*
X257810D02*
X257171D01*
X257173Y86355D01*
X257806Y85723D01*
X257810Y85721D01*
Y86360D01*
D02*
G37*
G36*
X285750Y74299D02*
Y73660D01*
X286389D01*
X286387Y73664D01*
X285755Y74297D01*
X285750Y74299D01*
D02*
G37*
G36*
X283210D02*
X283206Y74297D01*
X282573Y73664D01*
X282571Y73660D01*
X283210D01*
Y74299D01*
D02*
G37*
G36*
X273050D02*
Y73660D01*
X273689D01*
X273687Y73664D01*
X273055Y74297D01*
X273050Y74299D01*
D02*
G37*
G36*
X270510D02*
X270506Y74297D01*
X269873Y73664D01*
X269871Y73660D01*
X270510D01*
Y74299D01*
D02*
G37*
G36*
X260350D02*
Y73660D01*
X260989D01*
X260987Y73664D01*
X260354Y74297D01*
X260350Y74299D01*
D02*
G37*
G36*
X257810D02*
X257806Y74297D01*
X257173Y73664D01*
X257171Y73660D01*
X257810D01*
Y74299D01*
D02*
G37*
G36*
X286389Y71120D02*
X285750D01*
Y70481D01*
X285755Y70483D01*
X286387Y71115D01*
X286389Y71120D01*
D02*
G37*
G36*
X283210D02*
X282571D01*
X282573Y71115D01*
X283206Y70483D01*
X283210Y70481D01*
Y71120D01*
D02*
G37*
G36*
X273689D02*
X273050D01*
Y70481D01*
X273055Y70483D01*
X273687Y71115D01*
X273689Y71120D01*
D02*
G37*
G36*
X270510D02*
X269871D01*
X269873Y71115D01*
X270506Y70483D01*
X270510Y70481D01*
Y71120D01*
D02*
G37*
G36*
X260989D02*
X260350D01*
Y70481D01*
X260354Y70483D01*
X260987Y71115D01*
X260989Y71120D01*
D02*
G37*
G36*
X257810D02*
X257171D01*
X257173Y71115D01*
X257806Y70483D01*
X257810Y70481D01*
Y71120D01*
D02*
G37*
G36*
X295910Y57789D02*
Y57150D01*
X296549D01*
X296547Y57154D01*
X295914Y57787D01*
X295910Y57789D01*
D02*
G37*
G36*
X293370D02*
X293365Y57787D01*
X292733Y57154D01*
X292731Y57150D01*
X293370D01*
Y57789D01*
D02*
G37*
G36*
X285750D02*
Y57150D01*
X286389D01*
X286387Y57154D01*
X285755Y57787D01*
X285750Y57789D01*
D02*
G37*
G36*
X283210D02*
X283206Y57787D01*
X282573Y57154D01*
X282571Y57150D01*
X283210D01*
Y57789D01*
D02*
G37*
G36*
X273050D02*
Y57150D01*
X273689D01*
X273687Y57154D01*
X273055Y57787D01*
X273050Y57789D01*
D02*
G37*
G36*
X270510D02*
X270506Y57787D01*
X269873Y57154D01*
X269871Y57150D01*
X270510D01*
Y57789D01*
D02*
G37*
G36*
X296549Y54610D02*
X295910D01*
Y53971D01*
X295914Y53973D01*
X296547Y54605D01*
X296549Y54610D01*
D02*
G37*
G36*
X293370D02*
X292731D01*
X292733Y54605D01*
X293365Y53973D01*
X293370Y53971D01*
Y54610D01*
D02*
G37*
G36*
X286389D02*
X285750D01*
Y53971D01*
X285755Y53973D01*
X286387Y54605D01*
X286389Y54610D01*
D02*
G37*
G36*
X283210D02*
X282571D01*
X282573Y54605D01*
X283206Y53973D01*
X283210Y53971D01*
Y54610D01*
D02*
G37*
G36*
X273689D02*
X273050D01*
Y53971D01*
X273055Y53973D01*
X273687Y54605D01*
X273689Y54610D01*
D02*
G37*
G36*
X270510D02*
X269871D01*
X269873Y54605D01*
X270506Y53973D01*
X270510Y53971D01*
Y54610D01*
D02*
G37*
G36*
X295910Y45089D02*
Y44450D01*
X296549D01*
X296547Y44454D01*
X295914Y45087D01*
X295910Y45089D01*
D02*
G37*
G36*
X293370D02*
X293365Y45087D01*
X292733Y44454D01*
X292731Y44450D01*
X293370D01*
Y45089D01*
D02*
G37*
G36*
X285750D02*
Y44450D01*
X286389D01*
X286387Y44454D01*
X285755Y45087D01*
X285750Y45089D01*
D02*
G37*
G36*
X283210D02*
X283206Y45087D01*
X282573Y44454D01*
X282571Y44450D01*
X283210D01*
Y45089D01*
D02*
G37*
G36*
X296549Y41910D02*
X295910D01*
Y41271D01*
X295914Y41273D01*
X296547Y41905D01*
X296549Y41910D01*
D02*
G37*
G36*
X293370D02*
X292731D01*
X292733Y41905D01*
X293365Y41273D01*
X293370Y41271D01*
Y41910D01*
D02*
G37*
G36*
X286389D02*
X285750D01*
Y41271D01*
X285755Y41273D01*
X286387Y41905D01*
X286389Y41910D01*
D02*
G37*
G36*
X283210D02*
X282571D01*
X282573Y41905D01*
X283206Y41273D01*
X283210Y41271D01*
Y41910D01*
D02*
G37*
G36*
X338540Y50250D02*
X321310D01*
Y33020D01*
X338540D01*
Y50250D01*
D02*
G37*
G36*
X318770D02*
X301540D01*
Y33020D01*
X318770D01*
Y50250D01*
D02*
G37*
G36*
X295910Y32389D02*
Y31750D01*
X296549D01*
X296547Y31755D01*
X295914Y32387D01*
X295910Y32389D01*
D02*
G37*
G36*
X293370D02*
X293365Y32387D01*
X292733Y31755D01*
X292731Y31750D01*
X293370D01*
Y32389D01*
D02*
G37*
G36*
X296549Y29210D02*
X295910D01*
Y28571D01*
X295914Y28573D01*
X296547Y29206D01*
X296549Y29210D01*
D02*
G37*
G36*
X293370D02*
X292731D01*
X292733Y29206D01*
X293365Y28573D01*
X293370Y28571D01*
Y29210D01*
D02*
G37*
G36*
X368300Y28579D02*
Y27940D01*
X368939D01*
X368937Y27945D01*
X368304Y28577D01*
X368300Y28579D01*
D02*
G37*
G36*
X365760D02*
X365756Y28577D01*
X365123Y27945D01*
X365121Y27940D01*
X365760D01*
Y28579D01*
D02*
G37*
G36*
X353060D02*
Y27940D01*
X353699D01*
X353697Y27945D01*
X353064Y28577D01*
X353060Y28579D01*
D02*
G37*
G36*
X350520D02*
X350516Y28577D01*
X349883Y27945D01*
X349881Y27940D01*
X350520D01*
Y28579D01*
D02*
G37*
G36*
X368939Y25400D02*
X368300D01*
Y24761D01*
X368304Y24763D01*
X368937Y25396D01*
X368939Y25400D01*
D02*
G37*
G36*
X365760D02*
X365121D01*
X365123Y25396D01*
X365756Y24763D01*
X365760Y24761D01*
Y25400D01*
D02*
G37*
G36*
X353699D02*
X353060D01*
Y24761D01*
X353064Y24763D01*
X353697Y25396D01*
X353699Y25400D01*
D02*
G37*
G36*
X350520D02*
X349881D01*
X349883Y25396D01*
X350516Y24763D01*
X350520Y24761D01*
Y25400D01*
D02*
G37*
G36*
X383588Y31394D02*
X380244Y28049D01*
X383588Y24704D01*
X386933Y28049D01*
X383588Y31394D01*
D02*
G37*
G36*
X378448Y26253D02*
X375103Y22908D01*
X378448Y19564D01*
X381792Y22908D01*
X378448Y26253D01*
D02*
G37*
G36*
X388729D02*
X385384Y22908D01*
X388729Y19564D01*
X392074Y22908D01*
X388729Y26253D01*
D02*
G37*
G36*
X353060Y18419D02*
Y17780D01*
X353699D01*
X353697Y17785D01*
X353064Y18417D01*
X353060Y18419D01*
D02*
G37*
G36*
X350520D02*
X350516Y18417D01*
X349883Y17785D01*
X349881Y17780D01*
X350520D01*
Y18419D01*
D02*
G37*
G36*
X353699Y15240D02*
X353060D01*
Y14601D01*
X353064Y14603D01*
X353697Y15236D01*
X353699Y15240D01*
D02*
G37*
G36*
X350520D02*
X349881D01*
X349883Y15236D01*
X350516Y14603D01*
X350520Y14601D01*
Y15240D01*
D02*
G37*
G36*
X383588Y21112D02*
X380244Y17768D01*
X383588Y14423D01*
X386933Y17768D01*
X383588Y21112D01*
D02*
G37*
G36*
X338540Y30480D02*
X321310D01*
Y13250D01*
X338540D01*
Y30480D01*
D02*
G37*
G36*
X318770D02*
X301540D01*
Y13250D01*
X318770D01*
Y30480D01*
D02*
G37*
%LPD*%
D18*
X208280Y370920D02*
D03*
Y380920D02*
D03*
X252730Y278210D02*
D03*
Y288210D02*
D03*
X165100Y133430D02*
D03*
Y143430D02*
D03*
X143510Y361950D02*
D03*
Y351950D02*
D03*
X111760Y361790D02*
D03*
Y351790D02*
D03*
D19*
X110539Y321851D02*
D03*
X101739D02*
D03*
X389300Y135890D02*
D03*
X398100D02*
D03*
X147910Y332740D02*
D03*
X139110D02*
D03*
X85770Y158750D02*
D03*
X94570D02*
D03*
X352380Y303530D02*
D03*
X343580D02*
D03*
X186010Y219710D02*
D03*
X177210D02*
D03*
X130900D02*
D03*
X139700D02*
D03*
X245700Y160020D02*
D03*
X236900D02*
D03*
X299130Y232410D02*
D03*
X307930D02*
D03*
X320040Y168910D02*
D03*
X328840D02*
D03*
X321990Y213360D02*
D03*
X330790D02*
D03*
X296590Y303530D02*
D03*
X305390D02*
D03*
X168320Y208280D02*
D03*
X177120D02*
D03*
X148000D02*
D03*
X156800D02*
D03*
X352380Y317500D02*
D03*
X343580D02*
D03*
X333420Y330200D02*
D03*
X342220D02*
D03*
X89490Y320040D02*
D03*
X80690D02*
D03*
X234270Y236220D02*
D03*
X225470D02*
D03*
D20*
X210820Y213360D02*
D03*
X222320D02*
D03*
D22*
X258710Y179310D02*
D03*
Y184310D02*
D03*
Y189310D02*
D03*
Y194310D02*
D03*
Y199310D02*
D03*
Y204310D02*
D03*
Y209310D02*
D03*
X307710D02*
D03*
Y204310D02*
D03*
Y199310D02*
D03*
Y194310D02*
D03*
Y189310D02*
D03*
Y184310D02*
D03*
Y179310D02*
D03*
D23*
X298210Y169810D02*
D03*
X293210D02*
D03*
X288210D02*
D03*
X283210D02*
D03*
X278210D02*
D03*
X273210D02*
D03*
X268210D02*
D03*
Y218810D02*
D03*
X273210D02*
D03*
X278210D02*
D03*
X283210D02*
D03*
X288210D02*
D03*
X293210D02*
D03*
X298210D02*
D03*
D24*
X230400Y185420D02*
D03*
D25*
X201400Y173920D02*
D03*
Y196920D02*
D03*
D26*
X140140Y235340D02*
D03*
X145140D02*
D03*
X150140D02*
D03*
X155140D02*
D03*
X160140D02*
D03*
X165140D02*
D03*
X170140D02*
D03*
X175140D02*
D03*
X180140D02*
D03*
X185140D02*
D03*
X190140D02*
D03*
X195140D02*
D03*
Y315840D02*
D03*
X190140D02*
D03*
X185140D02*
D03*
X180140D02*
D03*
X175140D02*
D03*
X170140D02*
D03*
X165140D02*
D03*
X160140D02*
D03*
X155140D02*
D03*
X150140D02*
D03*
X145140D02*
D03*
X140140D02*
D03*
D27*
X207890Y248090D02*
D03*
Y253090D02*
D03*
Y258090D02*
D03*
Y263090D02*
D03*
Y268090D02*
D03*
Y273090D02*
D03*
Y278090D02*
D03*
Y283090D02*
D03*
Y288090D02*
D03*
Y293090D02*
D03*
Y298090D02*
D03*
Y303090D02*
D03*
X127390D02*
D03*
Y298090D02*
D03*
Y293090D02*
D03*
Y288090D02*
D03*
Y283090D02*
D03*
Y278090D02*
D03*
Y273090D02*
D03*
Y268090D02*
D03*
Y263090D02*
D03*
Y258090D02*
D03*
Y253090D02*
D03*
Y248090D02*
D03*
D28*
X328930Y201250D02*
D03*
Y192450D02*
D03*
X111760Y243250D02*
D03*
Y252050D02*
D03*
X246380Y214040D02*
D03*
Y222840D02*
D03*
X223520Y294050D02*
D03*
Y302850D02*
D03*
X148590Y93890D02*
D03*
Y85090D02*
D03*
X332740Y341040D02*
D03*
Y349840D02*
D03*
D29*
X297100Y326390D02*
D03*
X287100D02*
D03*
D30*
X128270Y353180D02*
D03*
Y368180D02*
D03*
X96520Y353180D02*
D03*
Y368180D02*
D03*
D31*
X73660Y239360D02*
D03*
Y250860D02*
D03*
X165100Y107880D02*
D03*
Y119380D02*
D03*
X347980Y199320D02*
D03*
Y210820D02*
D03*
X267970Y244510D02*
D03*
Y233010D02*
D03*
X321310Y241970D02*
D03*
Y230470D02*
D03*
D32*
X350520Y148430D02*
D03*
Y128430D02*
D03*
X138430Y53180D02*
D03*
Y33180D02*
D03*
X104800Y121260D02*
D03*
Y141260D02*
D03*
X69850Y120810D02*
D03*
Y140810D02*
D03*
D33*
X204165Y152400D02*
D03*
X181915D02*
D03*
D34*
X376890Y311150D02*
D03*
X389890D02*
D03*
X79860Y180340D02*
D03*
X92860D02*
D03*
X79860Y205740D02*
D03*
X92860D02*
D03*
D35*
X270910Y101600D02*
D03*
X320910D02*
D03*
D36*
X280530Y148590D02*
D03*
X263030D02*
D03*
X314680D02*
D03*
X297180D02*
D03*
D37*
X347980Y261480D02*
D03*
Y243980D02*
D03*
D38*
X97790Y237090D02*
D03*
Y250590D02*
D03*
D39*
X95250Y289560D02*
D03*
D40*
X85500Y304292D02*
D03*
X92000D02*
D03*
X98500D02*
D03*
X105000D02*
D03*
Y274828D02*
D03*
X98500D02*
D03*
X92000D02*
D03*
X85500D02*
D03*
D41*
X403812Y43132D02*
D03*
X43132Y21638D02*
D03*
D42*
X383588Y22908D02*
D03*
X22908Y41862D02*
D03*
D43*
X313720Y279400D02*
D03*
X285720Y269900D02*
D03*
Y288900D02*
D03*
D44*
X124460Y91280D02*
D03*
Y71280D02*
D03*
D45*
X123850Y109880D02*
D03*
X123850Y119380D02*
D03*
X123850Y128880D02*
D03*
X148850D02*
D03*
X148850Y119380D02*
D03*
X148850Y109880D02*
D03*
D46*
X58600Y312040D02*
D03*
Y328040D02*
D03*
X17600D02*
D03*
Y312040D02*
D03*
D47*
X38100Y305790D02*
D03*
D48*
X146480Y176920D02*
D03*
X168480D02*
D03*
Y193920D02*
D03*
X146480D02*
D03*
D49*
X296600Y346260D02*
D03*
X291600D02*
D03*
X286600D02*
D03*
X281600D02*
D03*
X276600D02*
D03*
X301600D02*
D03*
X261600D02*
D03*
X256600D02*
D03*
X251600D02*
D03*
X246600D02*
D03*
X241600D02*
D03*
X266600D02*
D03*
X249100Y359260D02*
D03*
X254100D02*
D03*
X259100D02*
D03*
X264100D02*
D03*
X269100D02*
D03*
X279100D02*
D03*
X284100D02*
D03*
X289100D02*
D03*
X294100D02*
D03*
X274100D02*
D03*
D50*
X240600Y359360D02*
D03*
X302600Y359260D02*
D03*
D51*
X102000Y73660D02*
D03*
X88500D02*
D03*
D52*
X273050Y284670D02*
D03*
Y276670D02*
D03*
X326390Y289750D02*
D03*
Y281750D02*
D03*
D53*
X242140Y316310D02*
D03*
Y321310D02*
D03*
Y326310D02*
D03*
X258240D02*
D03*
Y321310D02*
D03*
Y316310D02*
D03*
D91*
X283210Y194310D02*
D03*
X392430Y104140D02*
D03*
X104140Y33020D02*
D03*
X320040Y31750D02*
D03*
X30480Y102870D02*
D03*
D92*
X203200Y130810D02*
X220980D01*
X245240Y155070D01*
Y159560D02*
X245700Y160020D01*
X245240Y155070D02*
Y159560D01*
X250190Y148590D02*
X263030D01*
X326390Y261620D02*
Y281750D01*
X116080Y73660D02*
X118460Y71280D01*
X102000Y73660D02*
X116080D01*
X118460Y71280D02*
X124460D01*
X88030Y250590D02*
X97790D01*
X87630Y250190D02*
X88030Y250590D01*
X398100Y112765D02*
Y135890D01*
X392430Y107095D02*
X398100Y112765D01*
X392430Y104140D02*
Y107095D01*
X328840Y151040D02*
Y168910D01*
X326390Y148590D02*
X328840Y151040D01*
X94570Y158550D02*
X101340Y151780D01*
Y143720D02*
X103800Y141260D01*
X104800D01*
X94570Y158550D02*
Y158750D01*
X101340Y143720D02*
Y151780D01*
X181915Y151375D02*
Y152400D01*
X175260Y144720D02*
X181915Y151375D01*
X164940Y53180D02*
X175260Y63500D01*
Y144720D01*
X165100Y96520D02*
Y107880D01*
X316230Y251460D02*
X326390Y261620D01*
X306070Y251460D02*
X316230D01*
X299130Y244520D02*
X306070Y251460D01*
X299130Y232410D02*
Y244520D01*
X222250Y223520D02*
X222320Y223450D01*
Y213360D02*
Y223450D01*
X350520Y148430D02*
Y157480D01*
X330790Y213360D02*
X339090D01*
X215900Y194310D02*
X222320Y200730D01*
Y213360D01*
X215900Y165160D02*
Y194310D01*
X138430Y53180D02*
X164940D01*
X314680Y148590D02*
X326390D01*
X103800Y121260D02*
X104800D01*
X85770Y139290D02*
Y158750D01*
Y139290D02*
X103800Y121260D01*
X43100Y169710D02*
X54060Y158750D01*
X85770D01*
X38100Y169710D02*
X43100D01*
X104800Y141260D02*
X107050Y143510D01*
X116840D01*
X68850Y140810D02*
X69850D01*
X66390Y143270D02*
X68850Y140810D01*
X66040Y151130D02*
X66390Y150780D01*
Y143270D02*
Y150780D01*
X204165Y153425D02*
X215900Y165160D01*
X204165Y152400D02*
Y153425D01*
X201400Y210384D02*
X204376Y213360D01*
X210820D01*
X201400Y196920D02*
Y210384D01*
X177120Y208280D02*
X185420D01*
X201400Y173920D02*
X203200Y175720D01*
Y182880D01*
X389890Y311150D02*
Y323850D01*
X379730Y135890D02*
X389300D01*
X398440Y136230D02*
Y168890D01*
X398100Y135890D02*
X398440Y136230D01*
Y168890D02*
X398780Y169230D01*
X142240Y85090D02*
X148590D01*
X135890Y91440D02*
X142240Y85090D01*
X124620Y91440D02*
X135890D01*
X124460Y91280D02*
X124620Y91440D01*
X148720Y94020D02*
Y109750D01*
X148850Y109880D01*
X148590Y93890D02*
X148720Y94020D01*
X97790Y237090D02*
X99750Y239050D01*
X107360D01*
X111560Y243250D01*
X111760D01*
X98790Y251590D02*
X111300D01*
X97790Y250590D02*
X98790Y251590D01*
X332740Y341040D02*
X332940D01*
X333400Y340580D01*
Y340380D02*
Y340580D01*
Y340380D02*
X333420Y340360D01*
Y330200D02*
Y340360D01*
X139700Y208280D02*
X148000D01*
D93*
X227620Y160020D02*
X236900D01*
X392740Y249230D02*
X398780D01*
X350660Y241300D02*
X384810D01*
X392740Y249230D01*
X347980Y243980D02*
X350660Y241300D01*
X393285Y269230D02*
X398780D01*
X347980Y261480D02*
X385535D01*
X393285Y269230D01*
X175160Y235360D02*
Y256440D01*
X175260Y256540D01*
X175140Y235340D02*
X175160Y235360D01*
X170140Y235340D02*
Y265212D01*
X177120Y208280D02*
X177165Y208325D01*
Y219665D02*
X177210Y219710D01*
X248920Y179070D02*
X249080Y179230D01*
X258630D02*
X258710Y179310D01*
X249080Y179230D02*
X258630D01*
X154565Y342525D02*
X154940Y342900D01*
X147910Y332940D02*
X154565Y339595D01*
X147910Y332740D02*
Y332940D01*
X154565Y339595D02*
Y342525D01*
X241300Y360060D02*
Y367030D01*
X209180Y371820D02*
X258100D01*
X264100Y365820D01*
X208280Y370920D02*
X209180Y371820D01*
X199430Y380960D02*
X208240D01*
X240600Y359360D02*
X241300Y360060D01*
X79860Y205740D02*
X80010Y205890D01*
Y217170D01*
X73660Y228600D02*
Y239360D01*
X121920Y219710D02*
X130900D01*
X147219Y248920D02*
X162560D01*
X140440Y277150D02*
X140823D01*
X139500Y278090D02*
X140440Y277150D01*
X138839Y272360D02*
X151180D01*
X127390Y278090D02*
X139500D01*
X151870Y273050D02*
X152400D01*
X151180Y272360D02*
X151870Y273050D01*
X138109Y273090D02*
X138839Y272360D01*
X127390Y273090D02*
X138109D01*
X158750Y264160D02*
Y283210D01*
X221790Y295780D02*
X225095Y292475D01*
X230765D01*
X231140Y292100D01*
X207890Y263090D02*
X264402D01*
X187960Y251460D02*
Y264160D01*
Y251460D02*
X194044Y245376D01*
X196195Y253090D02*
X207890D01*
X195448Y253836D02*
X196195Y253090D01*
X194918Y253836D02*
X195448D01*
X208259Y236220D02*
X225470D01*
X199103Y245376D02*
X208259Y236220D01*
X241590Y236934D02*
X248496Y243840D01*
X246380Y222840D02*
Y234950D01*
X248496Y243840D02*
X248920D01*
X92710Y287020D02*
X95250Y289560D01*
X17600Y328040D02*
X58600D01*
Y328540D02*
X59480Y327660D01*
X67310D01*
X105000Y304292D02*
X105254Y304546D01*
Y311256D01*
X105887Y311890D01*
Y312420D01*
X101739Y314841D02*
Y321851D01*
Y330741D01*
X98754Y311856D02*
X101739Y314841D01*
X182324Y296200D02*
X185140Y299016D01*
Y315840D01*
X155496Y296200D02*
X182324D01*
X145892Y305804D02*
X155496Y296200D01*
X138675Y305804D02*
X145892D01*
X128270Y316209D02*
X138675Y305804D01*
X128270Y316209D02*
Y353180D01*
X180160Y301170D02*
Y315820D01*
Y301170D02*
X180340Y300990D01*
X135551Y301389D02*
X139325D01*
X139700Y301014D01*
X133870Y303070D02*
X135551Y301389D01*
X121497Y313267D02*
Y328083D01*
X98500Y304292D02*
X98754Y304546D01*
Y311856D01*
X85500Y296545D02*
Y304292D01*
X85246Y304546D02*
X85500Y304292D01*
Y296545D02*
X92485Y289560D01*
X95250D01*
X297100Y326390D02*
X306070D01*
X229820Y301120D02*
X251000Y279940D01*
Y279440D02*
Y279940D01*
X225250Y301120D02*
X229820D01*
X252230Y278210D02*
X252730D01*
X251000Y279440D02*
X252230Y278210D01*
X232410Y304800D02*
Y313690D01*
Y304800D02*
X234950Y302260D01*
X250190D01*
X223520Y302850D02*
X225250Y301120D01*
X218847Y298090D02*
X221157Y295780D01*
X221790D01*
X207890Y298090D02*
X218847D01*
X81280Y246380D02*
X87340Y240320D01*
X94560D01*
X81280Y246380D02*
Y257810D01*
X49530Y289560D02*
X81280Y257810D01*
X34290Y289560D02*
X49530D01*
X24742Y299108D02*
X34290Y289560D01*
X24742Y299108D02*
Y320398D01*
X94560Y240320D02*
X97790Y237090D01*
X17600Y327540D02*
X24742Y320398D01*
X17600Y327540D02*
Y328040D01*
X49530Y312420D02*
X58220D01*
X58600Y312040D01*
X72336Y252184D02*
Y256594D01*
X29210Y281940D02*
X46990D01*
X72336Y252184D02*
X73660Y250860D01*
X46990Y281940D02*
X72336Y256594D01*
X17600Y293550D02*
Y312040D01*
Y293550D02*
X29210Y281940D01*
X38100Y305790D02*
Y312420D01*
X176530Y377190D02*
X182880Y383540D01*
Y364490D02*
Y383540D01*
Y403860D01*
X120650Y377190D02*
X176530D01*
X77387Y360280D02*
X109537Y392430D01*
X160597D02*
X172027Y403860D01*
X109537Y392430D02*
X160597D01*
X118407Y374947D02*
X120650Y377190D01*
X172027Y403860D02*
X182880D01*
X77387Y347327D02*
Y360280D01*
X58600Y328540D02*
X77387Y347327D01*
X89490Y320040D02*
X90170Y319360D01*
Y311150D02*
Y319360D01*
Y320720D02*
Y323850D01*
X89490Y320040D02*
X90170Y320720D01*
X72390Y323850D02*
X76200Y327660D01*
X86360D02*
X90170Y323850D01*
X76200Y327660D02*
X86360D01*
X81370Y313600D02*
Y317500D01*
Y313600D02*
X85246Y309724D01*
X90170Y311150D02*
X91746Y309574D01*
X104140Y336550D02*
X113030D01*
X121497Y328083D01*
X110584Y321896D02*
Y330696D01*
X110629Y330741D01*
X96520Y344170D02*
X104140Y336550D01*
X110539Y321851D02*
X110584Y321896D01*
X85246Y304546D02*
Y309724D01*
X72390Y276860D02*
Y323850D01*
X158750Y283210D02*
X166370Y290830D01*
X96520Y344170D02*
Y353180D01*
X118407Y357937D02*
Y374947D01*
X112260Y351790D02*
X118407Y357937D01*
X111760Y351790D02*
X112260D01*
X170340Y351950D02*
X182880Y364490D01*
X143510Y351950D02*
X170340D01*
X139110Y348050D02*
X143010Y351950D01*
X139110Y332740D02*
Y348050D01*
X143010Y351950D02*
X143510D01*
X141604Y243305D02*
X147219Y248920D01*
X141604Y243264D02*
Y243305D01*
X133850Y248090D02*
X140140Y241800D01*
X141604Y243264D01*
X127390Y248090D02*
X133850D01*
X140120Y220130D02*
Y241780D01*
X140140Y241800D01*
X321010Y242270D02*
X321310Y241970D01*
X312720Y242270D02*
X321010D01*
X312420Y242570D02*
X312720Y242270D01*
X264402Y263090D02*
X293210Y234282D01*
X264373Y258090D02*
X288210Y234253D01*
X207890Y258090D02*
X264373D01*
X220450Y251460D02*
X220980D01*
X217100Y248110D02*
X220450Y251460D01*
X207910Y248110D02*
X217100D01*
X293210Y218810D02*
Y234282D01*
X288210Y218810D02*
Y234253D01*
X185420Y266700D02*
X187960Y264160D01*
X194044Y245376D02*
X199103D01*
X170140Y265212D02*
X171628Y266700D01*
X185420D01*
X154940Y260350D02*
X158750Y264160D01*
X141631Y260350D02*
X154940D01*
X133850Y268090D02*
X135314Y266626D01*
X127390Y268090D02*
X133850D01*
X135314Y266626D02*
X135355D01*
X141631Y260350D01*
X180140Y235340D02*
X180160Y235360D01*
Y248740D01*
X180340Y248920D01*
X335135Y224415D02*
X347980Y211570D01*
Y210820D02*
Y211570D01*
X333115Y224415D02*
X335135D01*
X332740Y224790D02*
X333115Y224415D01*
X328260Y230470D02*
X334010Y236220D01*
X321310Y230470D02*
X328260D01*
X319986Y229146D02*
X321310Y230470D01*
X298290Y218890D02*
Y231570D01*
X298210Y218810D02*
X298290Y218890D01*
Y231570D02*
X299130Y232410D01*
X260280Y244510D02*
X267970D01*
X259610Y243840D02*
X260280Y244510D01*
X259080Y243840D02*
X259610D01*
X307930Y232410D02*
X309505Y230835D01*
Y225165D02*
X309880Y224790D01*
X309505Y225165D02*
Y230835D01*
X258710Y194310D02*
X271780D01*
X258710Y184310D02*
X271620D01*
X271780Y184150D01*
X307790Y204390D02*
X313020D01*
X320060Y211430D01*
X321990Y213160D02*
Y213360D01*
X307710Y204310D02*
X307790Y204390D01*
X320060Y211430D02*
X320260D01*
X321990Y213160D01*
X318090Y201250D02*
X328930D01*
X307710Y199310D02*
X316150D01*
X318090Y201250D01*
X237490Y227330D02*
X241590Y231430D01*
Y236934D01*
X234610Y243500D02*
X234950Y243840D01*
X234610Y236560D02*
Y243500D01*
X234270Y236220D02*
X234610Y236560D01*
X237490Y218440D02*
X241300Y214630D01*
X237490Y218440D02*
Y227330D01*
X241300Y214630D02*
X245790D01*
X246380Y214040D01*
X249510Y163830D02*
X266642D01*
X268130Y165318D02*
Y169730D01*
X268210Y169810D01*
X266642Y163830D02*
X268130Y165318D01*
X60960Y186690D02*
X67310Y180340D01*
X54450Y209710D02*
X60960Y203200D01*
Y186690D02*
Y203200D01*
X38100Y229710D02*
X63660D01*
X68580Y207228D02*
Y224790D01*
X63660Y229710D02*
X68580Y224790D01*
X70068Y205740D02*
X79860D01*
X68580Y207228D02*
X70068Y205740D01*
X80010Y168910D02*
Y180190D01*
X79860Y180340D02*
X80010Y180190D01*
X67310Y180340D02*
X79860D01*
X38100Y209710D02*
X54450D01*
X150140Y315840D02*
X150160Y315820D01*
Y308840D02*
Y315820D01*
Y308840D02*
X153670Y305330D01*
Y304800D02*
Y305330D01*
X94970Y258090D02*
X127390D01*
X85500Y267560D02*
Y274828D01*
X98754Y264466D02*
Y274574D01*
Y264466D02*
X99060Y264160D01*
X85500Y267560D02*
X94970Y258090D01*
X98500Y274828D02*
X98754Y274574D01*
X334010Y236220D02*
Y263314D01*
X348826Y278130D01*
X234800Y316080D02*
X241910D01*
X232410Y313690D02*
X234800Y316080D01*
X241910D02*
X242140Y316310D01*
X245590D01*
X232410Y321310D02*
X242140D01*
X250190Y302260D02*
X252730Y299720D01*
Y288210D02*
Y299720D01*
X347980Y187960D02*
Y199320D01*
X344330Y184310D02*
X347980Y187960D01*
X307710Y184310D02*
X344330D01*
X321522Y191982D02*
X328462D01*
X328930Y192450D01*
X319194Y194310D02*
X321522Y191982D01*
X307710Y194310D02*
X319194D01*
X248920Y189230D02*
X248960Y189270D01*
X258670D01*
X258710Y189310D01*
X276050Y154070D02*
X280130D01*
X273210Y156910D02*
X276050Y154070D01*
X273210Y156910D02*
Y169810D01*
X280130Y154070D02*
X280530Y153670D01*
X278170Y160060D02*
Y169770D01*
X278210Y169810D01*
X278130Y160020D02*
X278170Y160060D01*
X288250D02*
Y169770D01*
Y160060D02*
X288290Y160020D01*
X288210Y169810D02*
X288250Y169770D01*
X317260Y179310D02*
X317500Y179070D01*
X307710Y179310D02*
X317260D01*
X322580Y176530D02*
X354330D01*
X320040Y173990D02*
X322580Y176530D01*
X320040Y168910D02*
Y173990D01*
Y168710D02*
Y168910D01*
X307750Y189270D02*
X317460D01*
X317500Y189230D01*
X314960Y163830D02*
X318110Y166980D01*
X300990Y163830D02*
X314960D01*
X318310Y166980D02*
X320040Y168710D01*
X318110Y166980D02*
X318310D01*
X368300Y278130D02*
X376890Y286720D01*
X348826Y278130D02*
X368300D01*
X376890Y286720D02*
Y311150D01*
X374774Y309034D02*
X376890Y311150D01*
X374774Y304078D02*
Y309034D01*
X314960Y212090D02*
Y219710D01*
X319986Y224736D02*
Y229146D01*
X314960Y219710D02*
X319986Y224736D01*
X312260Y209390D02*
X314960Y212090D01*
X307790Y209390D02*
X312260D01*
X307710Y209310D02*
X307790Y209390D01*
X244290Y199310D02*
X258710D01*
X230400Y185420D02*
X244290Y199310D01*
X235325Y205365D02*
X237125D01*
X234950Y205740D02*
X235325Y205365D01*
X237125D02*
X238180Y204310D01*
X258710D01*
X246580Y214040D02*
X248310Y212310D01*
X251110Y209310D02*
X258710D01*
X246380Y214040D02*
X246580D01*
X248310Y212110D02*
X251110Y209310D01*
X248310Y212110D02*
Y212310D01*
X207890Y248090D02*
X207910Y248110D01*
X268130Y218890D02*
Y232850D01*
Y218890D02*
X268210Y218810D01*
X267970Y233010D02*
X268130Y232850D01*
X161898Y335176D02*
X247433D01*
X155554Y328833D02*
X161898Y335176D01*
X159110Y327360D02*
X163370Y331620D01*
X245960D01*
X155140Y322300D02*
X155554Y322714D01*
X159110Y323330D02*
Y327360D01*
X155554Y322714D02*
Y328833D01*
X159110Y323330D02*
X160140Y322300D01*
Y315840D02*
Y322300D01*
X155140Y315840D02*
Y322300D01*
X247433Y335176D02*
X251004Y331605D01*
X245960Y331620D02*
X247448Y330132D01*
X251004Y326048D02*
Y331605D01*
X249376Y324420D02*
X251004Y326048D01*
X249376Y318863D02*
Y324420D01*
X247448Y328028D02*
Y330132D01*
X180140Y315840D02*
X180160Y315820D01*
X136780Y368180D02*
X143010Y361950D01*
X143510D01*
X128270Y368180D02*
X136780D01*
X111260Y361790D02*
X111760D01*
X96520Y368180D02*
X104870D01*
X111260Y361790D01*
X147320Y327660D02*
Y331470D01*
X145160Y325500D02*
X147320Y327660D01*
X145160Y315860D02*
Y325500D01*
X145140Y315840D02*
X145160Y315860D01*
X140120D02*
X140140Y315840D01*
X140120Y315860D02*
Y329870D01*
X138520Y331470D02*
X140120Y329870D01*
X207910Y303110D02*
X222510D01*
X207890Y303090D02*
X207910Y303110D01*
X363220Y135890D02*
Y167640D01*
X354330Y176530D02*
X363220Y167640D01*
X293210Y157780D02*
X297320Y153670D01*
X293210Y157780D02*
Y169810D01*
X298290Y166530D02*
X300990Y163830D01*
X298290Y166530D02*
Y169730D01*
X298210Y169810D02*
X298290Y169730D01*
X247630Y161950D02*
X249510Y163830D01*
X307710Y189310D02*
X307750Y189270D01*
X139700Y219710D02*
X140120Y220130D01*
X111760Y252050D02*
X112780Y253070D01*
X111300Y251590D02*
X111760Y252050D01*
X112780Y253070D02*
X127370D01*
X127390Y253090D01*
X113490Y244980D02*
X114123D01*
X117233Y248090D02*
X127390D01*
X114123Y244980D02*
X117233Y248090D01*
X111760Y243250D02*
X113490Y244980D01*
X105000Y268380D02*
X110290Y263090D01*
X127390D01*
X105000Y268380D02*
Y274828D01*
X91746Y304546D02*
Y309574D01*
Y304546D02*
X92000Y304292D01*
Y274828D02*
Y286310D01*
X284100Y359260D02*
X284290Y359450D01*
Y368110D01*
X284480Y368300D01*
X287100Y326390D02*
Y333930D01*
X281600Y339430D02*
X287100Y333930D01*
X275403Y340499D02*
X281384Y334518D01*
X272659Y338214D02*
X277828Y333045D01*
Y324576D02*
Y333045D01*
X281384Y323103D02*
Y334518D01*
X281600Y339430D02*
Y346260D01*
X276600D02*
Y348260D01*
X270535Y338195D02*
X270555Y338214D01*
X275403Y343063D02*
X276600Y344260D01*
X270555Y338214D02*
X272659D01*
X275403Y340499D02*
Y343063D01*
X267075Y338195D02*
X270535D01*
X276600Y344260D02*
Y346260D01*
X256540Y337820D02*
X256570Y337850D01*
Y346230D02*
X256600Y346260D01*
X256570Y337850D02*
Y346230D01*
X264100Y359260D02*
Y365820D01*
X274210Y368190D02*
X274320Y368300D01*
X274100Y359260D02*
X274210Y359370D01*
Y368190D01*
X269100Y359260D02*
X269330Y359030D01*
Y355530D02*
X276600Y348260D01*
X269330Y355530D02*
Y359030D01*
X284330Y354480D02*
Y359030D01*
X286600Y346260D02*
Y352210D01*
X284330Y354480D02*
X286600Y352210D01*
X284100Y359260D02*
X284330Y359030D01*
X208240Y380960D02*
X208280Y380920D01*
X199390Y381000D02*
X199430Y380960D01*
X266600Y346260D02*
X266830Y346030D01*
Y338440D02*
X267075Y338195D01*
X266830Y338440D02*
Y346030D01*
X276340Y323088D02*
X277828Y324576D01*
X258240Y316310D02*
X271014D01*
X274236Y319532D01*
X277813D01*
X281384Y323103D01*
X258240Y326310D02*
X271014D01*
X274236Y323088D01*
X276340D01*
X258240Y321310D02*
X269240D01*
X297100Y333940D02*
X301600Y338440D01*
X297100Y326390D02*
Y333940D01*
X301600Y338440D02*
Y346260D01*
Y358260D01*
X302600Y359260D01*
X240600Y359360D02*
X241600Y358360D01*
Y346260D02*
Y358360D01*
X256830Y346490D02*
Y349723D01*
X259100Y351993D02*
Y359260D01*
X256830Y349723D02*
X259100Y351993D01*
X256600Y346260D02*
X256830Y346490D01*
X245960Y326540D02*
X247448Y328028D01*
X242140Y326310D02*
X242370Y326540D01*
X246804Y317524D02*
X248037D01*
X242370Y326540D02*
X245960D01*
X248037Y317524D02*
X249376Y318863D01*
X245590Y316310D02*
X246804Y317524D01*
X180140Y228880D02*
X181604Y227416D01*
Y227375D02*
X184280Y224699D01*
Y221440D02*
X186010Y219710D01*
X180140Y228880D02*
Y235340D01*
X181604Y227375D02*
Y227416D01*
X184280Y221440D02*
Y224699D01*
X176530Y220390D02*
X177210Y219710D01*
X176530Y220390D02*
Y224790D01*
X175140Y235340D02*
X175160Y235320D01*
Y226160D02*
Y235320D01*
Y226160D02*
X176530Y224790D01*
X168320Y208280D02*
Y217955D01*
X165140Y221135D02*
X168320Y217955D01*
X165140Y221135D02*
Y235340D01*
X168320Y194080D02*
Y208280D01*
X156800Y217875D02*
X160140Y221215D01*
X156800Y208280D02*
Y217875D01*
X160140Y221215D02*
Y235340D01*
X168320Y194080D02*
X168480Y193920D01*
X156800Y186240D02*
Y208280D01*
X146480Y176920D02*
X147480D01*
X156800Y186240D01*
D94*
X92860Y232660D02*
X97290Y237090D01*
X92860Y205740D02*
Y232660D01*
X97290Y237090D02*
X97790D01*
X92860Y180340D02*
Y205740D01*
X134620Y194310D02*
X146090D01*
X168870Y176530D02*
X180340D01*
X168480Y176920D02*
X168870Y176530D01*
X146090Y194310D02*
X146480Y193920D01*
D95*
X392430Y104140D02*
D03*
X195580Y21590D02*
D03*
X220980D02*
D03*
X246380D02*
D03*
X320040Y31750D02*
D03*
X30480Y102870D02*
D03*
X104140Y33020D02*
D03*
X157480Y403860D02*
D03*
X132080D02*
D03*
X106680D02*
D03*
D96*
X170180Y21590D02*
D03*
X182880Y403860D02*
D03*
D97*
X398780Y169230D02*
D03*
Y249230D02*
D03*
Y229230D02*
D03*
Y209230D02*
D03*
Y269230D02*
D03*
Y189230D02*
D03*
X38100Y189710D02*
D03*
Y269710D02*
D03*
Y209710D02*
D03*
Y229710D02*
D03*
Y249710D02*
D03*
Y169710D02*
D03*
D98*
X228400Y350360D02*
D03*
X314800D02*
D03*
D99*
X228600Y403860D02*
D03*
X315000D02*
D03*
D100*
X184150Y123190D02*
D03*
X193463D02*
D03*
X184150Y130810D02*
D03*
Y115570D02*
D03*
X212090Y130810D02*
D03*
Y115570D02*
D03*
Y123190D02*
D03*
X227620Y160020D02*
D03*
X193463Y115570D02*
D03*
X202777Y130810D02*
D03*
X175260Y256540D02*
D03*
X250190Y148590D02*
D03*
X248920Y179070D02*
D03*
X154940Y342900D02*
D03*
X241300Y367030D02*
D03*
X199390Y381000D02*
D03*
X215900Y165160D02*
D03*
X80010Y217170D02*
D03*
X73660Y228600D02*
D03*
X121920Y219710D02*
D03*
X162560Y248920D02*
D03*
X140823Y277150D02*
D03*
X152400Y273050D02*
D03*
X231140Y292100D02*
D03*
X255901Y269240D02*
D03*
X194918Y253836D02*
D03*
X246380Y234950D02*
D03*
X101600Y287020D02*
D03*
X92710D02*
D03*
X67310Y327660D02*
D03*
X105887Y312420D02*
D03*
X180340Y300990D02*
D03*
X139700Y301014D02*
D03*
X121497Y313267D02*
D03*
X306070Y326390D02*
D03*
X87630Y250190D02*
D03*
X49530Y312420D02*
D03*
X165100Y96520D02*
D03*
X38100Y312420D02*
D03*
X110629Y330741D02*
D03*
X101739D02*
D03*
X72390Y276860D02*
D03*
X166370Y290830D02*
D03*
X306070Y251460D02*
D03*
X283210Y260350D02*
D03*
X312420Y242570D02*
D03*
X220980Y251460D02*
D03*
X180340Y248920D02*
D03*
X332740Y224790D02*
D03*
X259080Y243840D02*
D03*
X222250Y223520D02*
D03*
X309880Y224790D02*
D03*
X271780Y184150D02*
D03*
X363220Y129540D02*
D03*
X350520Y157480D02*
D03*
X339090Y213360D02*
D03*
X248920Y243840D02*
D03*
X234950D02*
D03*
X202777Y115570D02*
D03*
Y123190D02*
D03*
X193463Y130810D02*
D03*
X326390Y148590D02*
D03*
X116840Y143510D02*
D03*
X66040Y151130D02*
D03*
X80010Y168910D02*
D03*
X153670Y304800D02*
D03*
X271780Y55880D02*
D03*
X284480Y72390D02*
D03*
X274320Y299720D02*
D03*
X134620Y194310D02*
D03*
X99060Y264160D02*
D03*
X180340Y176530D02*
D03*
X185420Y208280D02*
D03*
X203200Y182880D02*
D03*
X389890Y323850D02*
D03*
X232410Y321310D02*
D03*
X294640Y184150D02*
D03*
X283210D02*
D03*
X294640Y194310D02*
D03*
X283210D02*
D03*
X271780D02*
D03*
X294640Y205740D02*
D03*
X283210D02*
D03*
X271780D02*
D03*
X248920Y189230D02*
D03*
X278130Y160020D02*
D03*
X288290D02*
D03*
X259080Y87630D02*
D03*
Y72390D02*
D03*
X317500Y179070D02*
D03*
X284480Y87630D02*
D03*
X317500Y189230D02*
D03*
X271780Y72390D02*
D03*
X294640Y55880D02*
D03*
X271780Y87630D02*
D03*
X379730Y135890D02*
D03*
X234950Y205740D02*
D03*
X351790Y16510D02*
D03*
X294640Y43180D02*
D03*
Y30480D02*
D03*
X284480Y55880D02*
D03*
Y43180D02*
D03*
X367030Y26670D02*
D03*
X351790D02*
D03*
X323850Y327660D02*
D03*
X330200Y300990D02*
D03*
X322580Y311150D02*
D03*
X284480Y309880D02*
D03*
X303530Y374650D02*
D03*
X295910D02*
D03*
Y383540D02*
D03*
X303530D02*
D03*
X284480Y368300D02*
D03*
X256540Y337820D02*
D03*
X274320Y368300D02*
D03*
X267075Y338195D02*
D03*
X269240Y321310D02*
D03*
X139700Y208280D02*
D03*
M02*
