G04*
G04 #@! TF.GenerationSoftware,Altium Limited,Altium Designer,24.8.2 (39)*
G04*
G04 Layer_Physical_Order=4*
G04 Layer_Color=16711680*
%FSLAX44Y44*%
%MOMM*%
G71*
G04*
G04 #@! TF.SameCoordinates,C7BC70F5-E38B-40BF-8CF6-97473964AE68*
G04*
G04*
G04 #@! TF.FilePolarity,Positive*
G04*
G01*
G75*
%ADD91R,3.7000X3.7000*%
%ADD92C,0.5080*%
%ADD93C,0.2540*%
%ADD95C,1.6000*%
G04:AMPARAMS|DCode=96|XSize=1.6mm|YSize=1.6mm|CornerRadius=0.4mm|HoleSize=0mm|Usage=FLASHONLY|Rotation=0.000|XOffset=0mm|YOffset=0mm|HoleType=Round|Shape=RoundedRectangle|*
%AMROUNDEDRECTD96*
21,1,1.6000,0.8000,0,0,0.0*
21,1,0.8000,1.6000,0,0,0.0*
1,1,0.8000,0.4000,-0.4000*
1,1,0.8000,-0.4000,-0.4000*
1,1,0.8000,-0.4000,0.4000*
1,1,0.8000,0.4000,0.4000*
%
%ADD96ROUNDEDRECTD96*%
%ADD97O,2.5000X1.5000*%
%ADD98O,1.1000X2.1000*%
%ADD99O,1.1000X2.6000*%
%ADD100C,0.4500*%
%ADD107C,0.3048*%
G36*
X384182Y421978D02*
X386686Y421480D01*
X389045Y420503D01*
X391167Y419084D01*
X392070Y418182D01*
X418435Y391817D01*
X418435Y391817D01*
X419337Y390914D01*
X420756Y388792D01*
X421733Y386433D01*
X422231Y383929D01*
X422231Y382652D01*
X422231Y42381D01*
X422231Y41105D01*
X421733Y38601D01*
X420756Y36242D01*
X419337Y34119D01*
X418435Y33217D01*
X418435Y33217D01*
X392070Y6852D01*
X392070Y6852D01*
X391167Y5949D01*
X389045Y4531D01*
X386686Y3554D01*
X384182Y3056D01*
X382905D01*
X42635Y3056D01*
X41358Y3056D01*
X38854Y3554D01*
X36495Y4531D01*
X34372Y5949D01*
X33470Y6852D01*
X7105Y33217D01*
X6202Y34119D01*
X4784Y36242D01*
X3807Y38601D01*
X3309Y41105D01*
Y42381D01*
X3309Y382652D01*
X3309Y383929D01*
X3807Y386433D01*
X4784Y388792D01*
X6203Y390914D01*
X7105Y391817D01*
X33470Y418182D01*
X33470Y418182D01*
X34372Y419084D01*
X36495Y420503D01*
X38854Y421480D01*
X41358Y421978D01*
X42635Y421978D01*
X382905Y421978D01*
X384182Y421978D01*
D02*
G37*
%LPC*%
G36*
X107950Y411802D02*
Y405130D01*
X114622D01*
X114135Y406948D01*
X113082Y408772D01*
X111592Y410262D01*
X109768Y411315D01*
X107950Y411802D01*
D02*
G37*
G36*
X105410D02*
X103592Y411315D01*
X101768Y410262D01*
X100278Y408772D01*
X99225Y406948D01*
X98738Y405130D01*
X105410D01*
Y411802D01*
D02*
G37*
G36*
X114622Y402590D02*
X107950D01*
Y395918D01*
X109768Y396405D01*
X111592Y397458D01*
X113082Y398948D01*
X114135Y400772D01*
X114622Y402590D01*
D02*
G37*
G36*
X105410D02*
X98738D01*
X99225Y400772D01*
X100278Y398948D01*
X101768Y397458D01*
X103592Y396405D01*
X105410Y395918D01*
Y402590D01*
D02*
G37*
G36*
X158667Y412876D02*
X156293D01*
X154000Y412262D01*
X151944Y411075D01*
X150265Y409396D01*
X149078Y407340D01*
X148464Y405047D01*
Y402673D01*
X149078Y400380D01*
X149673Y399350D01*
X144402Y394078D01*
X143897Y393322D01*
X143719Y392430D01*
Y306034D01*
X143897Y305142D01*
X144402Y304386D01*
X145890Y302898D01*
X146646Y302393D01*
X147538Y302215D01*
X151277D01*
X151676Y301816D01*
X152970Y301280D01*
X154370D01*
X155664Y301816D01*
X156654Y302806D01*
X157190Y304100D01*
Y305500D01*
X156654Y306794D01*
X155664Y307784D01*
X154370Y308320D01*
X152970D01*
X151676Y307784D01*
X150769Y306877D01*
X148503D01*
X148381Y306999D01*
Y391465D01*
X152970Y396053D01*
X154000Y395458D01*
X156293Y394844D01*
X158667D01*
X160960Y395458D01*
X163016Y396645D01*
X164695Y398324D01*
X165882Y400380D01*
X166496Y402673D01*
Y405047D01*
X165882Y407340D01*
X164695Y409396D01*
X163016Y411075D01*
X160960Y412262D01*
X158667Y412876D01*
D02*
G37*
G36*
X186880Y412974D02*
X178880D01*
X176923Y412585D01*
X175264Y411476D01*
X174155Y409817D01*
X173766Y407860D01*
Y399860D01*
X174155Y397903D01*
X175264Y396244D01*
X176923Y395135D01*
X178880Y394746D01*
X186880D01*
X188837Y395135D01*
X190496Y396244D01*
X191605Y397903D01*
X191994Y399860D01*
Y407860D01*
X191605Y409817D01*
X190496Y411476D01*
X188837Y412585D01*
X186880Y412974D01*
D02*
G37*
G36*
X315000Y417932D02*
X313299Y417708D01*
X311714Y417052D01*
X310353Y416007D01*
X309308Y414646D01*
X308652Y413061D01*
X308428Y411360D01*
Y396360D01*
X308652Y394659D01*
X309308Y393074D01*
X310353Y391713D01*
X311714Y390668D01*
X313299Y390012D01*
X315000Y389788D01*
X316701Y390012D01*
X318286Y390668D01*
X319647Y391713D01*
X320692Y393074D01*
X321348Y394659D01*
X321572Y396360D01*
Y411360D01*
X321348Y413061D01*
X320692Y414646D01*
X319647Y416007D01*
X318286Y417052D01*
X316701Y417708D01*
X315000Y417932D01*
D02*
G37*
G36*
X228600D02*
X226899Y417708D01*
X225314Y417052D01*
X223953Y416007D01*
X222908Y414646D01*
X222252Y413061D01*
X222028Y411360D01*
Y396360D01*
X222252Y394659D01*
X222908Y393074D01*
X223953Y391713D01*
X225314Y390668D01*
X226899Y390012D01*
X228600Y389788D01*
X230301Y390012D01*
X231886Y390668D01*
X233247Y391713D01*
X234292Y393074D01*
X234948Y394659D01*
X235172Y396360D01*
Y411360D01*
X234948Y413061D01*
X234292Y414646D01*
X233247Y416007D01*
X231886Y417052D01*
X230301Y417708D01*
X228600Y417932D01*
D02*
G37*
G36*
X200660Y382909D02*
Y382270D01*
X201299D01*
X201297Y382275D01*
X200665Y382907D01*
X200660Y382909D01*
D02*
G37*
G36*
X198120D02*
X198116Y382907D01*
X197483Y382275D01*
X197481Y382270D01*
X198120D01*
Y382909D01*
D02*
G37*
G36*
X201299Y379730D02*
X200660D01*
Y379091D01*
X200665Y379093D01*
X201297Y379725D01*
X201299Y379730D01*
D02*
G37*
G36*
X198120D02*
X197481D01*
X197483Y379725D01*
X198116Y379093D01*
X198120Y379091D01*
Y379730D01*
D02*
G37*
G36*
X242570Y368939D02*
Y368300D01*
X243209D01*
X243207Y368304D01*
X242575Y368937D01*
X242570Y368939D01*
D02*
G37*
G36*
X240030D02*
X240026Y368937D01*
X239393Y368304D01*
X239391Y368300D01*
X240030D01*
Y368939D01*
D02*
G37*
G36*
X243209Y365760D02*
X242570D01*
Y365121D01*
X242575Y365123D01*
X243207Y365756D01*
X243209Y365760D01*
D02*
G37*
G36*
X240030D02*
X239391D01*
X239393Y365756D01*
X240026Y365123D01*
X240030Y365121D01*
Y365760D01*
D02*
G37*
G36*
X303530Y378276D02*
X290830D01*
X289443Y378000D01*
X288266Y377214D01*
X288266Y377214D01*
X281916Y370864D01*
X281615Y370413D01*
X281496Y370294D01*
X281431Y370138D01*
X281130Y369688D01*
X281025Y369156D01*
X280960Y369000D01*
Y368831D01*
X280854Y368300D01*
X280960Y367769D01*
Y367600D01*
X281025Y367444D01*
X281130Y366912D01*
X281431Y366462D01*
X281496Y366306D01*
X281615Y366187D01*
X281916Y365736D01*
X282367Y365435D01*
X282486Y365316D01*
X282642Y365251D01*
X283092Y364950D01*
X283624Y364845D01*
X283780Y364780D01*
X283949D01*
X284480Y364674D01*
X285011Y364780D01*
X285180D01*
X285336Y364845D01*
X285868Y364950D01*
X286318Y365251D01*
X286474Y365316D01*
X286593Y365435D01*
X287044Y365736D01*
X292332Y371024D01*
X303530D01*
X304061Y371130D01*
X304230D01*
X304386Y371195D01*
X304918Y371300D01*
X305368Y371601D01*
X305524Y371666D01*
X305643Y371785D01*
X306094Y372086D01*
X306395Y372537D01*
X306514Y372656D01*
X306579Y372812D01*
X306880Y373262D01*
X306985Y373794D01*
X307050Y373950D01*
Y374119D01*
X307156Y374650D01*
X307050Y375181D01*
Y375350D01*
X306985Y375506D01*
X306880Y376037D01*
X306579Y376488D01*
X306514Y376644D01*
X306395Y376763D01*
X306094Y377214D01*
X305643Y377515D01*
X305524Y377634D01*
X305368Y377699D01*
X304918Y378000D01*
X304386Y378105D01*
X304230Y378170D01*
X304061D01*
X303530Y378276D01*
D02*
G37*
G36*
X369444Y386556D02*
X366096D01*
X365899Y386517D01*
X365698D01*
X362413Y385863D01*
X362228Y385787D01*
X362031Y385747D01*
X358937Y384466D01*
X358770Y384354D01*
X358585Y384277D01*
X355800Y382417D01*
X355658Y382275D01*
X355491Y382164D01*
X353123Y379796D01*
X353012Y379628D01*
X352870Y379487D01*
X351009Y376702D01*
X350932Y376517D01*
X350821Y376350D01*
X349539Y373256D01*
X349500Y373059D01*
X349423Y372873D01*
X348770Y369589D01*
Y369388D01*
X348731Y369191D01*
Y365842D01*
X348770Y365645D01*
Y365445D01*
X349423Y362160D01*
X349500Y361975D01*
X349539Y361778D01*
X350821Y358684D01*
X350932Y358517D01*
X351009Y358331D01*
X352870Y355547D01*
X353012Y355405D01*
X353123Y355238D01*
X355491Y352870D01*
X355658Y352758D01*
X355800Y352617D01*
X358585Y350756D01*
X358770Y350679D01*
X358937Y350568D01*
X362031Y349286D01*
X362228Y349247D01*
X362413Y349170D01*
X365698Y348517D01*
X365899D01*
X366096Y348478D01*
X369444D01*
X369641Y348517D01*
X369842D01*
X373126Y349170D01*
X373312Y349247D01*
X373509Y349286D01*
X376603Y350568D01*
X376770Y350679D01*
X376955Y350756D01*
X379740Y352617D01*
X379882Y352759D01*
X380049Y352870D01*
X382417Y355238D01*
X382528Y355405D01*
X382670Y355547D01*
X384531Y358331D01*
X384608Y358517D01*
X384719Y358684D01*
X386001Y361778D01*
X386040Y361975D01*
X386117Y362160D01*
X386770Y365445D01*
Y365645D01*
X386809Y365842D01*
Y369191D01*
X386770Y369388D01*
Y369589D01*
X386117Y372873D01*
X386040Y373059D01*
X386001Y373256D01*
X384719Y376350D01*
X384608Y376517D01*
X384531Y376702D01*
X382670Y379487D01*
X382528Y379629D01*
X382417Y379796D01*
X380049Y382164D01*
X379882Y382275D01*
X379740Y382417D01*
X376955Y384277D01*
X376770Y384354D01*
X376603Y384466D01*
X373509Y385747D01*
X373312Y385787D01*
X373126Y385863D01*
X369842Y386517D01*
X369641D01*
X369444Y386556D01*
D02*
G37*
G36*
X59444D02*
X56096D01*
X55899Y386517D01*
X55698D01*
X52414Y385863D01*
X52228Y385787D01*
X52031Y385747D01*
X48937Y384466D01*
X48770Y384354D01*
X48585Y384277D01*
X45800Y382417D01*
X45658Y382275D01*
X45491Y382164D01*
X43123Y379796D01*
X43012Y379628D01*
X42870Y379487D01*
X41009Y376702D01*
X40932Y376517D01*
X40821Y376350D01*
X39539Y373256D01*
X39500Y373059D01*
X39423Y372873D01*
X38770Y369589D01*
Y369388D01*
X38731Y369191D01*
Y365842D01*
X38770Y365645D01*
Y365445D01*
X39423Y362160D01*
X39500Y361975D01*
X39539Y361778D01*
X40821Y358684D01*
X40932Y358517D01*
X41009Y358331D01*
X42870Y355547D01*
X43012Y355405D01*
X43123Y355238D01*
X45491Y352870D01*
X45658Y352758D01*
X45800Y352617D01*
X48585Y350756D01*
X48770Y350679D01*
X48937Y350568D01*
X52031Y349286D01*
X52228Y349247D01*
X52414Y349170D01*
X55698Y348517D01*
X55899D01*
X56096Y348478D01*
X59444D01*
X59641Y348517D01*
X59842D01*
X63127Y349170D01*
X63312Y349247D01*
X63509Y349286D01*
X66603Y350568D01*
X66770Y350679D01*
X66955Y350756D01*
X69740Y352617D01*
X69882Y352759D01*
X70049Y352870D01*
X72417Y355238D01*
X72528Y355405D01*
X72670Y355547D01*
X74531Y358331D01*
X74608Y358517D01*
X74719Y358684D01*
X76001Y361778D01*
X76040Y361975D01*
X76117Y362160D01*
X76770Y365445D01*
Y365645D01*
X76809Y365842D01*
Y369191D01*
X76770Y369388D01*
Y369589D01*
X76117Y372873D01*
X76040Y373059D01*
X76001Y373256D01*
X74719Y376350D01*
X74608Y376517D01*
X74531Y376702D01*
X72670Y379487D01*
X72528Y379629D01*
X72417Y379796D01*
X70049Y382164D01*
X69882Y382275D01*
X69740Y382417D01*
X66955Y384277D01*
X66770Y384354D01*
X66603Y384466D01*
X63509Y385747D01*
X63312Y385787D01*
X63127Y385863D01*
X59842Y386517D01*
X59641D01*
X59444Y386556D01*
D02*
G37*
G36*
X156210Y344809D02*
Y344170D01*
X156849D01*
X156847Y344174D01*
X156215Y344807D01*
X156210Y344809D01*
D02*
G37*
G36*
X153670D02*
X153666Y344807D01*
X153033Y344174D01*
X153031Y344170D01*
X153670D01*
Y344809D01*
D02*
G37*
G36*
X156849Y341630D02*
X156210D01*
Y340991D01*
X156215Y340993D01*
X156847Y341626D01*
X156849Y341630D01*
D02*
G37*
G36*
X153670D02*
X153031D01*
X153033Y341626D01*
X153666Y340993D01*
X153670Y340991D01*
Y341630D01*
D02*
G37*
G36*
X314800Y361932D02*
X313099Y361708D01*
X311514Y361052D01*
X310153Y360007D01*
X309108Y358646D01*
X308452Y357061D01*
X308228Y355360D01*
Y345360D01*
X308452Y343659D01*
X309108Y342074D01*
X310153Y340713D01*
X311514Y339668D01*
X313099Y339012D01*
X314800Y338788D01*
X316501Y339012D01*
X318086Y339668D01*
X319447Y340713D01*
X320492Y342074D01*
X321148Y343659D01*
X321372Y345360D01*
Y355360D01*
X321148Y357061D01*
X320492Y358646D01*
X319447Y360007D01*
X318086Y361052D01*
X316501Y361708D01*
X314800Y361932D01*
D02*
G37*
G36*
X228400D02*
X226699Y361708D01*
X225114Y361052D01*
X223753Y360007D01*
X222708Y358646D01*
X222052Y357061D01*
X221828Y355360D01*
Y345360D01*
X222052Y343659D01*
X222708Y342074D01*
X223753Y340713D01*
X225114Y339668D01*
X226699Y339012D01*
X228400Y338788D01*
X230101Y339012D01*
X231686Y339668D01*
X233047Y340713D01*
X234092Y342074D01*
X234748Y343659D01*
X234972Y345360D01*
Y355360D01*
X234748Y357061D01*
X234092Y358646D01*
X233047Y360007D01*
X231686Y361052D01*
X230101Y361708D01*
X228400Y361932D01*
D02*
G37*
G36*
X275020Y371820D02*
X273620D01*
X272326Y371284D01*
X271336Y370294D01*
X270800Y369000D01*
Y368076D01*
X265427Y362703D01*
X264922Y361947D01*
X264744Y361055D01*
Y340842D01*
X264091Y340189D01*
X263555Y338895D01*
Y337495D01*
X264091Y336201D01*
X265081Y335211D01*
X266375Y334675D01*
X267775D01*
X269069Y335211D01*
X270059Y336201D01*
X270595Y337495D01*
Y338895D01*
X270059Y340189D01*
X269406Y340842D01*
Y360090D01*
X274096Y364780D01*
X275020D01*
X276314Y365316D01*
X277304Y366306D01*
X277840Y367600D01*
Y369000D01*
X277304Y370294D01*
X276314Y371284D01*
X275020Y371820D01*
D02*
G37*
G36*
X109359Y332650D02*
X109354Y332649D01*
X108721Y332016D01*
X108720Y332011D01*
X109359D01*
Y332650D01*
D02*
G37*
G36*
X325120Y329569D02*
Y328930D01*
X325759D01*
X325757Y328935D01*
X325125Y329567D01*
X325120Y329569D01*
D02*
G37*
G36*
X322580D02*
X322575Y329567D01*
X321943Y328935D01*
X321941Y328930D01*
X322580D01*
Y329569D01*
D02*
G37*
G36*
X109359Y329471D02*
X108720D01*
X108721Y329467D01*
X109354Y328834D01*
X109359Y328832D01*
Y329471D01*
D02*
G37*
G36*
X307340Y328299D02*
Y327660D01*
X307979D01*
X307977Y327664D01*
X307344Y328297D01*
X307340Y328299D01*
D02*
G37*
G36*
X304800D02*
X304795Y328297D01*
X304163Y327664D01*
X304161Y327660D01*
X304800D01*
Y328299D01*
D02*
G37*
G36*
X325759Y326390D02*
X325120D01*
Y325751D01*
X325125Y325753D01*
X325757Y326385D01*
X325759Y326390D01*
D02*
G37*
G36*
X322580D02*
X321941D01*
X321943Y326385D01*
X322575Y325753D01*
X322580Y325751D01*
Y326390D01*
D02*
G37*
G36*
X391160Y325759D02*
Y325120D01*
X391799D01*
X391797Y325125D01*
X391165Y325757D01*
X391160Y325759D01*
D02*
G37*
G36*
X388620D02*
X388615Y325757D01*
X387983Y325125D01*
X387981Y325120D01*
X388620D01*
Y325759D01*
D02*
G37*
G36*
X307979Y325120D02*
X307340D01*
Y324481D01*
X307344Y324483D01*
X307977Y325116D01*
X307979Y325120D01*
D02*
G37*
G36*
X304800D02*
X304161D01*
X304163Y325116D01*
X304795Y324483D01*
X304800Y324481D01*
Y325120D01*
D02*
G37*
G36*
X270510Y323219D02*
Y322580D01*
X271149D01*
X271147Y322584D01*
X270515Y323217D01*
X270510Y323219D01*
D02*
G37*
G36*
X267970D02*
X267966Y323217D01*
X267333Y322584D01*
X267331Y322580D01*
X267970D01*
Y323219D01*
D02*
G37*
G36*
X391799Y322580D02*
X391160D01*
Y321941D01*
X391165Y321943D01*
X391797Y322575D01*
X391799Y322580D01*
D02*
G37*
G36*
X388620D02*
X387981D01*
X387983Y322575D01*
X388615Y321943D01*
X388620Y321941D01*
Y322580D01*
D02*
G37*
G36*
X271149Y320040D02*
X270510D01*
Y319401D01*
X270515Y319403D01*
X271147Y320036D01*
X271149Y320040D01*
D02*
G37*
G36*
X267970D02*
X267331D01*
X267333Y320036D01*
X267966Y319403D01*
X267970Y319401D01*
Y320040D01*
D02*
G37*
G36*
X39370Y314329D02*
Y313690D01*
X40009D01*
X40007Y313694D01*
X39374Y314327D01*
X39370Y314329D01*
D02*
G37*
G36*
X36830D02*
X36825Y314327D01*
X36193Y313694D01*
X36191Y313690D01*
X36830D01*
Y314329D01*
D02*
G37*
G36*
X323850Y313059D02*
Y312420D01*
X324489D01*
X324487Y312425D01*
X323854Y313057D01*
X323850Y313059D01*
D02*
G37*
G36*
X321310D02*
X321306Y313057D01*
X320673Y312425D01*
X320671Y312420D01*
X321310D01*
Y313059D01*
D02*
G37*
G36*
X285750Y311789D02*
Y311150D01*
X286389D01*
X286387Y311154D01*
X285755Y311787D01*
X285750Y311789D01*
D02*
G37*
G36*
X283210D02*
X283206Y311787D01*
X282573Y311154D01*
X282571Y311150D01*
X283210D01*
Y311789D01*
D02*
G37*
G36*
X265430Y387166D02*
X264042Y386890D01*
X262866Y386104D01*
X262866Y386104D01*
X253976Y377214D01*
X253190Y376037D01*
X252914Y374650D01*
X252914Y374650D01*
Y337820D01*
X253020Y337289D01*
Y337120D01*
X253085Y336964D01*
X253190Y336432D01*
X253491Y335982D01*
X253556Y335826D01*
X253675Y335707D01*
X253976Y335256D01*
X254209Y335101D01*
Y313603D01*
X251547Y310941D01*
X237185D01*
X234741Y313385D01*
Y318663D01*
X235394Y319316D01*
X235930Y320610D01*
Y322010D01*
X235394Y323304D01*
X234404Y324294D01*
X233110Y324830D01*
X231710D01*
X230416Y324294D01*
X229426Y323304D01*
X228890Y322010D01*
Y320610D01*
X229426Y319316D01*
X230079Y318663D01*
Y312420D01*
X230257Y311528D01*
X230762Y310772D01*
X234572Y306962D01*
X235328Y306457D01*
X236220Y306279D01*
X252512D01*
X253404Y306457D01*
X254160Y306962D01*
X258188Y310990D01*
X258693Y311746D01*
X258871Y312638D01*
Y335101D01*
X259104Y335256D01*
X259405Y335707D01*
X259524Y335826D01*
X259589Y335982D01*
X259890Y336432D01*
X259995Y336964D01*
X260060Y337120D01*
Y337289D01*
X260166Y337820D01*
Y373148D01*
X266932Y379914D01*
X303530D01*
X304061Y380020D01*
X304230D01*
X304386Y380085D01*
X304918Y380190D01*
X305368Y380491D01*
X305524Y380556D01*
X305643Y380675D01*
X306094Y380976D01*
X306395Y381427D01*
X306514Y381546D01*
X306579Y381702D01*
X306880Y382152D01*
X306985Y382684D01*
X307050Y382840D01*
Y383009D01*
X307156Y383540D01*
X307050Y384071D01*
Y384240D01*
X306985Y384396D01*
X306880Y384927D01*
X306579Y385378D01*
X306514Y385534D01*
X306395Y385653D01*
X306094Y386104D01*
X305643Y386405D01*
X305524Y386524D01*
X305368Y386589D01*
X304918Y386890D01*
X304386Y386995D01*
X304230Y387060D01*
X304061D01*
X303530Y387166D01*
X265430D01*
X265430Y387166D01*
D02*
G37*
G36*
X40009Y311150D02*
X39370D01*
Y310511D01*
X39374Y310513D01*
X40007Y311145D01*
X40009Y311150D01*
D02*
G37*
G36*
X36830D02*
X36191D01*
X36193Y311145D01*
X36825Y310513D01*
X36830Y310511D01*
Y311150D01*
D02*
G37*
G36*
X324489Y309880D02*
X323850D01*
Y309241D01*
X323854Y309243D01*
X324487Y309876D01*
X324489Y309880D01*
D02*
G37*
G36*
X321310D02*
X320671D01*
X320673Y309876D01*
X321306Y309243D01*
X321310Y309241D01*
Y309880D01*
D02*
G37*
G36*
X286389Y308610D02*
X285750D01*
Y307971D01*
X285755Y307973D01*
X286387Y308605D01*
X286389Y308610D01*
D02*
G37*
G36*
X283210D02*
X282571D01*
X282573Y308605D01*
X283206Y307973D01*
X283210Y307971D01*
Y308610D01*
D02*
G37*
G36*
X331470Y302899D02*
Y302260D01*
X332109D01*
X332107Y302264D01*
X331474Y302897D01*
X331470Y302899D01*
D02*
G37*
G36*
X328930D02*
X328926Y302897D01*
X328293Y302264D01*
X328291Y302260D01*
X328930D01*
Y302899D01*
D02*
G37*
G36*
X133267Y412876D02*
X130893D01*
X128600Y412262D01*
X126544Y411075D01*
X124865Y409396D01*
X123678Y407340D01*
X123064Y405047D01*
Y402673D01*
X123678Y400380D01*
X124865Y398324D01*
X126544Y396645D01*
X128600Y395458D01*
X130893Y394844D01*
X131019D01*
Y314960D01*
X131197Y314068D01*
X131702Y313312D01*
X137369Y307645D01*
Y303661D01*
X136716Y303008D01*
X136180Y301714D01*
Y301623D01*
X135164Y301202D01*
X124660Y311706D01*
X125017Y312567D01*
Y313967D01*
X124481Y315261D01*
X123491Y316251D01*
X122197Y316787D01*
X120797D01*
X119503Y316251D01*
X118917Y315665D01*
X117901Y316086D01*
Y336550D01*
X117723Y337442D01*
X117218Y338198D01*
X112138Y343278D01*
X111382Y343783D01*
X110490Y343961D01*
X57150D01*
X56258Y343783D01*
X55502Y343278D01*
X47882Y335658D01*
X47377Y334902D01*
X47199Y334010D01*
Y315067D01*
X46546Y314414D01*
X46010Y313120D01*
Y311720D01*
X46546Y310426D01*
X47536Y309436D01*
X48830Y308900D01*
X50230D01*
X51524Y309436D01*
X52514Y310426D01*
X53050Y311720D01*
Y313120D01*
X52514Y314414D01*
X51861Y315067D01*
Y333045D01*
X58115Y339299D01*
X109525D01*
X113239Y335585D01*
Y332750D01*
X112223Y332329D01*
X111903Y332649D01*
X111899Y332650D01*
Y330741D01*
Y328832D01*
X111903Y328834D01*
X112223Y329154D01*
X113239Y328733D01*
Y323912D01*
X112648Y323614D01*
X112223Y323553D01*
X105259Y330518D01*
Y331441D01*
X104723Y332735D01*
X103733Y333725D01*
X102439Y334261D01*
X101039D01*
X99745Y333725D01*
X98755Y332735D01*
X98219Y331441D01*
Y330041D01*
X98755Y328747D01*
X99745Y327757D01*
X101039Y327221D01*
X101963D01*
X108347Y320837D01*
Y316266D01*
X107331Y315632D01*
X106588Y315940D01*
X105664D01*
X92296Y329308D01*
X91539Y329813D01*
X90647Y329991D01*
X69957D01*
X69304Y330644D01*
X68010Y331180D01*
X66610D01*
X65316Y330644D01*
X64326Y329654D01*
X63790Y328360D01*
Y326960D01*
X64326Y325666D01*
X65316Y324676D01*
X66610Y324140D01*
X68010D01*
X69304Y324676D01*
X69957Y325329D01*
X89682D01*
X102367Y312644D01*
Y311720D01*
X102903Y310426D01*
X103894Y309436D01*
X105187Y308900D01*
X106588D01*
X107331Y309208D01*
X108347Y308574D01*
Y305882D01*
X108524Y304991D01*
X109029Y304234D01*
X112814Y300450D01*
X112425Y299511D01*
X76200D01*
X75308Y299333D01*
X74552Y298828D01*
X50732Y275008D01*
X49718Y275074D01*
X49174Y275784D01*
X47395Y277149D01*
X45323Y278007D01*
X43100Y278300D01*
X33100D01*
X30877Y278007D01*
X28805Y277149D01*
X27026Y275784D01*
X25661Y274005D01*
X24803Y271933D01*
X24511Y269710D01*
X24803Y267487D01*
X25661Y265415D01*
X27026Y263636D01*
X28805Y262271D01*
X30877Y261413D01*
X33100Y261121D01*
X43100D01*
X45323Y261413D01*
X47395Y262271D01*
X49174Y263636D01*
X50539Y265415D01*
X51397Y267487D01*
X51690Y269710D01*
X51668Y269874D01*
X52006Y269941D01*
X52762Y270446D01*
X77165Y294849D01*
X85773D01*
X86162Y293911D01*
X72632Y280380D01*
X71690D01*
X70396Y279844D01*
X69406Y278854D01*
X68870Y277560D01*
Y276618D01*
X48530Y256278D01*
X47395Y257149D01*
X45323Y258007D01*
X43100Y258300D01*
X33100D01*
X30877Y258007D01*
X28805Y257149D01*
X27026Y255784D01*
X25661Y254005D01*
X24803Y251933D01*
X24511Y249710D01*
X24803Y247487D01*
X25661Y245415D01*
X27026Y243636D01*
X28805Y242271D01*
X30877Y241413D01*
X33100Y241120D01*
X43100D01*
X45323Y241413D01*
X47395Y242271D01*
X49174Y243636D01*
X50539Y245415D01*
X51397Y247487D01*
X51690Y249710D01*
X51397Y251933D01*
X51215Y252371D01*
X72184Y273340D01*
X73090D01*
X74384Y273876D01*
X75374Y274866D01*
X75910Y276160D01*
Y277066D01*
X89883Y291039D01*
X117145D01*
X127892Y280292D01*
X128648Y279787D01*
X129540Y279609D01*
X136976D01*
X137611Y278593D01*
X137303Y277850D01*
Y276926D01*
X121542Y261165D01*
X121037Y260409D01*
X120859Y259517D01*
Y240995D01*
X99365Y219501D01*
X82657D01*
X82004Y220154D01*
X80710Y220690D01*
X79310D01*
X78016Y220154D01*
X77026Y219164D01*
X76490Y217870D01*
Y216470D01*
X77026Y215176D01*
X78016Y214186D01*
X79310Y213650D01*
X80710D01*
X82004Y214186D01*
X82657Y214839D01*
X100330D01*
X101222Y215017D01*
X101978Y215522D01*
X124838Y238382D01*
X125343Y239138D01*
X125521Y240030D01*
Y258552D01*
X140599Y273630D01*
X141523D01*
X142162Y273895D01*
X142737Y273033D01*
X129162Y259458D01*
X128657Y258702D01*
X128479Y257810D01*
Y213055D01*
X117732Y202308D01*
X117227Y201552D01*
X117049Y200660D01*
Y177495D01*
X110795Y171241D01*
X82657D01*
X82004Y171894D01*
X80710Y172430D01*
X79310D01*
X78016Y171894D01*
X77026Y170904D01*
X76718Y170161D01*
X75551Y169891D01*
X69641Y175801D01*
Y213242D01*
X80098Y223699D01*
X80603Y224455D01*
X80781Y225347D01*
Y246819D01*
X84364Y250402D01*
X85380Y249981D01*
Y249743D01*
X85723Y248916D01*
X86355Y248283D01*
X86360Y248281D01*
Y250190D01*
X87630D01*
Y251460D01*
X89539D01*
X89537Y251465D01*
X88904Y252097D01*
X88077Y252440D01*
X87839D01*
X87418Y253456D01*
X89611Y255649D01*
X92879D01*
X93771Y255826D01*
X94528Y256331D01*
X98836Y260640D01*
X99760D01*
X101054Y261176D01*
X102044Y262166D01*
X102580Y263460D01*
Y264860D01*
X102044Y266154D01*
X101054Y267144D01*
X99760Y267680D01*
X98360D01*
X97066Y267144D01*
X96076Y266154D01*
X95540Y264860D01*
Y263936D01*
X91914Y260310D01*
X88645D01*
X87753Y260133D01*
X86997Y259628D01*
X76802Y249432D01*
X76297Y248676D01*
X76119Y247784D01*
Y230760D01*
X75103Y230339D01*
X74935Y230507D01*
X74930Y230509D01*
Y228600D01*
Y226057D01*
X75393Y225823D01*
X75432Y225625D01*
X65662Y215855D01*
X65157Y215099D01*
X64979Y214207D01*
Y174836D01*
X65157Y173944D01*
X65662Y173188D01*
X76378Y162472D01*
X77134Y161967D01*
X78026Y161789D01*
X126035D01*
X133262Y154562D01*
X134018Y154057D01*
X134910Y153879D01*
X176470D01*
X177362Y154057D01*
X178118Y154562D01*
X186385Y162829D01*
X213253D01*
X213906Y162176D01*
X215200Y161640D01*
X216600D01*
X217894Y162176D01*
X218884Y163166D01*
X219420Y164460D01*
Y165860D01*
X218884Y167154D01*
X217894Y168144D01*
X216600Y168680D01*
X215200D01*
X213906Y168144D01*
X213253Y167491D01*
X185420D01*
X184528Y167313D01*
X183772Y166808D01*
X175505Y158541D01*
X135875D01*
X128648Y165768D01*
X127892Y166273D01*
X127000Y166451D01*
X113995D01*
X113843Y166661D01*
X113613Y167467D01*
X121028Y174882D01*
X121533Y175638D01*
X121711Y176530D01*
Y199695D01*
X132458Y210442D01*
X132963Y211198D01*
X133141Y212090D01*
Y256845D01*
X147015Y270719D01*
X149753D01*
X150406Y270066D01*
X151700Y269530D01*
X153100D01*
X154394Y270066D01*
X155384Y271056D01*
X155651Y271699D01*
X198020D01*
X198441Y270683D01*
X180198Y252440D01*
X179640D01*
X178346Y251904D01*
X177952Y251510D01*
X164948D01*
X164554Y251904D01*
X163260Y252440D01*
X161860D01*
X160566Y251904D01*
X159576Y250914D01*
X159040Y249620D01*
Y248220D01*
X159576Y246926D01*
X160566Y245936D01*
X161860Y245400D01*
X163260D01*
X164554Y245936D01*
X164948Y246330D01*
X177952D01*
X178346Y245936D01*
X179640Y245400D01*
X181040D01*
X182334Y245936D01*
X183324Y246926D01*
X183860Y248220D01*
Y248778D01*
X190779Y255696D01*
X191640Y255121D01*
X191398Y254537D01*
Y253136D01*
X191934Y251843D01*
X192587Y251189D01*
Y248043D01*
X192157Y247398D01*
X191979Y246507D01*
Y214630D01*
X192157Y213738D01*
X192662Y212982D01*
X201552Y204092D01*
X202308Y203587D01*
X203200Y203409D01*
X232303D01*
X232956Y202756D01*
X234250Y202220D01*
X235650D01*
X236944Y202756D01*
X237934Y203746D01*
X238470Y205040D01*
Y206440D01*
X237934Y207734D01*
X236944Y208724D01*
X235650Y209260D01*
X234250D01*
X232956Y208724D01*
X232303Y208071D01*
X204165D01*
X196641Y215595D01*
Y245578D01*
X197071Y246223D01*
X197249Y247115D01*
Y251189D01*
X197902Y251843D01*
X198438Y253136D01*
Y254537D01*
X197902Y255830D01*
X196912Y256821D01*
X195618Y257356D01*
X194218D01*
X193634Y257115D01*
X193058Y257976D01*
X201733Y266650D01*
X252553D01*
X252619Y266552D01*
X252076Y265536D01*
X218730D01*
X218730Y265536D01*
X217342Y265260D01*
X216166Y264474D01*
X216166Y264474D01*
X206986Y255294D01*
X206200Y254118D01*
X205924Y252730D01*
X205924Y252730D01*
Y236220D01*
X205924Y236220D01*
X206200Y234832D01*
X206986Y233656D01*
X219686Y220956D01*
X220137Y220655D01*
X220256Y220536D01*
X220412Y220471D01*
X220863Y220170D01*
X221394Y220065D01*
X221550Y220000D01*
X221719D01*
X222250Y219894D01*
X222781Y220000D01*
X222950D01*
X223106Y220065D01*
X223638Y220170D01*
X224088Y220471D01*
X224244Y220536D01*
X224363Y220655D01*
X224814Y220956D01*
X225115Y221407D01*
X225234Y221526D01*
X225299Y221682D01*
X225600Y222132D01*
X225705Y222664D01*
X225770Y222820D01*
Y222989D01*
X225876Y223520D01*
X225770Y224051D01*
Y224220D01*
X225705Y224376D01*
X225600Y224907D01*
X225299Y225358D01*
X225234Y225514D01*
X225115Y225633D01*
X224814Y226084D01*
X213176Y237722D01*
Y251228D01*
X220232Y258284D01*
X258631D01*
X259054Y257270D01*
X249144Y247360D01*
X248220D01*
X246926Y246824D01*
X245936Y245834D01*
X245400Y244540D01*
Y243140D01*
X245936Y241846D01*
X246926Y240856D01*
X248220Y240320D01*
X249620D01*
X250914Y240856D01*
X251904Y241846D01*
X252440Y243140D01*
Y244064D01*
X266395Y258019D01*
X280563D01*
X281216Y257366D01*
X281254Y257350D01*
Y255475D01*
X281432Y254583D01*
X281937Y253827D01*
X294842Y240922D01*
X295598Y240417D01*
X296490Y240239D01*
X309773D01*
X310426Y239586D01*
X311720Y239050D01*
X313120D01*
X314414Y239586D01*
X314531Y239703D01*
X329220Y225014D01*
Y224090D01*
X329756Y222796D01*
X330746Y221806D01*
X332040Y221270D01*
X333440D01*
X334734Y221806D01*
X335724Y222796D01*
X336260Y224090D01*
Y225490D01*
X335724Y226784D01*
X334734Y227774D01*
X333440Y228310D01*
X332516D01*
X316983Y243843D01*
X316227Y244348D01*
X315427Y244507D01*
X315404Y244564D01*
X314414Y245554D01*
X313120Y246090D01*
X311720D01*
X310426Y245554D01*
X309773Y244901D01*
X297455D01*
X285916Y256440D01*
Y258078D01*
X286194Y258356D01*
X286730Y259650D01*
Y261050D01*
X286432Y261768D01*
X287081Y262784D01*
X289618D01*
X303506Y248896D01*
X303957Y248595D01*
X304076Y248476D01*
X304232Y248411D01*
X304683Y248110D01*
X305214Y248005D01*
X305370Y247940D01*
X305539D01*
X306070Y247834D01*
X306601Y247940D01*
X306770D01*
X306926Y248005D01*
X307458Y248110D01*
X307908Y248411D01*
X308064Y248476D01*
X308183Y248595D01*
X308634Y248896D01*
X308935Y249347D01*
X309054Y249466D01*
X309119Y249622D01*
X309420Y250072D01*
X309525Y250604D01*
X309590Y250760D01*
Y250929D01*
X309696Y251460D01*
X309590Y251991D01*
Y252160D01*
X309525Y252316D01*
X309420Y252847D01*
X309119Y253298D01*
X309054Y253454D01*
X308935Y253573D01*
X308634Y254024D01*
X293684Y268974D01*
X292507Y269760D01*
X291120Y270036D01*
X291120Y270036D01*
X263550D01*
X263550Y270036D01*
X262163Y269760D01*
X260986Y268974D01*
X260986Y268974D01*
X260359Y268347D01*
X260338Y268351D01*
X259421Y268845D01*
Y269940D01*
X259113Y270683D01*
X259747Y271699D01*
X292695D01*
X346332Y218062D01*
X347088Y217557D01*
X347980Y217379D01*
X387335D01*
X388126Y216588D01*
X388059Y215574D01*
X387706Y215304D01*
X386341Y213525D01*
X385483Y211453D01*
X385191Y209230D01*
X385483Y207007D01*
X386341Y204935D01*
X387706Y203156D01*
X389485Y201791D01*
X391557Y200933D01*
X393780Y200641D01*
X403780D01*
X406003Y200933D01*
X408075Y201791D01*
X409854Y203156D01*
X411219Y204935D01*
X412077Y207007D01*
X412369Y209230D01*
X412077Y211453D01*
X411219Y213525D01*
X409854Y215304D01*
X408075Y216669D01*
X406003Y217527D01*
X403780Y217819D01*
X393780D01*
X393375Y217766D01*
X393044Y218262D01*
X391320Y219986D01*
X391848Y220895D01*
X393780Y220641D01*
X403780D01*
X406003Y220933D01*
X408075Y221791D01*
X409854Y223156D01*
X411219Y224935D01*
X412077Y227007D01*
X412369Y229230D01*
X412077Y231453D01*
X411219Y233525D01*
X409854Y235304D01*
X408075Y236669D01*
X406003Y237527D01*
X403780Y237819D01*
X393780D01*
X391557Y237527D01*
X389485Y236669D01*
X387706Y235304D01*
X386341Y233525D01*
X385528Y231561D01*
X345775D01*
X299531Y277805D01*
X299865Y278908D01*
X299983Y278931D01*
X331092Y247822D01*
X331848Y247317D01*
X332740Y247139D01*
X385466D01*
X385483Y247007D01*
X386341Y244935D01*
X387706Y243156D01*
X389485Y241791D01*
X391557Y240933D01*
X393780Y240641D01*
X403780D01*
X406003Y240933D01*
X408075Y241791D01*
X409854Y243156D01*
X411219Y244935D01*
X412077Y247007D01*
X412369Y249230D01*
X412077Y251453D01*
X411219Y253525D01*
X409854Y255304D01*
X408075Y256669D01*
X406003Y257527D01*
X403780Y257819D01*
X393780D01*
X391557Y257527D01*
X389485Y256669D01*
X387706Y255304D01*
X386341Y253525D01*
X385627Y251801D01*
X333705D01*
X303026Y282481D01*
X303414Y283419D01*
X331244D01*
X345802Y268862D01*
X346558Y268357D01*
X346695Y268329D01*
X347088Y268067D01*
X347980Y267889D01*
X385367D01*
X385483Y267007D01*
X386341Y264935D01*
X387706Y263156D01*
X389485Y261791D01*
X391557Y260933D01*
X393780Y260641D01*
X403780D01*
X406003Y260933D01*
X408075Y261791D01*
X409854Y263156D01*
X411219Y264935D01*
X412077Y267007D01*
X412369Y269230D01*
X412077Y271453D01*
X411219Y273525D01*
X409854Y275304D01*
X408075Y276669D01*
X406003Y277527D01*
X403780Y277819D01*
X393780D01*
X391557Y277527D01*
X389485Y276669D01*
X387706Y275304D01*
X386341Y273525D01*
X385938Y272551D01*
X349040D01*
X348872Y272663D01*
X348523Y272733D01*
X333858Y287398D01*
X333102Y287903D01*
X332210Y288081D01*
X169926D01*
X169462Y289097D01*
X169890Y290130D01*
Y291530D01*
X169462Y292563D01*
X169926Y293579D01*
X175260D01*
X176152Y293757D01*
X176908Y294262D01*
X180116Y297470D01*
X181040D01*
X182334Y298006D01*
X183324Y298996D01*
X183860Y300290D01*
Y301690D01*
X183324Y302984D01*
X182334Y303974D01*
X181040Y304510D01*
X179640D01*
X178346Y303974D01*
X177356Y302984D01*
X176820Y301690D01*
Y300766D01*
X174295Y298241D01*
X143232D01*
X142782Y299257D01*
X143220Y300314D01*
Y301714D01*
X142684Y303008D01*
X142031Y303661D01*
Y308610D01*
X141853Y309502D01*
X141348Y310258D01*
X135681Y315925D01*
Y395528D01*
X137616Y396645D01*
X139295Y398324D01*
X140482Y400380D01*
X141096Y402673D01*
Y405047D01*
X140482Y407340D01*
X139295Y409396D01*
X137616Y411075D01*
X135560Y412262D01*
X133267Y412876D01*
D02*
G37*
G36*
X275590Y301629D02*
Y300990D01*
X276229D01*
X276227Y300994D01*
X275595Y301627D01*
X275590Y301629D01*
D02*
G37*
G36*
X273050D02*
X273046Y301627D01*
X272413Y300994D01*
X272411Y300990D01*
X273050D01*
Y301629D01*
D02*
G37*
G36*
X332109Y299720D02*
X331470D01*
Y299081D01*
X331474Y299083D01*
X332107Y299715D01*
X332109Y299720D01*
D02*
G37*
G36*
X328930D02*
X328291D01*
X328293Y299715D01*
X328926Y299083D01*
X328930Y299081D01*
Y299720D01*
D02*
G37*
G36*
X276229Y298450D02*
X275590D01*
Y297811D01*
X275595Y297813D01*
X276227Y298445D01*
X276229Y298450D01*
D02*
G37*
G36*
X273050D02*
X272411D01*
X272413Y298445D01*
X273046Y297813D01*
X273050Y297811D01*
Y298450D01*
D02*
G37*
G36*
X232410Y294009D02*
Y293370D01*
X233049D01*
X233047Y293375D01*
X232414Y294007D01*
X232410Y294009D01*
D02*
G37*
G36*
X229870D02*
X229865Y294007D01*
X229233Y293375D01*
X229231Y293370D01*
X229870D01*
Y294009D01*
D02*
G37*
G36*
X233049Y290830D02*
X232410D01*
Y290191D01*
X232414Y290193D01*
X233047Y290826D01*
X233049Y290830D01*
D02*
G37*
G36*
X229870D02*
X229231D01*
X229233Y290826D01*
X229865Y290193D01*
X229870Y290191D01*
Y290830D01*
D02*
G37*
G36*
X102870Y288929D02*
Y288290D01*
X103509D01*
X103507Y288295D01*
X102874Y288927D01*
X102870Y288929D01*
D02*
G37*
G36*
X100330D02*
X100325Y288927D01*
X99693Y288295D01*
X99691Y288290D01*
X100330D01*
Y288929D01*
D02*
G37*
G36*
X93980D02*
Y288290D01*
X94619D01*
X94617Y288295D01*
X93984Y288927D01*
X93980Y288929D01*
D02*
G37*
G36*
X91440D02*
X91435Y288927D01*
X90803Y288295D01*
X90801Y288290D01*
X91440D01*
Y288929D01*
D02*
G37*
G36*
X103509Y285750D02*
X102870D01*
Y285111D01*
X102874Y285113D01*
X103507Y285746D01*
X103509Y285750D01*
D02*
G37*
G36*
X100330D02*
X99691D01*
X99693Y285746D01*
X100325Y285113D01*
X100330Y285111D01*
Y285750D01*
D02*
G37*
G36*
X94619D02*
X93980D01*
Y285111D01*
X93984Y285113D01*
X94617Y285746D01*
X94619Y285750D01*
D02*
G37*
G36*
X91440D02*
X90801D01*
X90803Y285746D01*
X91435Y285113D01*
X91440Y285111D01*
Y285750D01*
D02*
G37*
G36*
X176530Y258449D02*
Y257810D01*
X177169D01*
X177167Y257815D01*
X176535Y258447D01*
X176530Y258449D01*
D02*
G37*
G36*
X173990D02*
X173986Y258447D01*
X173353Y257815D01*
X173351Y257810D01*
X173990D01*
Y258449D01*
D02*
G37*
G36*
X177169Y255270D02*
X176530D01*
Y254631D01*
X176535Y254633D01*
X177167Y255266D01*
X177169Y255270D01*
D02*
G37*
G36*
X173990D02*
X173351D01*
X173353Y255266D01*
X173986Y254633D01*
X173990Y254631D01*
Y255270D01*
D02*
G37*
G36*
X89539Y248920D02*
X88900D01*
Y248281D01*
X88904Y248283D01*
X89537Y248916D01*
X89539Y248920D01*
D02*
G37*
G36*
X260350Y245749D02*
Y245110D01*
X260989D01*
X260987Y245114D01*
X260354Y245747D01*
X260350Y245749D01*
D02*
G37*
G36*
X257810D02*
X257806Y245747D01*
X257173Y245114D01*
X257171Y245110D01*
X257810D01*
Y245749D01*
D02*
G37*
G36*
X236220D02*
Y245110D01*
X236859D01*
X236857Y245114D01*
X236224Y245747D01*
X236220Y245749D01*
D02*
G37*
G36*
X260989Y242570D02*
X260350D01*
Y241931D01*
X260354Y241933D01*
X260987Y242565D01*
X260989Y242570D01*
D02*
G37*
G36*
X257810D02*
X257171D01*
X257173Y242565D01*
X257806Y241933D01*
X257810Y241931D01*
Y242570D01*
D02*
G37*
G36*
X247650Y236859D02*
Y236220D01*
X248289D01*
X248287Y236224D01*
X247654Y236857D01*
X247650Y236859D01*
D02*
G37*
G36*
X245110D02*
X245105Y236857D01*
X244473Y236224D01*
X244471Y236220D01*
X245110D01*
Y236859D01*
D02*
G37*
G36*
X248289Y233680D02*
X247650D01*
Y233041D01*
X247654Y233043D01*
X248287Y233675D01*
X248289Y233680D01*
D02*
G37*
G36*
X245110D02*
X244471D01*
X244473Y233675D01*
X245105Y233043D01*
X245110Y233041D01*
Y233680D01*
D02*
G37*
G36*
X72390Y230509D02*
X72386Y230507D01*
X71753Y229874D01*
X71751Y229870D01*
X72390D01*
Y230509D01*
D02*
G37*
G36*
Y227330D02*
X71751D01*
X71753Y227325D01*
X72386Y226693D01*
X72390Y226691D01*
Y227330D01*
D02*
G37*
G36*
X311150Y226699D02*
Y226060D01*
X311789D01*
X311787Y226064D01*
X311154Y226697D01*
X311150Y226699D01*
D02*
G37*
G36*
X308610D02*
X308605Y226697D01*
X307973Y226064D01*
X307971Y226060D01*
X308610D01*
Y226699D01*
D02*
G37*
G36*
X311789Y223520D02*
X311150D01*
Y222881D01*
X311154Y222883D01*
X311787Y223515D01*
X311789Y223520D01*
D02*
G37*
G36*
X308610D02*
X307971D01*
X307973Y223515D01*
X308605Y222883D01*
X308610Y222881D01*
Y223520D01*
D02*
G37*
G36*
X43100Y238300D02*
X33100D01*
X30877Y238007D01*
X28805Y237149D01*
X27026Y235784D01*
X25661Y234005D01*
X24803Y231933D01*
X24511Y229710D01*
X24803Y227487D01*
X25661Y225415D01*
X27026Y223636D01*
X28805Y222271D01*
X30877Y221413D01*
X33100Y221120D01*
X43100D01*
X45323Y221413D01*
X47395Y222271D01*
X49174Y223636D01*
X50539Y225415D01*
X51397Y227487D01*
X51690Y229710D01*
X51397Y231933D01*
X50539Y234005D01*
X49174Y235784D01*
X47395Y237149D01*
X45323Y238007D01*
X43100Y238300D01*
D02*
G37*
G36*
X123190Y221619D02*
Y220980D01*
X123829D01*
X123827Y220984D01*
X123195Y221617D01*
X123190Y221619D01*
D02*
G37*
G36*
X120650D02*
X120646Y221617D01*
X120013Y220984D01*
X120011Y220980D01*
X120650D01*
Y221619D01*
D02*
G37*
G36*
X123829Y218440D02*
X123190D01*
Y217801D01*
X123195Y217803D01*
X123827Y218435D01*
X123829Y218440D01*
D02*
G37*
G36*
X120650D02*
X120011D01*
X120013Y218435D01*
X120646Y217803D01*
X120650Y217801D01*
Y218440D01*
D02*
G37*
G36*
X186690Y210189D02*
Y209550D01*
X187329D01*
X187327Y209555D01*
X186695Y210187D01*
X186690Y210189D01*
D02*
G37*
G36*
X184150D02*
X184146Y210187D01*
X183513Y209555D01*
X183511Y209550D01*
X184150D01*
Y210189D01*
D02*
G37*
G36*
X140970D02*
Y209550D01*
X141609D01*
X141607Y209555D01*
X140975Y210187D01*
X140970Y210189D01*
D02*
G37*
G36*
X138430D02*
X138426Y210187D01*
X137793Y209555D01*
X137791Y209550D01*
X138430D01*
Y210189D01*
D02*
G37*
G36*
X295910Y207649D02*
Y207010D01*
X296549D01*
X296547Y207015D01*
X295914Y207647D01*
X295910Y207649D01*
D02*
G37*
G36*
X293370D02*
X293365Y207647D01*
X292733Y207015D01*
X292731Y207010D01*
X293370D01*
Y207649D01*
D02*
G37*
G36*
X284480D02*
Y207010D01*
X285119D01*
X285117Y207015D01*
X284485Y207647D01*
X284480Y207649D01*
D02*
G37*
G36*
X281940D02*
X281936Y207647D01*
X281303Y207015D01*
X281301Y207010D01*
X281940D01*
Y207649D01*
D02*
G37*
G36*
X273050D02*
Y207010D01*
X273689D01*
X273687Y207015D01*
X273055Y207647D01*
X273050Y207649D01*
D02*
G37*
G36*
X270510D02*
X270506Y207647D01*
X269873Y207015D01*
X269871Y207010D01*
X270510D01*
Y207649D01*
D02*
G37*
G36*
X187329Y207010D02*
X186690D01*
Y206371D01*
X186695Y206373D01*
X187327Y207006D01*
X187329Y207010D01*
D02*
G37*
G36*
X184150D02*
X183511D01*
X183513Y207006D01*
X184146Y206373D01*
X184150Y206371D01*
Y207010D01*
D02*
G37*
G36*
X141609D02*
X140970D01*
Y206371D01*
X140975Y206373D01*
X141607Y207006D01*
X141609Y207010D01*
D02*
G37*
G36*
X138430D02*
X137791D01*
X137793Y207006D01*
X138426Y206373D01*
X138430Y206371D01*
Y207010D01*
D02*
G37*
G36*
X296549Y204470D02*
X295910D01*
Y203831D01*
X295914Y203833D01*
X296547Y204466D01*
X296549Y204470D01*
D02*
G37*
G36*
X293370D02*
X292731D01*
X292733Y204466D01*
X293365Y203833D01*
X293370Y203831D01*
Y204470D01*
D02*
G37*
G36*
X285119D02*
X284480D01*
Y203831D01*
X284485Y203833D01*
X285117Y204466D01*
X285119Y204470D01*
D02*
G37*
G36*
X281940D02*
X281301D01*
X281303Y204466D01*
X281936Y203833D01*
X281940Y203831D01*
Y204470D01*
D02*
G37*
G36*
X273689D02*
X273050D01*
Y203831D01*
X273055Y203833D01*
X273687Y204466D01*
X273689Y204470D01*
D02*
G37*
G36*
X270510D02*
X269871D01*
X269873Y204466D01*
X270506Y203833D01*
X270510Y203831D01*
Y204470D01*
D02*
G37*
G36*
X43100Y218300D02*
X33100D01*
X30877Y218007D01*
X28805Y217149D01*
X27026Y215784D01*
X25661Y214005D01*
X24803Y211933D01*
X24511Y209710D01*
X24803Y207487D01*
X25661Y205415D01*
X27026Y203636D01*
X28805Y202271D01*
X30877Y201413D01*
X33100Y201120D01*
X43100D01*
X45323Y201413D01*
X47395Y202271D01*
X49174Y203636D01*
X50539Y205415D01*
X51397Y207487D01*
X51690Y209710D01*
X51397Y211933D01*
X50539Y214005D01*
X49174Y215784D01*
X47395Y217149D01*
X45323Y218007D01*
X43100Y218300D01*
D02*
G37*
G36*
X295910Y196219D02*
Y195580D01*
X296549D01*
X296547Y195585D01*
X295914Y196217D01*
X295910Y196219D01*
D02*
G37*
G36*
X293370D02*
X293365Y196217D01*
X292733Y195585D01*
X292731Y195580D01*
X293370D01*
Y196219D01*
D02*
G37*
G36*
X284480D02*
Y195580D01*
X285119D01*
X285117Y195585D01*
X284485Y196217D01*
X284480Y196219D01*
D02*
G37*
G36*
X281940D02*
X281936Y196217D01*
X281303Y195585D01*
X281301Y195580D01*
X281940D01*
Y196219D01*
D02*
G37*
G36*
X273050D02*
Y195580D01*
X273689D01*
X273687Y195585D01*
X273055Y196217D01*
X273050Y196219D01*
D02*
G37*
G36*
X270510D02*
X270506Y196217D01*
X269873Y195585D01*
X269871Y195580D01*
X270510D01*
Y196219D01*
D02*
G37*
G36*
X135890D02*
Y195580D01*
X136529D01*
X136527Y195585D01*
X135894Y196217D01*
X135890Y196219D01*
D02*
G37*
G36*
X133350D02*
X133345Y196217D01*
X132713Y195585D01*
X132711Y195580D01*
X133350D01*
Y196219D01*
D02*
G37*
G36*
X296549Y193040D02*
X295910D01*
Y192401D01*
X295914Y192403D01*
X296547Y193036D01*
X296549Y193040D01*
D02*
G37*
G36*
X293370D02*
X292731D01*
X292733Y193036D01*
X293365Y192403D01*
X293370Y192401D01*
Y193040D01*
D02*
G37*
G36*
X285119D02*
X284480D01*
Y192401D01*
X284485Y192403D01*
X285117Y193036D01*
X285119Y193040D01*
D02*
G37*
G36*
X281940D02*
X281301D01*
X281303Y193036D01*
X281936Y192403D01*
X281940Y192401D01*
Y193040D01*
D02*
G37*
G36*
X273689D02*
X273050D01*
Y192401D01*
X273055Y192403D01*
X273687Y193036D01*
X273689Y193040D01*
D02*
G37*
G36*
X270510D02*
X269871D01*
X269873Y193036D01*
X270506Y192403D01*
X270510Y192401D01*
Y193040D01*
D02*
G37*
G36*
X136529D02*
X135890D01*
Y192401D01*
X135894Y192403D01*
X136527Y193036D01*
X136529Y193040D01*
D02*
G37*
G36*
X133350D02*
X132711D01*
X132713Y193036D01*
X133345Y192403D01*
X133350Y192401D01*
Y193040D01*
D02*
G37*
G36*
X43100Y197275D02*
X39370D01*
Y190980D01*
X50497D01*
X50407Y191668D01*
X49651Y193492D01*
X48449Y195059D01*
X46882Y196261D01*
X45058Y197017D01*
X43100Y197275D01*
D02*
G37*
G36*
X36830D02*
X33100D01*
X31142Y197017D01*
X29318Y196261D01*
X27751Y195059D01*
X26549Y193492D01*
X25793Y191668D01*
X25703Y190980D01*
X36830D01*
Y197275D01*
D02*
G37*
G36*
X403780Y196795D02*
X400050D01*
Y190500D01*
X411177D01*
X411087Y191188D01*
X410331Y193012D01*
X409129Y194579D01*
X407562Y195781D01*
X405738Y196537D01*
X403780Y196795D01*
D02*
G37*
G36*
X318770Y191139D02*
Y190500D01*
X319409D01*
X319407Y190504D01*
X318775Y191137D01*
X318770Y191139D01*
D02*
G37*
G36*
X316230D02*
X316225Y191137D01*
X315593Y190504D01*
X315591Y190500D01*
X316230D01*
Y191139D01*
D02*
G37*
G36*
X397510Y196795D02*
X393780D01*
X391822Y196537D01*
X389998Y195781D01*
X388431Y194579D01*
X387229Y193012D01*
X386473Y191188D01*
X386382Y190500D01*
X397510D01*
Y196795D01*
D02*
G37*
G36*
X319409Y187960D02*
X318770D01*
Y187321D01*
X318775Y187323D01*
X319407Y187955D01*
X319409Y187960D01*
D02*
G37*
G36*
X316230D02*
X315591D01*
X315593Y187955D01*
X316225Y187323D01*
X316230Y187321D01*
Y187960D01*
D02*
G37*
G36*
X221680Y254980D02*
X220280D01*
X218986Y254444D01*
X217996Y253454D01*
X217460Y252160D01*
Y250760D01*
X217996Y249466D01*
X218986Y248476D01*
X220280Y247940D01*
X220780D01*
X246589Y222131D01*
Y191877D01*
X245936Y191224D01*
X245400Y189930D01*
Y188530D01*
X245936Y187236D01*
X246926Y186246D01*
X248220Y185710D01*
X249620D01*
X250914Y186246D01*
X251904Y187236D01*
X252440Y188530D01*
Y189930D01*
X251904Y191224D01*
X251251Y191877D01*
Y223096D01*
X251073Y223988D01*
X250568Y224744D01*
X234738Y240574D01*
X235159Y241590D01*
X235397D01*
X236224Y241933D01*
X236857Y242565D01*
X236859Y242570D01*
X234950D01*
Y243840D01*
X233680D01*
Y245749D01*
X233675Y245747D01*
X233043Y245114D01*
X232700Y244287D01*
Y244049D01*
X231684Y243628D01*
X224500Y250812D01*
Y252160D01*
X223964Y253454D01*
X222974Y254444D01*
X221680Y254980D01*
D02*
G37*
G36*
X295910Y186059D02*
Y185420D01*
X296549D01*
X296547Y185424D01*
X295914Y186057D01*
X295910Y186059D01*
D02*
G37*
G36*
X293370D02*
X293365Y186057D01*
X292733Y185424D01*
X292731Y185420D01*
X293370D01*
Y186059D01*
D02*
G37*
G36*
X284480D02*
Y185420D01*
X285119D01*
X285117Y185424D01*
X284485Y186057D01*
X284480Y186059D01*
D02*
G37*
G36*
X281940D02*
X281936Y186057D01*
X281303Y185424D01*
X281301Y185420D01*
X281940D01*
Y186059D01*
D02*
G37*
G36*
X273050D02*
Y185420D01*
X273689D01*
X273687Y185424D01*
X273055Y186057D01*
X273050Y186059D01*
D02*
G37*
G36*
X270510D02*
X270506Y186057D01*
X269873Y185424D01*
X269871Y185420D01*
X270510D01*
Y186059D01*
D02*
G37*
G36*
X204470Y184789D02*
Y184150D01*
X205109D01*
X205107Y184154D01*
X204475Y184787D01*
X204470Y184789D01*
D02*
G37*
G36*
X201930D02*
X201926Y184787D01*
X201293Y184154D01*
X201291Y184150D01*
X201930D01*
Y184789D01*
D02*
G37*
G36*
X296549Y182880D02*
X295910D01*
Y182241D01*
X295914Y182243D01*
X296547Y182875D01*
X296549Y182880D01*
D02*
G37*
G36*
X293370D02*
X292731D01*
X292733Y182875D01*
X293365Y182243D01*
X293370Y182241D01*
Y182880D01*
D02*
G37*
G36*
X285119D02*
X284480D01*
Y182241D01*
X284485Y182243D01*
X285117Y182875D01*
X285119Y182880D01*
D02*
G37*
G36*
X281940D02*
X281301D01*
X281303Y182875D01*
X281936Y182243D01*
X281940Y182241D01*
Y182880D01*
D02*
G37*
G36*
X273689D02*
X273050D01*
Y182241D01*
X273055Y182243D01*
X273687Y182875D01*
X273689Y182880D01*
D02*
G37*
G36*
X270510D02*
X269871D01*
X269873Y182875D01*
X270506Y182243D01*
X270510Y182241D01*
Y182880D01*
D02*
G37*
G36*
X50497Y188440D02*
X39370D01*
Y182145D01*
X43100D01*
X45058Y182403D01*
X46882Y183159D01*
X48449Y184361D01*
X49651Y185928D01*
X50407Y187752D01*
X50497Y188440D01*
D02*
G37*
G36*
X36830D02*
X25703D01*
X25793Y187752D01*
X26549Y185928D01*
X27751Y184361D01*
X29318Y183159D01*
X31142Y182403D01*
X33100Y182145D01*
X36830D01*
Y188440D01*
D02*
G37*
G36*
X411177Y187960D02*
X400050D01*
Y181665D01*
X403780D01*
X405738Y181923D01*
X407562Y182679D01*
X409129Y183881D01*
X410331Y185448D01*
X411087Y187272D01*
X411177Y187960D01*
D02*
G37*
G36*
X397510D02*
X386382D01*
X386473Y187272D01*
X387229Y185448D01*
X388431Y183881D01*
X389998Y182679D01*
X391822Y181923D01*
X393780Y181665D01*
X397510D01*
Y187960D01*
D02*
G37*
G36*
X205109Y181610D02*
X204470D01*
Y180971D01*
X204475Y180973D01*
X205107Y181605D01*
X205109Y181610D01*
D02*
G37*
G36*
X201930D02*
X201291D01*
X201293Y181605D01*
X201926Y180973D01*
X201930Y180971D01*
Y181610D01*
D02*
G37*
G36*
X181610Y178439D02*
Y177800D01*
X182249D01*
X182247Y177805D01*
X181614Y178437D01*
X181610Y178439D01*
D02*
G37*
G36*
X179070D02*
X179065Y178437D01*
X178433Y177805D01*
X178431Y177800D01*
X179070D01*
Y178439D01*
D02*
G37*
G36*
X182249Y175260D02*
X181610D01*
Y174621D01*
X181614Y174623D01*
X182247Y175256D01*
X182249Y175260D01*
D02*
G37*
G36*
X179070D02*
X178431D01*
X178433Y175256D01*
X179065Y174623D01*
X179070Y174621D01*
Y175260D01*
D02*
G37*
G36*
X228890Y161929D02*
Y161290D01*
X229529D01*
X229527Y161294D01*
X228895Y161927D01*
X228890Y161929D01*
D02*
G37*
G36*
X226350D02*
X226346Y161927D01*
X225713Y161294D01*
X225711Y161290D01*
X226350D01*
Y161929D01*
D02*
G37*
G36*
X43100Y178299D02*
X33100D01*
X30877Y178007D01*
X28805Y177149D01*
X27026Y175784D01*
X25661Y174005D01*
X24803Y171933D01*
X24511Y169710D01*
X24803Y167487D01*
X25661Y165415D01*
X27026Y163636D01*
X28805Y162271D01*
X30877Y161413D01*
X33100Y161120D01*
X43100D01*
X45323Y161413D01*
X47395Y162271D01*
X49174Y163636D01*
X50539Y165415D01*
X51397Y167487D01*
X51690Y169710D01*
X51397Y171933D01*
X50539Y174005D01*
X49174Y175784D01*
X47395Y177149D01*
X45323Y178007D01*
X43100Y178299D01*
D02*
G37*
G36*
X403780Y177819D02*
X393780D01*
X391557Y177527D01*
X389485Y176669D01*
X387706Y175304D01*
X386341Y173525D01*
X385483Y171453D01*
X385191Y169230D01*
X385483Y167007D01*
X386341Y164935D01*
X387706Y163156D01*
X389485Y161791D01*
X391557Y160933D01*
X393780Y160641D01*
X403780D01*
X406003Y160933D01*
X408075Y161791D01*
X409854Y163156D01*
X411219Y164935D01*
X412077Y167007D01*
X412369Y169230D01*
X412077Y171453D01*
X411219Y173525D01*
X409854Y175304D01*
X408075Y176669D01*
X406003Y177527D01*
X403780Y177819D01*
D02*
G37*
G36*
X351790Y159389D02*
Y158750D01*
X352429D01*
X352427Y158755D01*
X351795Y159387D01*
X351790Y159389D01*
D02*
G37*
G36*
X349250D02*
X349245Y159387D01*
X348613Y158755D01*
X348611Y158750D01*
X349250D01*
Y159389D01*
D02*
G37*
G36*
X229529Y158750D02*
X228890D01*
Y158111D01*
X228895Y158113D01*
X229527Y158745D01*
X229529Y158750D01*
D02*
G37*
G36*
X226350D02*
X225711D01*
X225713Y158745D01*
X226346Y158113D01*
X226350Y158111D01*
Y158750D01*
D02*
G37*
G36*
X352429Y156210D02*
X351790D01*
Y155571D01*
X351795Y155573D01*
X352427Y156206D01*
X352429Y156210D01*
D02*
G37*
G36*
X349250D02*
X348611D01*
X348613Y156206D01*
X349245Y155573D01*
X349250Y155571D01*
Y156210D01*
D02*
G37*
G36*
X67310Y153039D02*
Y152400D01*
X67949D01*
X67947Y152404D01*
X67315Y153037D01*
X67310Y153039D01*
D02*
G37*
G36*
X64770D02*
X64766Y153037D01*
X64133Y152404D01*
X64131Y152400D01*
X64770D01*
Y153039D01*
D02*
G37*
G36*
X327660Y150499D02*
Y149860D01*
X328299D01*
X328297Y149865D01*
X327664Y150497D01*
X327660Y150499D01*
D02*
G37*
G36*
X325120D02*
X325116Y150497D01*
X324483Y149865D01*
X324481Y149860D01*
X325120D01*
Y150499D01*
D02*
G37*
G36*
X251460D02*
Y149860D01*
X252099D01*
X252097Y149865D01*
X251465Y150497D01*
X251460Y150499D01*
D02*
G37*
G36*
X248920D02*
X248916Y150497D01*
X248283Y149865D01*
X248281Y149860D01*
X248920D01*
Y150499D01*
D02*
G37*
G36*
X67949Y149860D02*
X67310D01*
Y149221D01*
X67315Y149223D01*
X67947Y149855D01*
X67949Y149860D01*
D02*
G37*
G36*
X64770D02*
X64131D01*
X64133Y149855D01*
X64766Y149223D01*
X64770Y149221D01*
Y149860D01*
D02*
G37*
G36*
X328299Y147320D02*
X327660D01*
Y146681D01*
X327664Y146683D01*
X328297Y147316D01*
X328299Y147320D01*
D02*
G37*
G36*
X325120D02*
X324481D01*
X324483Y147316D01*
X325116Y146683D01*
X325120Y146681D01*
Y147320D01*
D02*
G37*
G36*
X252099D02*
X251460D01*
Y146681D01*
X251465Y146683D01*
X252097Y147316D01*
X252099Y147320D01*
D02*
G37*
G36*
X248920D02*
X248281D01*
X248283Y147316D01*
X248916Y146683D01*
X248920Y146681D01*
Y147320D01*
D02*
G37*
G36*
X118110Y145419D02*
Y144780D01*
X118749D01*
X118747Y144784D01*
X118115Y145417D01*
X118110Y145419D01*
D02*
G37*
G36*
X115570D02*
X115566Y145417D01*
X114933Y144784D01*
X114931Y144780D01*
X115570D01*
Y145419D01*
D02*
G37*
G36*
X118749Y142240D02*
X118110D01*
Y141601D01*
X118115Y141603D01*
X118747Y142235D01*
X118749Y142240D01*
D02*
G37*
G36*
X115570D02*
X114931D01*
X114933Y142235D01*
X115566Y141603D01*
X115570Y141601D01*
Y142240D01*
D02*
G37*
G36*
X381000Y137799D02*
Y137160D01*
X381639D01*
X381637Y137164D01*
X381004Y137797D01*
X381000Y137799D01*
D02*
G37*
G36*
X378460D02*
X378456Y137797D01*
X377823Y137164D01*
X377821Y137160D01*
X378460D01*
Y137799D01*
D02*
G37*
G36*
X288290Y163646D02*
X287759Y163540D01*
X287590D01*
X287434Y163475D01*
X286903Y163370D01*
X286452Y163069D01*
X286296Y163004D01*
X286177Y162885D01*
X285726Y162584D01*
X285425Y162133D01*
X285306Y162014D01*
X285241Y161858D01*
X284940Y161408D01*
X284835Y160876D01*
X284770Y160720D01*
Y160551D01*
X284664Y160020D01*
X284770Y159489D01*
Y159320D01*
X284835Y159164D01*
X284940Y158632D01*
X285241Y158182D01*
X285306Y158026D01*
X285425Y157907D01*
X285726Y157456D01*
X287204Y155978D01*
Y115802D01*
X280438Y109036D01*
X259080D01*
X259080Y109036D01*
X257693Y108760D01*
X256516Y107974D01*
X256516Y107974D01*
X248896Y100354D01*
X248482Y99733D01*
X247466Y100042D01*
Y135222D01*
X248318Y136074D01*
X266700D01*
X266700Y136074D01*
X268088Y136350D01*
X269264Y137136D01*
X280694Y148566D01*
X280694Y148566D01*
X281480Y149742D01*
X281756Y151130D01*
X281756Y151130D01*
Y160020D01*
X281650Y160551D01*
Y160720D01*
X281585Y160876D01*
X281480Y161408D01*
X281179Y161858D01*
X281114Y162014D01*
X280995Y162133D01*
X280694Y162584D01*
X280243Y162885D01*
X280124Y163004D01*
X279968Y163069D01*
X279517Y163370D01*
X278986Y163475D01*
X278830Y163540D01*
X278661D01*
X278130Y163646D01*
X277599Y163540D01*
X277430D01*
X277274Y163475D01*
X276742Y163370D01*
X276292Y163069D01*
X276136Y163004D01*
X276017Y162885D01*
X275566Y162584D01*
X275265Y162133D01*
X275146Y162014D01*
X275081Y161858D01*
X274780Y161408D01*
X274675Y160876D01*
X274610Y160720D01*
Y160551D01*
X274504Y160020D01*
Y152632D01*
X265198Y143326D01*
X246816D01*
X245428Y143050D01*
X244252Y142264D01*
X244252Y142264D01*
X241276Y139288D01*
X240490Y138112D01*
X240214Y136724D01*
X240214Y136724D01*
Y73892D01*
X196894Y30572D01*
X196767Y30606D01*
X194393D01*
X192100Y29992D01*
X190044Y28805D01*
X188365Y27126D01*
X187178Y25070D01*
X186564Y22777D01*
Y20403D01*
X187178Y18110D01*
X188365Y16054D01*
X190044Y14375D01*
X192100Y13188D01*
X194393Y12574D01*
X196767D01*
X199060Y13188D01*
X201116Y14375D01*
X202795Y16054D01*
X203982Y18110D01*
X204596Y20403D01*
Y22777D01*
X203982Y25070D01*
X203127Y26550D01*
X230728Y54150D01*
X231100Y53969D01*
X231565Y53551D01*
X231324Y52339D01*
X231324Y52339D01*
Y37062D01*
X224298Y30035D01*
X222167Y30606D01*
X219793D01*
X217500Y29992D01*
X215444Y28805D01*
X213765Y27126D01*
X212578Y25070D01*
X211964Y22777D01*
Y20403D01*
X212578Y18110D01*
X213765Y16054D01*
X215444Y14375D01*
X217500Y13188D01*
X219793Y12574D01*
X222167D01*
X224460Y13188D01*
X226516Y14375D01*
X228195Y16054D01*
X229382Y18110D01*
X229996Y20403D01*
Y22777D01*
X229425Y24908D01*
X237514Y32996D01*
X237514Y32996D01*
X238300Y34172D01*
X238576Y35560D01*
Y50837D01*
X254024Y66285D01*
X254024Y66285D01*
X254810Y67462D01*
X255086Y68849D01*
X255086Y68849D01*
Y96288D01*
X260582Y101784D01*
X281940D01*
X281940Y101784D01*
X283328Y102060D01*
X284504Y102846D01*
X293394Y111736D01*
X293394Y111736D01*
X294180Y112913D01*
X294456Y114300D01*
X294456Y114300D01*
Y157480D01*
X294180Y158868D01*
X293394Y160044D01*
X293394Y160044D01*
X290854Y162584D01*
X290403Y162885D01*
X290284Y163004D01*
X290128Y163069D01*
X289678Y163370D01*
X289146Y163475D01*
X288990Y163540D01*
X288821D01*
X288290Y163646D01*
D02*
G37*
G36*
X381639Y134620D02*
X381000D01*
Y133981D01*
X381004Y133983D01*
X381637Y134615D01*
X381639Y134620D01*
D02*
G37*
G36*
X378460D02*
X377821D01*
X377823Y134615D01*
X378456Y133983D01*
X378460Y133981D01*
Y134620D01*
D02*
G37*
G36*
X339090Y216986D02*
X338559Y216880D01*
X338390D01*
X338234Y216815D01*
X337702Y216710D01*
X337252Y216409D01*
X337096Y216344D01*
X336977Y216225D01*
X336526Y215924D01*
X336225Y215473D01*
X336106Y215354D01*
X336041Y215198D01*
X335740Y214748D01*
X335635Y214216D01*
X335570Y214060D01*
Y213891D01*
X335464Y213360D01*
Y180340D01*
X335464Y180340D01*
X335740Y178953D01*
X336526Y177776D01*
X359594Y154708D01*
Y129540D01*
X359700Y129009D01*
Y128840D01*
X359765Y128684D01*
X359870Y128153D01*
X360171Y127702D01*
X360236Y127546D01*
X360355Y127427D01*
X360656Y126976D01*
X361107Y126675D01*
X361226Y126556D01*
X361382Y126491D01*
X361833Y126190D01*
X362364Y126085D01*
X362520Y126020D01*
X362689D01*
X363220Y125914D01*
X363751Y126020D01*
X363920D01*
X364076Y126085D01*
X364608Y126190D01*
X365058Y126491D01*
X365214Y126556D01*
X365333Y126675D01*
X365784Y126976D01*
X366085Y127427D01*
X366204Y127546D01*
X366269Y127702D01*
X366570Y128153D01*
X366675Y128684D01*
X366740Y128840D01*
Y129009D01*
X366846Y129540D01*
Y156210D01*
X366846Y156210D01*
X366570Y157598D01*
X365784Y158774D01*
X365784Y158774D01*
X342716Y181842D01*
Y213360D01*
X342610Y213891D01*
Y214060D01*
X342545Y214216D01*
X342440Y214748D01*
X342139Y215198D01*
X342074Y215354D01*
X341955Y215473D01*
X341654Y215924D01*
X341203Y216225D01*
X341084Y216344D01*
X340928Y216409D01*
X340477Y216710D01*
X339946Y216815D01*
X339790Y216880D01*
X339621D01*
X339090Y216986D01*
D02*
G37*
G36*
X166370Y98429D02*
Y97790D01*
X167009D01*
X167007Y97795D01*
X166374Y98427D01*
X166370Y98429D01*
D02*
G37*
G36*
X163830D02*
X163825Y98427D01*
X163193Y97795D01*
X163191Y97790D01*
X163830D01*
Y98429D01*
D02*
G37*
G36*
X167009Y95250D02*
X166370D01*
Y94611D01*
X166374Y94613D01*
X167007Y95246D01*
X167009Y95250D01*
D02*
G37*
G36*
X163830D02*
X163191D01*
X163193Y95246D01*
X163825Y94613D01*
X163830Y94611D01*
Y95250D01*
D02*
G37*
G36*
X285750Y89539D02*
Y88900D01*
X286389D01*
X286387Y88904D01*
X285755Y89537D01*
X285750Y89539D01*
D02*
G37*
G36*
X283210D02*
X283206Y89537D01*
X282573Y88904D01*
X282571Y88900D01*
X283210D01*
Y89539D01*
D02*
G37*
G36*
X273050D02*
Y88900D01*
X273689D01*
X273687Y88904D01*
X273055Y89537D01*
X273050Y89539D01*
D02*
G37*
G36*
X270510D02*
X270506Y89537D01*
X269873Y88904D01*
X269871Y88900D01*
X270510D01*
Y89539D01*
D02*
G37*
G36*
X260350D02*
Y88900D01*
X260989D01*
X260987Y88904D01*
X260354Y89537D01*
X260350Y89539D01*
D02*
G37*
G36*
X257810D02*
X257806Y89537D01*
X257173Y88904D01*
X257171Y88900D01*
X257810D01*
Y89539D01*
D02*
G37*
G36*
X286389Y86360D02*
X285750D01*
Y85721D01*
X285755Y85723D01*
X286387Y86355D01*
X286389Y86360D01*
D02*
G37*
G36*
X283210D02*
X282571D01*
X282573Y86355D01*
X283206Y85723D01*
X283210Y85721D01*
Y86360D01*
D02*
G37*
G36*
X273689D02*
X273050D01*
Y85721D01*
X273055Y85723D01*
X273687Y86355D01*
X273689Y86360D01*
D02*
G37*
G36*
X270510D02*
X269871D01*
X269873Y86355D01*
X270506Y85723D01*
X270510Y85721D01*
Y86360D01*
D02*
G37*
G36*
X260989D02*
X260350D01*
Y85721D01*
X260354Y85723D01*
X260987Y86355D01*
X260989Y86360D01*
D02*
G37*
G36*
X257810D02*
X257171D01*
X257173Y86355D01*
X257806Y85723D01*
X257810Y85721D01*
Y86360D01*
D02*
G37*
G36*
X411946Y123656D02*
X372914D01*
Y84624D01*
X411946D01*
Y123656D01*
D02*
G37*
G36*
X215900Y138260D02*
X19050D01*
X18272Y137938D01*
X10652Y130318D01*
X10330Y129540D01*
Y122158D01*
X10457Y121852D01*
X10528Y121529D01*
X10964Y120904D01*
Y84612D01*
X10756Y84451D01*
X10720Y84387D01*
X10652Y84359D01*
X10516Y84030D01*
X10339Y83720D01*
X10358Y83649D01*
X10330Y83582D01*
Y82550D01*
X10652Y81772D01*
X11922Y80502D01*
X12700Y80180D01*
X50800D01*
X51578Y80502D01*
X55388Y84312D01*
X55710Y85090D01*
Y102870D01*
X55388Y103648D01*
X54895Y104140D01*
X60146Y109390D01*
X215900D01*
X216678Y109712D01*
X216678Y109712D01*
X220488Y113522D01*
X220810Y114300D01*
Y133350D01*
X220488Y134128D01*
X216678Y137938D01*
X215900Y138260D01*
D02*
G37*
G36*
X285750Y74299D02*
Y73660D01*
X286389D01*
X286387Y73664D01*
X285755Y74297D01*
X285750Y74299D01*
D02*
G37*
G36*
X283210D02*
X283206Y74297D01*
X282573Y73664D01*
X282571Y73660D01*
X283210D01*
Y74299D01*
D02*
G37*
G36*
X273050D02*
Y73660D01*
X273689D01*
X273687Y73664D01*
X273055Y74297D01*
X273050Y74299D01*
D02*
G37*
G36*
X270510D02*
X270506Y74297D01*
X269873Y73664D01*
X269871Y73660D01*
X270510D01*
Y74299D01*
D02*
G37*
G36*
X260350D02*
Y73660D01*
X260989D01*
X260987Y73664D01*
X260354Y74297D01*
X260350Y74299D01*
D02*
G37*
G36*
X257810D02*
X257806Y74297D01*
X257173Y73664D01*
X257171Y73660D01*
X257810D01*
Y74299D01*
D02*
G37*
G36*
X286389Y71120D02*
X285750D01*
Y70481D01*
X285755Y70483D01*
X286387Y71115D01*
X286389Y71120D01*
D02*
G37*
G36*
X283210D02*
X282571D01*
X282573Y71115D01*
X283206Y70483D01*
X283210Y70481D01*
Y71120D01*
D02*
G37*
G36*
X273689D02*
X273050D01*
Y70481D01*
X273055Y70483D01*
X273687Y71115D01*
X273689Y71120D01*
D02*
G37*
G36*
X270510D02*
X269871D01*
X269873Y71115D01*
X270506Y70483D01*
X270510Y70481D01*
Y71120D01*
D02*
G37*
G36*
X260989D02*
X260350D01*
Y70481D01*
X260354Y70483D01*
X260987Y71115D01*
X260989Y71120D01*
D02*
G37*
G36*
X257810D02*
X257171D01*
X257173Y71115D01*
X257806Y70483D01*
X257810Y70481D01*
Y71120D01*
D02*
G37*
G36*
X322580Y182696D02*
X322580Y182696D01*
X317500D01*
X316969Y182590D01*
X316800D01*
X316644Y182525D01*
X316112Y182420D01*
X315662Y182119D01*
X315506Y182054D01*
X315387Y181935D01*
X314936Y181634D01*
X314635Y181183D01*
X314516Y181064D01*
X314451Y180908D01*
X314150Y180457D01*
X314045Y179926D01*
X313980Y179770D01*
Y179601D01*
X313874Y179070D01*
X313980Y178539D01*
Y178370D01*
X314045Y178214D01*
X314150Y177682D01*
X314451Y177232D01*
X314516Y177076D01*
X314635Y176957D01*
X314936Y176506D01*
X315387Y176205D01*
X315506Y176086D01*
X315662Y176021D01*
X316112Y175720D01*
X316644Y175615D01*
X316800Y175550D01*
X316969D01*
X317500Y175444D01*
X321078D01*
X336734Y159788D01*
Y85322D01*
X318538Y67126D01*
X264160D01*
X262773Y66850D01*
X261596Y66064D01*
X261596Y66064D01*
X243816Y48284D01*
X243030Y47108D01*
X242754Y45720D01*
X242754Y45720D01*
Y29908D01*
X240844Y28805D01*
X239165Y27126D01*
X237978Y25070D01*
X237364Y22777D01*
Y20403D01*
X237978Y18110D01*
X239165Y16054D01*
X240844Y14375D01*
X242900Y13188D01*
X245193Y12574D01*
X247567D01*
X249860Y13188D01*
X251916Y14375D01*
X253595Y16054D01*
X254782Y18110D01*
X255396Y20403D01*
Y22777D01*
X254782Y25070D01*
X253595Y27126D01*
X251916Y28805D01*
X250006Y29908D01*
Y44218D01*
X265662Y59874D01*
X320040D01*
X320040Y59874D01*
X321427Y60150D01*
X322604Y60936D01*
X342924Y81256D01*
X342924Y81256D01*
X343710Y82432D01*
X343986Y83820D01*
X343986Y83820D01*
Y161290D01*
X343986Y161290D01*
X343710Y162677D01*
X342924Y163854D01*
X342924Y163854D01*
X325144Y181634D01*
X323968Y182420D01*
X322580Y182696D01*
D02*
G37*
G36*
X295910Y57789D02*
Y57150D01*
X296549D01*
X296547Y57154D01*
X295914Y57787D01*
X295910Y57789D01*
D02*
G37*
G36*
X293370D02*
X293365Y57787D01*
X292733Y57154D01*
X292731Y57150D01*
X293370D01*
Y57789D01*
D02*
G37*
G36*
X285750D02*
Y57150D01*
X286389D01*
X286387Y57154D01*
X285755Y57787D01*
X285750Y57789D01*
D02*
G37*
G36*
X283210D02*
X283206Y57787D01*
X282573Y57154D01*
X282571Y57150D01*
X283210D01*
Y57789D01*
D02*
G37*
G36*
X273050D02*
Y57150D01*
X273689D01*
X273687Y57154D01*
X273055Y57787D01*
X273050Y57789D01*
D02*
G37*
G36*
X270510D02*
X270506Y57787D01*
X269873Y57154D01*
X269871Y57150D01*
X270510D01*
Y57789D01*
D02*
G37*
G36*
X296549Y54610D02*
X295910D01*
Y53971D01*
X295914Y53973D01*
X296547Y54605D01*
X296549Y54610D01*
D02*
G37*
G36*
X293370D02*
X292731D01*
X292733Y54605D01*
X293365Y53973D01*
X293370Y53971D01*
Y54610D01*
D02*
G37*
G36*
X286389D02*
X285750D01*
Y53971D01*
X285755Y53973D01*
X286387Y54605D01*
X286389Y54610D01*
D02*
G37*
G36*
X283210D02*
X282571D01*
X282573Y54605D01*
X283206Y53973D01*
X283210Y53971D01*
Y54610D01*
D02*
G37*
G36*
X273689D02*
X273050D01*
Y53971D01*
X273055Y53973D01*
X273687Y54605D01*
X273689Y54610D01*
D02*
G37*
G36*
X270510D02*
X269871D01*
X269873Y54605D01*
X270506Y53973D01*
X270510Y53971D01*
Y54610D01*
D02*
G37*
G36*
X295910Y45089D02*
Y44450D01*
X296549D01*
X296547Y44454D01*
X295914Y45087D01*
X295910Y45089D01*
D02*
G37*
G36*
X293370D02*
X293365Y45087D01*
X292733Y44454D01*
X292731Y44450D01*
X293370D01*
Y45089D01*
D02*
G37*
G36*
X285750D02*
Y44450D01*
X286389D01*
X286387Y44454D01*
X285755Y45087D01*
X285750Y45089D01*
D02*
G37*
G36*
X283210D02*
X283206Y45087D01*
X282573Y44454D01*
X282571Y44450D01*
X283210D01*
Y45089D01*
D02*
G37*
G36*
X296549Y41910D02*
X295910D01*
Y41271D01*
X295914Y41273D01*
X296547Y41905D01*
X296549Y41910D01*
D02*
G37*
G36*
X293370D02*
X292731D01*
X292733Y41905D01*
X293365Y41273D01*
X293370Y41271D01*
Y41910D01*
D02*
G37*
G36*
X286389D02*
X285750D01*
Y41271D01*
X285755Y41273D01*
X286387Y41905D01*
X286389Y41910D01*
D02*
G37*
G36*
X283210D02*
X282571D01*
X282573Y41905D01*
X283206Y41273D01*
X283210Y41271D01*
Y41910D01*
D02*
G37*
G36*
X369444Y76556D02*
X366096D01*
X365899Y76517D01*
X365698D01*
X362413Y75863D01*
X362228Y75787D01*
X362031Y75747D01*
X358937Y74466D01*
X358770Y74354D01*
X358585Y74278D01*
X355800Y72417D01*
X355658Y72275D01*
X355491Y72164D01*
X353123Y69796D01*
X353012Y69629D01*
X352870Y69487D01*
X351009Y66702D01*
X350932Y66517D01*
X350821Y66350D01*
X349539Y63256D01*
X349500Y63059D01*
X349423Y62873D01*
X348770Y59589D01*
Y59388D01*
X348731Y59191D01*
Y55842D01*
X348770Y55645D01*
Y55445D01*
X349423Y52160D01*
X349500Y51975D01*
X349539Y51778D01*
X350821Y48684D01*
X350932Y48517D01*
X351009Y48331D01*
X352870Y45547D01*
X353012Y45405D01*
X353123Y45238D01*
X355491Y42870D01*
X355658Y42758D01*
X355800Y42617D01*
X358585Y40756D01*
X358770Y40679D01*
X358937Y40568D01*
X362031Y39286D01*
X362228Y39247D01*
X362413Y39170D01*
X365698Y38517D01*
X365899D01*
X366096Y38478D01*
X369444D01*
X369641Y38517D01*
X369842D01*
X373126Y39170D01*
X373312Y39247D01*
X373509Y39286D01*
X376603Y40568D01*
X376770Y40679D01*
X376955Y40756D01*
X379740Y42617D01*
X379882Y42759D01*
X380049Y42870D01*
X382417Y45238D01*
X382528Y45405D01*
X382670Y45547D01*
X384531Y48331D01*
X384608Y48517D01*
X384719Y48684D01*
X386001Y51778D01*
X386040Y51975D01*
X386117Y52160D01*
X386770Y55445D01*
Y55645D01*
X386809Y55842D01*
Y59191D01*
X386770Y59388D01*
Y59589D01*
X386117Y62873D01*
X386040Y63059D01*
X386001Y63256D01*
X384719Y66350D01*
X384608Y66517D01*
X384531Y66702D01*
X382670Y69487D01*
X382528Y69629D01*
X382417Y69796D01*
X380049Y72164D01*
X379882Y72275D01*
X379740Y72417D01*
X376955Y74278D01*
X376770Y74354D01*
X376603Y74466D01*
X373509Y75747D01*
X373312Y75787D01*
X373126Y75863D01*
X369842Y76517D01*
X369641D01*
X369444Y76556D01*
D02*
G37*
G36*
X59444D02*
X56096D01*
X55899Y76517D01*
X55698D01*
X52414Y75863D01*
X52228Y75787D01*
X52031Y75747D01*
X48937Y74466D01*
X48770Y74354D01*
X48585Y74278D01*
X45800Y72417D01*
X45658Y72275D01*
X45491Y72164D01*
X43123Y69796D01*
X43012Y69629D01*
X42870Y69487D01*
X41009Y66702D01*
X40932Y66517D01*
X40821Y66350D01*
X39539Y63256D01*
X39500Y63059D01*
X39423Y62873D01*
X38770Y59589D01*
Y59388D01*
X38731Y59191D01*
Y55842D01*
X38770Y55645D01*
Y55445D01*
X39423Y52160D01*
X39500Y51975D01*
X39539Y51778D01*
X40821Y48684D01*
X40932Y48517D01*
X41009Y48331D01*
X42870Y45547D01*
X43012Y45405D01*
X43123Y45238D01*
X45491Y42870D01*
X45658Y42758D01*
X45800Y42617D01*
X48585Y40756D01*
X48770Y40679D01*
X48937Y40568D01*
X52031Y39286D01*
X52228Y39247D01*
X52414Y39170D01*
X55698Y38517D01*
X55899D01*
X56096Y38478D01*
X59444D01*
X59641Y38517D01*
X59842D01*
X63127Y39170D01*
X63312Y39247D01*
X63509Y39286D01*
X66603Y40568D01*
X66770Y40679D01*
X66955Y40756D01*
X69740Y42617D01*
X69882Y42759D01*
X70049Y42870D01*
X72417Y45238D01*
X72528Y45405D01*
X72670Y45547D01*
X74531Y48331D01*
X74608Y48517D01*
X74719Y48684D01*
X76001Y51778D01*
X76040Y51975D01*
X76117Y52160D01*
X76770Y55445D01*
Y55645D01*
X76809Y55842D01*
Y59191D01*
X76770Y59388D01*
Y59589D01*
X76117Y62873D01*
X76040Y63059D01*
X76001Y63256D01*
X74719Y66350D01*
X74608Y66517D01*
X74531Y66702D01*
X72670Y69487D01*
X72528Y69629D01*
X72417Y69796D01*
X70049Y72164D01*
X69882Y72275D01*
X69740Y72417D01*
X66955Y74278D01*
X66770Y74354D01*
X66603Y74466D01*
X63509Y75747D01*
X63312Y75787D01*
X63127Y75863D01*
X59842Y76517D01*
X59641D01*
X59444Y76556D01*
D02*
G37*
G36*
X122640Y51520D02*
X105410D01*
Y34290D01*
X122640D01*
Y51520D01*
D02*
G37*
G36*
X102870D02*
X85640D01*
Y34290D01*
X102870D01*
Y51520D01*
D02*
G37*
G36*
X338540Y50250D02*
X321310D01*
Y33020D01*
X338540D01*
Y50250D01*
D02*
G37*
G36*
X318770D02*
X301540D01*
Y33020D01*
X318770D01*
Y50250D01*
D02*
G37*
G36*
X295910Y32389D02*
Y31750D01*
X296549D01*
X296547Y31755D01*
X295914Y32387D01*
X295910Y32389D01*
D02*
G37*
G36*
X293370D02*
X293365Y32387D01*
X292733Y31755D01*
X292731Y31750D01*
X293370D01*
Y32389D01*
D02*
G37*
G36*
X248920Y182696D02*
X238380D01*
X236993Y182420D01*
X235816Y181634D01*
X235816Y181634D01*
X232386Y178204D01*
X231600Y177027D01*
X231324Y175640D01*
X231324Y175640D01*
Y82782D01*
X178317Y29774D01*
X176946D01*
X176137Y30315D01*
X174180Y30704D01*
X166180D01*
X164223Y30315D01*
X162564Y29206D01*
X161455Y27547D01*
X161066Y25590D01*
Y17590D01*
X161455Y15633D01*
X162564Y13974D01*
X164223Y12865D01*
X166180Y12476D01*
X174180D01*
X176137Y12865D01*
X177796Y13974D01*
X178905Y15633D01*
X179294Y17590D01*
Y21744D01*
X179819Y22523D01*
X181206Y22799D01*
X182383Y23585D01*
X237514Y78716D01*
X237514Y78716D01*
X238300Y79893D01*
X238576Y81280D01*
X238576Y81280D01*
Y174138D01*
X239882Y175444D01*
X248920D01*
X249451Y175550D01*
X249620D01*
X249776Y175615D01*
X250308Y175720D01*
X250758Y176021D01*
X250914Y176086D01*
X251033Y176205D01*
X251484Y176506D01*
X251785Y176957D01*
X251904Y177076D01*
X251969Y177232D01*
X252270Y177682D01*
X252375Y178214D01*
X252440Y178370D01*
Y178539D01*
X252546Y179070D01*
X252440Y179601D01*
Y179770D01*
X252375Y179926D01*
X252270Y180457D01*
X251969Y180908D01*
X251904Y181064D01*
X251785Y181183D01*
X251484Y181634D01*
X251033Y181935D01*
X250914Y182054D01*
X250758Y182119D01*
X250308Y182420D01*
X249776Y182525D01*
X249620Y182590D01*
X249451D01*
X248920Y182696D01*
D02*
G37*
G36*
X296549Y29210D02*
X295910D01*
Y28571D01*
X295914Y28573D01*
X296547Y29206D01*
X296549Y29210D01*
D02*
G37*
G36*
X293370D02*
X292731D01*
X292733Y29206D01*
X293365Y28573D01*
X293370Y28571D01*
Y29210D01*
D02*
G37*
G36*
X368300Y28579D02*
Y27940D01*
X368939D01*
X368937Y27945D01*
X368304Y28577D01*
X368300Y28579D01*
D02*
G37*
G36*
X365760D02*
X365756Y28577D01*
X365123Y27945D01*
X365121Y27940D01*
X365760D01*
Y28579D01*
D02*
G37*
G36*
X353060D02*
Y27940D01*
X353699D01*
X353697Y27945D01*
X353064Y28577D01*
X353060Y28579D01*
D02*
G37*
G36*
X350520D02*
X350516Y28577D01*
X349883Y27945D01*
X349881Y27940D01*
X350520D01*
Y28579D01*
D02*
G37*
G36*
X368939Y25400D02*
X368300D01*
Y24761D01*
X368304Y24763D01*
X368937Y25396D01*
X368939Y25400D01*
D02*
G37*
G36*
X365760D02*
X365121D01*
X365123Y25396D01*
X365756Y24763D01*
X365760Y24761D01*
Y25400D01*
D02*
G37*
G36*
X353699D02*
X353060D01*
Y24761D01*
X353064Y24763D01*
X353697Y25396D01*
X353699Y25400D01*
D02*
G37*
G36*
X350520D02*
X349881D01*
X349883Y25396D01*
X350516Y24763D01*
X350520Y24761D01*
Y25400D01*
D02*
G37*
G36*
X353060Y18419D02*
Y17780D01*
X353699D01*
X353697Y17785D01*
X353064Y18417D01*
X353060Y18419D01*
D02*
G37*
G36*
X350520D02*
X350516Y18417D01*
X349883Y17785D01*
X349881Y17780D01*
X350520D01*
Y18419D01*
D02*
G37*
G36*
X353699Y15240D02*
X353060D01*
Y14601D01*
X353064Y14603D01*
X353697Y15236D01*
X353699Y15240D01*
D02*
G37*
G36*
X350520D02*
X349881D01*
X349883Y15236D01*
X350516Y14603D01*
X350520Y14601D01*
Y15240D01*
D02*
G37*
G36*
X122640Y31750D02*
X105410D01*
Y14520D01*
X122640D01*
Y31750D01*
D02*
G37*
G36*
X102870D02*
X85640D01*
Y14520D01*
X102870D01*
Y31750D01*
D02*
G37*
G36*
X338540Y30480D02*
X321310D01*
Y13250D01*
X338540D01*
Y30480D01*
D02*
G37*
G36*
X318770D02*
X301540D01*
Y13250D01*
X318770D01*
Y30480D01*
D02*
G37*
%LPD*%
G36*
X386341Y224935D02*
X387706Y223156D01*
X387836Y223057D01*
X387491Y222041D01*
X348945D01*
X345103Y225883D01*
X345524Y226899D01*
X385528D01*
X386341Y224935D01*
D02*
G37*
G36*
X219710Y133350D02*
Y114300D01*
X215900Y110490D01*
X59690D01*
X53340Y104140D01*
X54610Y102870D01*
Y85090D01*
X50800Y81280D01*
X12700D01*
X11430Y82550D01*
Y83582D01*
X12446Y84370D01*
X29210D01*
Y102870D01*
Y121370D01*
X12446D01*
X11980Y121370D01*
X11430Y122158D01*
Y129540D01*
X19050Y137160D01*
X215900D01*
X219710Y133350D01*
D02*
G37*
%LPC*%
G36*
X213360Y132719D02*
Y132080D01*
X213999D01*
X213997Y132085D01*
X213364Y132717D01*
X213360Y132719D01*
D02*
G37*
G36*
X210820D02*
X210816Y132717D01*
X210182Y132085D01*
X210181Y132080D01*
X210820D01*
Y132719D01*
D02*
G37*
G36*
X204047D02*
Y132080D01*
X204686D01*
X204684Y132085D01*
X204051Y132717D01*
X204047Y132719D01*
D02*
G37*
G36*
X201507D02*
X201502Y132717D01*
X200869Y132085D01*
X200867Y132080D01*
X201507D01*
Y132719D01*
D02*
G37*
G36*
X194733D02*
Y132080D01*
X195373D01*
X195371Y132085D01*
X194738Y132717D01*
X194733Y132719D01*
D02*
G37*
G36*
X192193D02*
X192189Y132717D01*
X191556Y132085D01*
X191554Y132080D01*
X192193D01*
Y132719D01*
D02*
G37*
G36*
X185420D02*
Y132080D01*
X186059D01*
X186057Y132085D01*
X185424Y132717D01*
X185420Y132719D01*
D02*
G37*
G36*
X182880D02*
X182875Y132717D01*
X182243Y132085D01*
X182241Y132080D01*
X182880D01*
Y132719D01*
D02*
G37*
G36*
X213999Y129540D02*
X213360D01*
Y128901D01*
X213364Y128903D01*
X213997Y129536D01*
X213999Y129540D01*
D02*
G37*
G36*
X210820D02*
X210181D01*
X210182Y129536D01*
X210816Y128903D01*
X210820Y128901D01*
Y129540D01*
D02*
G37*
G36*
X204686D02*
X204047D01*
Y128901D01*
X204051Y128903D01*
X204684Y129536D01*
X204686Y129540D01*
D02*
G37*
G36*
X201507D02*
X200867D01*
X200869Y129536D01*
X201502Y128903D01*
X201507Y128901D01*
Y129540D01*
D02*
G37*
G36*
X195373D02*
X194733D01*
Y128901D01*
X194738Y128903D01*
X195371Y129536D01*
X195373Y129540D01*
D02*
G37*
G36*
X192193D02*
X191554D01*
X191556Y129536D01*
X192189Y128903D01*
X192193Y128901D01*
Y129540D01*
D02*
G37*
G36*
X186059D02*
X185420D01*
Y128901D01*
X185424Y128903D01*
X186057Y129536D01*
X186059Y129540D01*
D02*
G37*
G36*
X182880D02*
X182241D01*
X182243Y129536D01*
X182875Y128903D01*
X182880Y128901D01*
Y129540D01*
D02*
G37*
G36*
X213360Y125099D02*
Y124460D01*
X213999D01*
X213997Y124465D01*
X213364Y125097D01*
X213360Y125099D01*
D02*
G37*
G36*
X210820D02*
X210816Y125097D01*
X210182Y124465D01*
X210181Y124460D01*
X210820D01*
Y125099D01*
D02*
G37*
G36*
X204047D02*
Y124460D01*
X204686D01*
X204684Y124465D01*
X204051Y125097D01*
X204047Y125099D01*
D02*
G37*
G36*
X201507D02*
X201502Y125097D01*
X200869Y124465D01*
X200867Y124460D01*
X201507D01*
Y125099D01*
D02*
G37*
G36*
X194733D02*
Y124460D01*
X195373D01*
X195371Y124465D01*
X194738Y125097D01*
X194733Y125099D01*
D02*
G37*
G36*
X192193D02*
X192189Y125097D01*
X191556Y124465D01*
X191554Y124460D01*
X192193D01*
Y125099D01*
D02*
G37*
G36*
X185420D02*
Y124460D01*
X186059D01*
X186057Y124465D01*
X185424Y125097D01*
X185420Y125099D01*
D02*
G37*
G36*
X182880D02*
X182875Y125097D01*
X182243Y124465D01*
X182241Y124460D01*
X182880D01*
Y125099D01*
D02*
G37*
G36*
X213999Y121920D02*
X213360D01*
Y121281D01*
X213364Y121283D01*
X213997Y121916D01*
X213999Y121920D01*
D02*
G37*
G36*
X210820D02*
X210181D01*
X210182Y121916D01*
X210816Y121283D01*
X210820Y121281D01*
Y121920D01*
D02*
G37*
G36*
X204686D02*
X204047D01*
Y121281D01*
X204051Y121283D01*
X204684Y121916D01*
X204686Y121920D01*
D02*
G37*
G36*
X201507D02*
X200867D01*
X200869Y121916D01*
X201502Y121283D01*
X201507Y121281D01*
Y121920D01*
D02*
G37*
G36*
X195373D02*
X194733D01*
Y121281D01*
X194738Y121283D01*
X195371Y121916D01*
X195373Y121920D01*
D02*
G37*
G36*
X192193D02*
X191554D01*
X191556Y121916D01*
X192189Y121283D01*
X192193Y121281D01*
Y121920D01*
D02*
G37*
G36*
X186059D02*
X185420D01*
Y121281D01*
X185424Y121283D01*
X186057Y121916D01*
X186059Y121920D01*
D02*
G37*
G36*
X182880D02*
X182241D01*
X182243Y121916D01*
X182875Y121283D01*
X182880Y121281D01*
Y121920D01*
D02*
G37*
G36*
X213360Y117479D02*
Y116840D01*
X213999D01*
X213997Y116845D01*
X213364Y117477D01*
X213360Y117479D01*
D02*
G37*
G36*
X210820D02*
X210816Y117477D01*
X210182Y116845D01*
X210181Y116840D01*
X210820D01*
Y117479D01*
D02*
G37*
G36*
X204047D02*
Y116840D01*
X204686D01*
X204684Y116845D01*
X204051Y117477D01*
X204047Y117479D01*
D02*
G37*
G36*
X201507D02*
X201502Y117477D01*
X200869Y116845D01*
X200867Y116840D01*
X201507D01*
Y117479D01*
D02*
G37*
G36*
X194733D02*
Y116840D01*
X195373D01*
X195371Y116845D01*
X194738Y117477D01*
X194733Y117479D01*
D02*
G37*
G36*
X192193D02*
X192189Y117477D01*
X191556Y116845D01*
X191554Y116840D01*
X192193D01*
Y117479D01*
D02*
G37*
G36*
X185420D02*
Y116840D01*
X186059D01*
X186057Y116845D01*
X185424Y117477D01*
X185420Y117479D01*
D02*
G37*
G36*
X182880D02*
X182875Y117477D01*
X182243Y116845D01*
X182241Y116840D01*
X182880D01*
Y117479D01*
D02*
G37*
G36*
X213999Y114300D02*
X213360D01*
Y113661D01*
X213364Y113663D01*
X213997Y114296D01*
X213999Y114300D01*
D02*
G37*
G36*
X210820D02*
X210181D01*
X210182Y114296D01*
X210816Y113663D01*
X210820Y113661D01*
Y114300D01*
D02*
G37*
G36*
X204686D02*
X204047D01*
Y113661D01*
X204051Y113663D01*
X204684Y114296D01*
X204686Y114300D01*
D02*
G37*
G36*
X201507D02*
X200867D01*
X200869Y114296D01*
X201502Y113663D01*
X201507Y113661D01*
Y114300D01*
D02*
G37*
G36*
X195373D02*
X194733D01*
Y113661D01*
X194738Y113663D01*
X195371Y114296D01*
X195373Y114300D01*
D02*
G37*
G36*
X192193D02*
X191554D01*
X191556Y114296D01*
X192189Y113663D01*
X192193Y113661D01*
Y114300D01*
D02*
G37*
G36*
X186059D02*
X185420D01*
Y113661D01*
X185424Y113663D01*
X186057Y114296D01*
X186059Y114300D01*
D02*
G37*
G36*
X182880D02*
X182241D01*
X182243Y114296D01*
X182875Y113663D01*
X182880Y113661D01*
Y114300D01*
D02*
G37*
G36*
X31750Y121370D02*
Y104140D01*
X48980D01*
Y121370D01*
X31750D01*
D02*
G37*
G36*
X48980Y101600D02*
X31750D01*
Y84370D01*
X48980D01*
Y101600D01*
D02*
G37*
%LPD*%
D91*
X320040Y31750D02*
D03*
X392430Y104140D02*
D03*
X104140Y33020D02*
D03*
X30480Y102870D02*
D03*
D92*
X266700Y139700D02*
X278130Y151130D01*
Y160020D01*
X246816Y139700D02*
X266700D01*
X243840Y136724D02*
X246816Y139700D01*
X243840Y72390D02*
Y136724D01*
X234950Y175640D02*
X238380Y179070D01*
X234950Y81280D02*
Y175640D01*
X179819Y26149D02*
X234950Y81280D01*
X238380Y179070D02*
X248920D01*
X195580Y24130D02*
X243840Y72390D01*
X174739Y26149D02*
X179819D01*
X170180Y21590D02*
X174739Y26149D01*
X195580Y21590D02*
Y24130D01*
X234950Y52339D02*
X251460Y68849D01*
X234950Y35560D02*
Y52339D01*
X251460Y68849D02*
Y97790D01*
X220980Y21590D02*
X234950Y35560D01*
X339090Y180340D02*
Y213360D01*
Y180340D02*
X363220Y156210D01*
X218730Y261910D02*
X259050D01*
X209550Y252730D02*
X218730Y261910D01*
X291120Y266410D02*
X306070Y251460D01*
X259050Y261910D02*
X263550Y266410D01*
X291120D01*
X209550Y236220D02*
Y252730D01*
Y236220D02*
X222250Y223520D01*
X363220Y129540D02*
Y156210D01*
X322580Y179070D02*
X340360Y161290D01*
Y83820D02*
Y161290D01*
X320040Y63500D02*
X340360Y83820D01*
X281940Y105410D02*
X290830Y114300D01*
X288290Y160020D02*
X290830Y157480D01*
Y114300D02*
Y157480D01*
X246380Y21590D02*
Y45720D01*
X264160Y63500D01*
X320040D01*
X251460Y97790D02*
X259080Y105410D01*
X281940D01*
X317500Y179070D02*
X322580D01*
X295910Y374650D02*
X303530D01*
X295910Y383540D02*
X303530D01*
X284480Y368300D02*
X290830Y374650D01*
X295910D01*
X265430Y383540D02*
X295910D01*
X256540Y374650D02*
X265430Y383540D01*
X256540Y337820D02*
Y374650D01*
D93*
X332740Y249470D02*
X398540D01*
X300270Y281940D02*
X332740Y249470D01*
X129540Y281940D02*
X300270D01*
X344810Y229230D02*
X398780D01*
X296200Y277840D02*
X344810Y229230D01*
X127000Y164120D02*
X134910Y156210D01*
X176470D01*
X185420Y165160D01*
X215900D01*
X78026Y164120D02*
X127000D01*
X67310Y174836D02*
X78026Y164120D01*
X67310Y174836D02*
Y214207D01*
X78450Y225347D01*
Y247784D02*
X88645Y257980D01*
X78450Y225347D02*
Y247784D01*
X88645Y257980D02*
X92879D01*
X99060Y264160D01*
X80010Y217170D02*
X100330D01*
X123190Y240030D01*
X130810Y257810D02*
X146050Y273050D01*
X130810Y212090D02*
Y257810D01*
X146050Y273050D02*
X152400D01*
X123190Y259517D02*
X140823Y277150D01*
X123190Y240030D02*
Y259517D01*
X142043Y277840D02*
X296200D01*
X140823Y277150D02*
X141353D01*
X142043Y277840D01*
X152930Y273050D02*
X153910Y274030D01*
X152400Y273050D02*
X152930D01*
X153910Y274030D02*
X293660D01*
X130810Y285750D02*
X332210D01*
X115570Y312420D02*
X137160Y290830D01*
X166370D01*
X121872Y311198D02*
X137160Y295910D01*
X175260D01*
X194918Y247115D02*
Y253836D01*
X194310Y246507D02*
X194918Y247115D01*
X45258Y249710D02*
X88918Y293370D01*
X118110D01*
X129540Y281940D01*
X76200Y297180D02*
X119380D01*
X51114Y272094D02*
X76200Y297180D01*
X110677Y305882D02*
X119380Y297180D01*
X67310Y327660D02*
X90647D01*
X105887Y312420D01*
X175260Y295910D02*
X180340Y300990D01*
X133350Y314960D02*
Y402590D01*
Y314960D02*
X139700Y308610D01*
Y301014D02*
Y308610D01*
X146050Y306034D02*
Y392430D01*
Y306034D02*
X147538Y304546D01*
X153416D01*
X153670Y304800D01*
X132080Y403860D02*
X133350Y402590D01*
X121872Y311198D02*
Y312892D01*
X121497Y313267D02*
X121872Y312892D01*
X49530Y312420D02*
Y334010D01*
X101739Y330741D02*
X110677Y321802D01*
Y305882D02*
Y321802D01*
X115570Y312420D02*
Y336550D01*
X110490Y341630D02*
X115570Y336550D01*
X57150Y341630D02*
X110490D01*
X49530Y334010D02*
X57150Y341630D01*
X38100Y249710D02*
X45258D01*
X40484Y272094D02*
X51114D01*
X38100Y269710D02*
X40484Y272094D01*
X119380Y297180D02*
X130810Y285750D01*
X293660Y274030D02*
X347980Y219710D01*
X283585Y255475D02*
X296490Y242570D01*
X283210Y260350D02*
X283585Y259975D01*
X296490Y242570D02*
X312420D01*
X283585Y255475D02*
Y259975D01*
X312420Y242570D02*
X312795Y242195D01*
X265430Y260350D02*
X283210D01*
X315335Y242195D02*
X332740Y224790D01*
X312795Y242195D02*
X315335D01*
X248920Y243840D02*
X265430Y260350D01*
X347980Y219710D02*
X388300D01*
X220980Y251036D02*
X248920Y223096D01*
X220980Y251036D02*
Y251460D01*
X194310Y214630D02*
Y246507D01*
X397152Y209230D02*
X398780D01*
X391396Y214986D02*
X397152Y209230D01*
X388300Y219710D02*
X391396Y216614D01*
Y214986D02*
Y216614D01*
X119380Y200660D02*
X130810Y212090D01*
X80010Y168910D02*
X111760D01*
X119380Y176530D01*
Y200660D01*
X332210Y285750D02*
X347450Y270510D01*
X347980D01*
X256540Y312638D02*
Y337820D01*
X236220Y308610D02*
X252512D01*
X256540Y312638D01*
X232410Y312420D02*
X236220Y308610D01*
X232410Y312420D02*
Y321310D01*
X248920Y189230D02*
Y223096D01*
X347980Y270220D02*
X397790D01*
X203200Y205740D02*
X234950D01*
X194310Y214630D02*
X203200Y205740D01*
X397790Y270220D02*
X398780Y269230D01*
X398540Y249470D02*
X398780Y249230D01*
X146050Y392430D02*
X157480Y403860D01*
X267075Y361055D02*
X274320Y368300D01*
X267075Y338195D02*
Y361055D01*
D95*
X392430Y104140D02*
D03*
X195580Y21590D02*
D03*
X220980D02*
D03*
X246380D02*
D03*
X320040Y31750D02*
D03*
X30480Y102870D02*
D03*
X104140Y33020D02*
D03*
X157480Y403860D02*
D03*
X132080D02*
D03*
X106680D02*
D03*
D96*
X170180Y21590D02*
D03*
X182880Y403860D02*
D03*
D97*
X398780Y169230D02*
D03*
Y249230D02*
D03*
Y229230D02*
D03*
Y209230D02*
D03*
Y269230D02*
D03*
Y189230D02*
D03*
X38100Y189710D02*
D03*
Y269710D02*
D03*
Y209710D02*
D03*
Y229710D02*
D03*
Y249710D02*
D03*
Y169710D02*
D03*
D98*
X228400Y350360D02*
D03*
X314800D02*
D03*
D99*
X228600Y403860D02*
D03*
X315000D02*
D03*
D100*
X184150Y123190D02*
D03*
X193463D02*
D03*
X184150Y130810D02*
D03*
Y115570D02*
D03*
X212090Y130810D02*
D03*
Y115570D02*
D03*
Y123190D02*
D03*
X227620Y160020D02*
D03*
X193463Y115570D02*
D03*
X202777Y130810D02*
D03*
X175260Y256540D02*
D03*
X250190Y148590D02*
D03*
X248920Y179070D02*
D03*
X154940Y342900D02*
D03*
X241300Y367030D02*
D03*
X199390Y381000D02*
D03*
X215900Y165160D02*
D03*
X80010Y217170D02*
D03*
X73660Y228600D02*
D03*
X121920Y219710D02*
D03*
X162560Y248920D02*
D03*
X140823Y277150D02*
D03*
X152400Y273050D02*
D03*
X231140Y292100D02*
D03*
X255901Y269240D02*
D03*
X194918Y253836D02*
D03*
X246380Y234950D02*
D03*
X101600Y287020D02*
D03*
X92710D02*
D03*
X67310Y327660D02*
D03*
X105887Y312420D02*
D03*
X180340Y300990D02*
D03*
X139700Y301014D02*
D03*
X121497Y313267D02*
D03*
X306070Y326390D02*
D03*
X87630Y250190D02*
D03*
X49530Y312420D02*
D03*
X165100Y96520D02*
D03*
X38100Y312420D02*
D03*
X110629Y330741D02*
D03*
X101739D02*
D03*
X72390Y276860D02*
D03*
X166370Y290830D02*
D03*
X306070Y251460D02*
D03*
X283210Y260350D02*
D03*
X312420Y242570D02*
D03*
X220980Y251460D02*
D03*
X180340Y248920D02*
D03*
X332740Y224790D02*
D03*
X259080Y243840D02*
D03*
X222250Y223520D02*
D03*
X309880Y224790D02*
D03*
X271780Y184150D02*
D03*
X363220Y129540D02*
D03*
X350520Y157480D02*
D03*
X339090Y213360D02*
D03*
X248920Y243840D02*
D03*
X234950D02*
D03*
X202777Y115570D02*
D03*
Y123190D02*
D03*
X193463Y130810D02*
D03*
X326390Y148590D02*
D03*
X116840Y143510D02*
D03*
X66040Y151130D02*
D03*
X80010Y168910D02*
D03*
X153670Y304800D02*
D03*
X271780Y55880D02*
D03*
X284480Y72390D02*
D03*
X274320Y299720D02*
D03*
X134620Y194310D02*
D03*
X99060Y264160D02*
D03*
X180340Y176530D02*
D03*
X185420Y208280D02*
D03*
X203200Y182880D02*
D03*
X389890Y323850D02*
D03*
X232410Y321310D02*
D03*
X294640Y184150D02*
D03*
X283210D02*
D03*
X294640Y194310D02*
D03*
X283210D02*
D03*
X271780D02*
D03*
X294640Y205740D02*
D03*
X283210D02*
D03*
X271780D02*
D03*
X248920Y189230D02*
D03*
X278130Y160020D02*
D03*
X288290D02*
D03*
X259080Y87630D02*
D03*
Y72390D02*
D03*
X317500Y179070D02*
D03*
X284480Y87630D02*
D03*
X317500Y189230D02*
D03*
X271780Y72390D02*
D03*
X294640Y55880D02*
D03*
X271780Y87630D02*
D03*
X379730Y135890D02*
D03*
X234950Y205740D02*
D03*
X351790Y16510D02*
D03*
X294640Y43180D02*
D03*
Y30480D02*
D03*
X284480Y55880D02*
D03*
Y43180D02*
D03*
X367030Y26670D02*
D03*
X351790D02*
D03*
X323850Y327660D02*
D03*
X330200Y300990D02*
D03*
X322580Y311150D02*
D03*
X284480Y309880D02*
D03*
X303530Y374650D02*
D03*
X295910D02*
D03*
Y383540D02*
D03*
X303530D02*
D03*
X284480Y368300D02*
D03*
X256540Y337820D02*
D03*
X274320Y368300D02*
D03*
X267075Y338195D02*
D03*
X269240Y321310D02*
D03*
X139700Y208280D02*
D03*
D107*
X180340Y248920D02*
X200660Y269240D01*
X162560Y248920D02*
X180340D01*
X200660Y269240D02*
X255901D01*
M02*
