G04*
G04 #@! TF.GenerationSoftware,Altium Limited,Altium Designer,24.8.2 (39)*
G04*
G04 Layer_Color=8388736*
%FSLAX44Y44*%
%MOMM*%
G71*
G04*
G04 #@! TF.SameCoordinates,C7BC70F5-E38B-40BF-8CF6-97473964AE68*
G04*
G04*
G04 #@! TF.FilePolarity,Negative*
G04*
G01*
G75*
%ADD39R,2.4384X1.6510*%
%ADD40R,0.3048X0.7620*%
%ADD46R,0.9000X1.0000*%
%ADD47R,1.7000X0.5500*%
%ADD53R,0.9900X0.3000*%
%ADD54R,0.7500X0.6500*%
%ADD55R,0.7500X0.7900*%
%ADD56R,0.9000X0.7500*%
%ADD57R,3.8500X3.8500*%
G04:AMPARAMS|DCode=58|XSize=0.96mm|YSize=0.42mm|CornerRadius=0.1088mm|HoleSize=0mm|Usage=FLASHONLY|Rotation=180.000|XOffset=0mm|YOffset=0mm|HoleType=Round|Shape=RoundedRectangle|*
%AMROUNDEDRECTD58*
21,1,0.9600,0.2025,0,0,180.0*
21,1,0.7425,0.4200,0,0,180.0*
1,1,0.2175,-0.3713,0.1013*
1,1,0.2175,0.3713,0.1013*
1,1,0.2175,0.3713,-0.1013*
1,1,0.2175,-0.3713,-0.1013*
%
%ADD58ROUNDEDRECTD58*%
G04:AMPARAMS|DCode=59|XSize=0.42mm|YSize=0.96mm|CornerRadius=0.1088mm|HoleSize=0mm|Usage=FLASHONLY|Rotation=180.000|XOffset=0mm|YOffset=0mm|HoleType=Round|Shape=RoundedRectangle|*
%AMROUNDEDRECTD59*
21,1,0.4200,0.7425,0,0,180.0*
21,1,0.2025,0.9600,0,0,180.0*
1,1,0.2175,-0.1013,0.3713*
1,1,0.2175,0.1013,0.3713*
1,1,0.2175,0.1013,-0.3713*
1,1,0.2175,-0.1013,-0.3713*
%
%ADD59ROUNDEDRECTD59*%
%ADD60R,1.7500X1.7500*%
%ADD61R,1.7500X1.2500*%
%ADD62O,0.4000X1.7000*%
%ADD63O,1.7000X0.4000*%
%ADD64R,0.7900X0.7500*%
%ADD65R,0.6500X0.7500*%
%ADD66R,0.9500X0.9500*%
%ADD67R,0.7500X0.9000*%
%ADD68R,1.3500X1.1500*%
%ADD69R,0.7750X0.9800*%
%ADD70R,1.0000X1.1000*%
%ADD71R,3.3500X1.7500*%
%ADD72R,1.3000X1.5000*%
%ADD73R,1.5000X1.3000*%
%ADD74R,1.1500X1.0500*%
%ADD75P,1.9092X4X180.0*%
%ADD76P,1.9092X4X90.0*%
%ADD77R,1.0500X0.7500*%
%ADD78R,2.1500X0.9500*%
%ADD79R,1.3500X0.7500*%
%ADD80R,1.5500X1.3500*%
%ADD81R,0.4500X0.8500*%
%ADD82R,1.1500X0.8500*%
%ADD83R,1.0500X1.1500*%
%ADD84R,0.6500X0.5500*%
%ADD85C,1.7500*%
G04:AMPARAMS|DCode=86|XSize=1.75mm|YSize=1.75mm|CornerRadius=0.475mm|HoleSize=0mm|Usage=FLASHONLY|Rotation=0.000|XOffset=0mm|YOffset=0mm|HoleType=Round|Shape=RoundedRectangle|*
%AMROUNDEDRECTD86*
21,1,1.7500,0.8000,0,0,0.0*
21,1,0.8000,1.7500,0,0,0.0*
1,1,0.9500,0.4000,-0.4000*
1,1,0.9500,-0.4000,-0.4000*
1,1,0.9500,-0.4000,0.4000*
1,1,0.9500,0.4000,0.4000*
%
%ADD86ROUNDEDRECTD86*%
%ADD87O,2.6500X1.6500*%
%ADD88O,1.2500X2.2500*%
%ADD89O,1.2500X2.7500*%
%ADD90C,0.6000*%
D39*
X95250Y289560D02*
D03*
D40*
X85500Y304292D02*
D03*
X92000D02*
D03*
X98500D02*
D03*
X105000D02*
D03*
Y274828D02*
D03*
X98500D02*
D03*
X92000D02*
D03*
X85500D02*
D03*
D46*
X58600Y312040D02*
D03*
Y328040D02*
D03*
X17600D02*
D03*
Y312040D02*
D03*
D47*
X38100Y305790D02*
D03*
D53*
X242140Y316310D02*
D03*
Y321310D02*
D03*
Y326310D02*
D03*
X258240D02*
D03*
Y321310D02*
D03*
Y316310D02*
D03*
D54*
X208280Y370920D02*
D03*
Y380920D02*
D03*
X252730Y278210D02*
D03*
Y288210D02*
D03*
X165100Y133430D02*
D03*
Y143430D02*
D03*
X143510Y361950D02*
D03*
Y351950D02*
D03*
X111760Y361790D02*
D03*
Y351790D02*
D03*
D55*
X110539Y321851D02*
D03*
X101739D02*
D03*
X389300Y135890D02*
D03*
X398100D02*
D03*
X147910Y332740D02*
D03*
X139110D02*
D03*
X85770Y158750D02*
D03*
X94570D02*
D03*
X352380Y303530D02*
D03*
X343580D02*
D03*
X186010Y219710D02*
D03*
X177210D02*
D03*
X130900D02*
D03*
X139700D02*
D03*
X245700Y160020D02*
D03*
X236900D02*
D03*
X299130Y232410D02*
D03*
X307930D02*
D03*
X320040Y168910D02*
D03*
X328840D02*
D03*
X321990Y213360D02*
D03*
X330790D02*
D03*
X296590Y303530D02*
D03*
X305390D02*
D03*
X168320Y208280D02*
D03*
X177120D02*
D03*
X148000D02*
D03*
X156800D02*
D03*
X352380Y317500D02*
D03*
X343580D02*
D03*
X333420Y330200D02*
D03*
X342220D02*
D03*
X89490Y320040D02*
D03*
X80690D02*
D03*
X234270Y236220D02*
D03*
X225470D02*
D03*
D56*
X210820Y213360D02*
D03*
X222320D02*
D03*
D57*
X283210Y194310D02*
D03*
X392430Y104140D02*
D03*
X104140Y33020D02*
D03*
X320040Y31750D02*
D03*
X30480Y102870D02*
D03*
D58*
X258710Y179310D02*
D03*
Y184310D02*
D03*
Y189310D02*
D03*
Y194310D02*
D03*
Y199310D02*
D03*
Y204310D02*
D03*
Y209310D02*
D03*
X307710D02*
D03*
Y204310D02*
D03*
Y199310D02*
D03*
Y194310D02*
D03*
Y189310D02*
D03*
Y184310D02*
D03*
Y179310D02*
D03*
D59*
X298210Y169810D02*
D03*
X293210D02*
D03*
X288210D02*
D03*
X283210D02*
D03*
X278210D02*
D03*
X273210D02*
D03*
X268210D02*
D03*
Y218810D02*
D03*
X273210D02*
D03*
X278210D02*
D03*
X283210D02*
D03*
X288210D02*
D03*
X293210D02*
D03*
X298210D02*
D03*
D60*
X230400Y185420D02*
D03*
D61*
X201400Y173920D02*
D03*
Y196920D02*
D03*
D62*
X140140Y235340D02*
D03*
X145140D02*
D03*
X150140D02*
D03*
X155140D02*
D03*
X160140D02*
D03*
X165140D02*
D03*
X170140D02*
D03*
X175140D02*
D03*
X180140D02*
D03*
X185140D02*
D03*
X190140D02*
D03*
X195140D02*
D03*
Y315840D02*
D03*
X190140D02*
D03*
X185140D02*
D03*
X180140D02*
D03*
X175140D02*
D03*
X170140D02*
D03*
X165140D02*
D03*
X160140D02*
D03*
X155140D02*
D03*
X150140D02*
D03*
X145140D02*
D03*
X140140D02*
D03*
D63*
X207890Y248090D02*
D03*
Y253090D02*
D03*
Y258090D02*
D03*
Y263090D02*
D03*
Y268090D02*
D03*
Y273090D02*
D03*
Y278090D02*
D03*
Y283090D02*
D03*
Y288090D02*
D03*
Y293090D02*
D03*
Y298090D02*
D03*
Y303090D02*
D03*
X127390D02*
D03*
Y298090D02*
D03*
Y293090D02*
D03*
Y288090D02*
D03*
Y283090D02*
D03*
Y278090D02*
D03*
Y273090D02*
D03*
Y268090D02*
D03*
Y263090D02*
D03*
Y258090D02*
D03*
Y253090D02*
D03*
Y248090D02*
D03*
D64*
X328930Y201250D02*
D03*
Y192450D02*
D03*
X111760Y243250D02*
D03*
Y252050D02*
D03*
X246380Y214040D02*
D03*
Y222840D02*
D03*
X223520Y294050D02*
D03*
Y302850D02*
D03*
X148590Y93890D02*
D03*
Y85090D02*
D03*
X332740Y341040D02*
D03*
Y349840D02*
D03*
D65*
X297100Y326390D02*
D03*
X287100D02*
D03*
D66*
X128270Y353180D02*
D03*
Y368180D02*
D03*
X96520Y353180D02*
D03*
Y368180D02*
D03*
D67*
X73660Y239360D02*
D03*
Y250860D02*
D03*
X165100Y107880D02*
D03*
Y119380D02*
D03*
X347980Y199320D02*
D03*
Y210820D02*
D03*
X267970Y244510D02*
D03*
Y233010D02*
D03*
X321310Y241970D02*
D03*
Y230470D02*
D03*
D68*
X350520Y148430D02*
D03*
Y128430D02*
D03*
X138430Y53180D02*
D03*
Y33180D02*
D03*
X104800Y121260D02*
D03*
Y141260D02*
D03*
X69850Y120810D02*
D03*
Y140810D02*
D03*
D69*
X204165Y152400D02*
D03*
X181915D02*
D03*
D70*
X376890Y311150D02*
D03*
X389890D02*
D03*
X79860Y180340D02*
D03*
X92860D02*
D03*
X79860Y205740D02*
D03*
X92860D02*
D03*
D71*
X270910Y101600D02*
D03*
X320910D02*
D03*
D72*
X280530Y148590D02*
D03*
X263030D02*
D03*
X314680D02*
D03*
X297180D02*
D03*
D73*
X347980Y261480D02*
D03*
Y243980D02*
D03*
D74*
X97790Y237090D02*
D03*
Y250590D02*
D03*
D75*
X403812Y43132D02*
D03*
X43132Y21638D02*
D03*
D76*
X383588Y22908D02*
D03*
X22908Y41862D02*
D03*
D77*
X313720Y279400D02*
D03*
X285720Y269900D02*
D03*
Y288900D02*
D03*
D78*
X124460Y91280D02*
D03*
Y71280D02*
D03*
D79*
X123850Y109880D02*
D03*
X123850Y119380D02*
D03*
X123850Y128880D02*
D03*
X148850D02*
D03*
X148850Y119380D02*
D03*
X148850Y109880D02*
D03*
D80*
X146480Y176920D02*
D03*
X168480D02*
D03*
Y193920D02*
D03*
X146480D02*
D03*
D81*
X296600Y346260D02*
D03*
X291600D02*
D03*
X286600D02*
D03*
X281600D02*
D03*
X276600D02*
D03*
X301600D02*
D03*
X261600D02*
D03*
X256600D02*
D03*
X251600D02*
D03*
X246600D02*
D03*
X241600D02*
D03*
X266600D02*
D03*
X249100Y359260D02*
D03*
X254100D02*
D03*
X259100D02*
D03*
X264100D02*
D03*
X269100D02*
D03*
X279100D02*
D03*
X284100D02*
D03*
X289100D02*
D03*
X294100D02*
D03*
X274100D02*
D03*
D82*
X240600Y359360D02*
D03*
X302600Y359260D02*
D03*
D83*
X102000Y73660D02*
D03*
X88500D02*
D03*
D84*
X273050Y284670D02*
D03*
Y276670D02*
D03*
X326390Y289750D02*
D03*
Y281750D02*
D03*
D85*
X392430Y104140D02*
D03*
X195580Y21590D02*
D03*
X220980D02*
D03*
X246380D02*
D03*
X320040Y31750D02*
D03*
X30480Y102870D02*
D03*
X104140Y33020D02*
D03*
X157480Y403860D02*
D03*
X132080D02*
D03*
X106680D02*
D03*
D86*
X170180Y21590D02*
D03*
X182880Y403860D02*
D03*
D87*
X398780Y169230D02*
D03*
Y249230D02*
D03*
Y229230D02*
D03*
Y209230D02*
D03*
Y269230D02*
D03*
Y189230D02*
D03*
X38100Y189710D02*
D03*
Y269710D02*
D03*
Y209710D02*
D03*
Y229710D02*
D03*
Y249710D02*
D03*
Y169710D02*
D03*
D88*
X228400Y350360D02*
D03*
X314800D02*
D03*
D89*
X228600Y403860D02*
D03*
X315000D02*
D03*
D90*
X184150Y123190D02*
D03*
X193463D02*
D03*
X184150Y130810D02*
D03*
Y115570D02*
D03*
X212090Y130810D02*
D03*
Y115570D02*
D03*
Y123190D02*
D03*
X227620Y160020D02*
D03*
X193463Y115570D02*
D03*
X202777Y130810D02*
D03*
X175260Y256540D02*
D03*
X250190Y148590D02*
D03*
X248920Y179070D02*
D03*
X154940Y342900D02*
D03*
X241300Y367030D02*
D03*
X199390Y381000D02*
D03*
X215900Y165160D02*
D03*
X80010Y217170D02*
D03*
X73660Y228600D02*
D03*
X121920Y219710D02*
D03*
X162560Y248920D02*
D03*
X140823Y277150D02*
D03*
X152400Y273050D02*
D03*
X231140Y292100D02*
D03*
X255901Y269240D02*
D03*
X194918Y253836D02*
D03*
X246380Y234950D02*
D03*
X101600Y287020D02*
D03*
X92710D02*
D03*
X67310Y327660D02*
D03*
X105887Y312420D02*
D03*
X180340Y300990D02*
D03*
X139700Y301014D02*
D03*
X121497Y313267D02*
D03*
X306070Y326390D02*
D03*
X87630Y250190D02*
D03*
X49530Y312420D02*
D03*
X165100Y96520D02*
D03*
X38100Y312420D02*
D03*
X110629Y330741D02*
D03*
X101739D02*
D03*
X72390Y276860D02*
D03*
X166370Y290830D02*
D03*
X306070Y251460D02*
D03*
X283210Y260350D02*
D03*
X312420Y242570D02*
D03*
X220980Y251460D02*
D03*
X180340Y248920D02*
D03*
X332740Y224790D02*
D03*
X259080Y243840D02*
D03*
X222250Y223520D02*
D03*
X309880Y224790D02*
D03*
X271780Y184150D02*
D03*
X363220Y129540D02*
D03*
X350520Y157480D02*
D03*
X339090Y213360D02*
D03*
X248920Y243840D02*
D03*
X234950D02*
D03*
X202777Y115570D02*
D03*
Y123190D02*
D03*
X193463Y130810D02*
D03*
X326390Y148590D02*
D03*
X116840Y143510D02*
D03*
X66040Y151130D02*
D03*
X80010Y168910D02*
D03*
X153670Y304800D02*
D03*
X271780Y55880D02*
D03*
X284480Y72390D02*
D03*
X274320Y299720D02*
D03*
X134620Y194310D02*
D03*
X99060Y264160D02*
D03*
X180340Y176530D02*
D03*
X185420Y208280D02*
D03*
X203200Y182880D02*
D03*
X389890Y323850D02*
D03*
X232410Y321310D02*
D03*
X294640Y184150D02*
D03*
X283210D02*
D03*
X294640Y194310D02*
D03*
X283210D02*
D03*
X271780D02*
D03*
X294640Y205740D02*
D03*
X283210D02*
D03*
X271780D02*
D03*
X248920Y189230D02*
D03*
X278130Y160020D02*
D03*
X288290D02*
D03*
X259080Y87630D02*
D03*
Y72390D02*
D03*
X317500Y179070D02*
D03*
X284480Y87630D02*
D03*
X317500Y189230D02*
D03*
X271780Y72390D02*
D03*
X294640Y55880D02*
D03*
X271780Y87630D02*
D03*
X379730Y135890D02*
D03*
X234950Y205740D02*
D03*
X351790Y16510D02*
D03*
X294640Y43180D02*
D03*
Y30480D02*
D03*
X284480Y55880D02*
D03*
Y43180D02*
D03*
X367030Y26670D02*
D03*
X351790D02*
D03*
X323850Y327660D02*
D03*
X330200Y300990D02*
D03*
X322580Y311150D02*
D03*
X284480Y309880D02*
D03*
X303530Y374650D02*
D03*
X295910D02*
D03*
Y383540D02*
D03*
X303530D02*
D03*
X284480Y368300D02*
D03*
X256540Y337820D02*
D03*
X274320Y368300D02*
D03*
X267075Y338195D02*
D03*
X269240Y321310D02*
D03*
X139700Y208280D02*
D03*
M02*
