G04*
G04 #@! TF.GenerationSoftware,Altium Limited,Altium Designer,24.8.2 (39)*
G04*
G04 Layer_Physical_Order=3*
G04 Layer_Color=128*
%FSLAX44Y44*%
%MOMM*%
G71*
G04*
G04 #@! TF.SameCoordinates,C7BC70F5-E38B-40BF-8CF6-97473964AE68*
G04*
G04*
G04 #@! TF.FilePolarity,Negative*
G04*
G01*
G75*
%ADD101C,1.0160*%
%ADD102C,1.3032*%
%ADD103C,0.9032*%
%ADD104O,0.8032X1.8032*%
%ADD105O,0.8032X2.3032*%
%ADD106C,0.4032*%
G36*
X372729Y383863D02*
X375822Y382582D01*
X378607Y380722D01*
X380975Y378354D01*
X382835Y375569D01*
X384117Y372476D01*
X384770Y369191D01*
Y367517D01*
Y365842D01*
X384117Y362558D01*
X382835Y359464D01*
X380975Y356680D01*
X378607Y354312D01*
X375822Y352452D01*
X372729Y351170D01*
X369444Y350517D01*
X366096D01*
X362811Y351170D01*
X359717Y352452D01*
X356933Y354312D01*
X354565Y356680D01*
X352705Y359464D01*
X351423Y362558D01*
X350770Y365842D01*
Y367517D01*
Y369191D01*
X351423Y372476D01*
X352705Y375569D01*
X354565Y378354D01*
X356933Y380722D01*
X359717Y382582D01*
X362811Y383863D01*
X366096Y384517D01*
X369444D01*
X372729Y383863D01*
D02*
G37*
G36*
X62729D02*
X65823Y382582D01*
X68607Y380722D01*
X70975Y378354D01*
X72835Y375569D01*
X74117Y372476D01*
X74770Y369191D01*
Y367517D01*
Y365842D01*
X74117Y362558D01*
X72835Y359464D01*
X70975Y356680D01*
X68607Y354312D01*
X65823Y352452D01*
X62729Y351170D01*
X59444Y350517D01*
X56096D01*
X52811Y351170D01*
X49717Y352452D01*
X46933Y354312D01*
X44565Y356680D01*
X42705Y359464D01*
X41423Y362558D01*
X40770Y365842D01*
Y367517D01*
Y369191D01*
X41423Y372476D01*
X42705Y375569D01*
X44565Y378354D01*
X46933Y380722D01*
X49717Y382582D01*
X52811Y383863D01*
X56096Y384517D01*
X59444D01*
X62729Y383863D01*
D02*
G37*
G36*
X372729Y73864D02*
X375822Y72582D01*
X378607Y70722D01*
X380975Y68354D01*
X382835Y65569D01*
X384117Y62476D01*
X384770Y59191D01*
Y57517D01*
Y55842D01*
X384117Y52558D01*
X382835Y49464D01*
X380975Y46680D01*
X378607Y44312D01*
X375822Y42452D01*
X372729Y41170D01*
X369444Y40517D01*
X366096D01*
X362811Y41170D01*
X359717Y42452D01*
X356933Y44312D01*
X354565Y46680D01*
X352705Y49464D01*
X351423Y52558D01*
X350770Y55842D01*
Y57517D01*
Y59191D01*
X351423Y62476D01*
X352705Y65569D01*
X354565Y68354D01*
X356933Y70722D01*
X359717Y72582D01*
X362811Y73864D01*
X366096Y74517D01*
X369444D01*
X372729Y73864D01*
D02*
G37*
G36*
X62729D02*
X65823Y72582D01*
X68607Y70722D01*
X70975Y68354D01*
X72835Y65569D01*
X74117Y62476D01*
X74770Y59191D01*
Y57517D01*
Y55842D01*
X74117Y52558D01*
X72835Y49464D01*
X70975Y46680D01*
X68607Y44312D01*
X65823Y42452D01*
X62729Y41170D01*
X59444Y40517D01*
X56096D01*
X52811Y41170D01*
X49717Y42452D01*
X46933Y44312D01*
X44565Y46680D01*
X42705Y49464D01*
X41423Y52558D01*
X40770Y55842D01*
Y57517D01*
Y59191D01*
X41423Y62476D01*
X42705Y65569D01*
X44565Y68354D01*
X46933Y70722D01*
X49717Y72582D01*
X52811Y73864D01*
X56096Y74517D01*
X59444D01*
X62729Y73864D01*
D02*
G37*
D101*
X59444Y384517D02*
X62729Y383863D01*
X65823Y382582D01*
X68607Y380722D01*
X70975Y378354D01*
X72835Y375569D01*
X74117Y372476D01*
X74770Y369191D01*
Y367517D02*
Y369191D01*
Y365842D02*
Y367517D01*
X74117Y362558D02*
X74770Y365842D01*
X72835Y359464D02*
X74117Y362558D01*
X70975Y356680D02*
X72835Y359464D01*
X68607Y354312D02*
X70975Y356680D01*
X65823Y352452D02*
X68607Y354312D01*
X62729Y351170D02*
X65823Y352452D01*
X59444Y350517D02*
X62729Y351170D01*
X56096Y350517D02*
X59444D01*
X52811Y351170D02*
X56096Y350517D01*
X49717Y352452D02*
X52811Y351170D01*
X46933Y354312D02*
X49717Y352452D01*
X44565Y356680D02*
X46933Y354312D01*
X42705Y359464D02*
X44565Y356680D01*
X41423Y362558D02*
X42705Y359464D01*
X40770Y365842D02*
X41423Y362558D01*
X40770Y365842D02*
Y367517D01*
Y369191D01*
X41423Y372476D01*
X42705Y375569D01*
X44565Y378354D01*
X46933Y380722D01*
X49717Y382582D01*
X52811Y383863D01*
X56096Y384517D01*
X59444D01*
Y74517D02*
X62729Y73864D01*
X65823Y72582D01*
X68607Y70722D01*
X70975Y68354D01*
X72835Y65569D01*
X74117Y62476D01*
X74770Y59191D01*
Y57517D02*
Y59191D01*
Y55842D02*
Y57517D01*
X74117Y52558D02*
X74770Y55842D01*
X72835Y49464D02*
X74117Y52558D01*
X70975Y46680D02*
X72835Y49464D01*
X68607Y44312D02*
X70975Y46680D01*
X65823Y42452D02*
X68607Y44312D01*
X62729Y41170D02*
X65823Y42452D01*
X59444Y40517D02*
X62729Y41170D01*
X56096Y40517D02*
X59444D01*
X52811Y41170D02*
X56096Y40517D01*
X49717Y42452D02*
X52811Y41170D01*
X46933Y44312D02*
X49717Y42452D01*
X44565Y46680D02*
X46933Y44312D01*
X42705Y49464D02*
X44565Y46680D01*
X41423Y52558D02*
X42705Y49464D01*
X40770Y55842D02*
X41423Y52558D01*
X40770Y55842D02*
Y57517D01*
Y59191D01*
X41423Y62476D01*
X42705Y65569D01*
X44565Y68354D01*
X46933Y70722D01*
X49717Y72582D01*
X52811Y73864D01*
X56096Y74517D01*
X59444D01*
X369444D02*
X372729Y73864D01*
X375822Y72582D01*
X378607Y70722D01*
X380975Y68354D01*
X382835Y65569D01*
X384117Y62476D01*
X384770Y59191D01*
Y57517D02*
Y59191D01*
Y55842D02*
Y57517D01*
X384117Y52558D02*
X384770Y55842D01*
X382835Y49464D02*
X384117Y52558D01*
X380975Y46680D02*
X382835Y49464D01*
X378607Y44312D02*
X380975Y46680D01*
X375822Y42452D02*
X378607Y44312D01*
X372729Y41170D02*
X375822Y42452D01*
X369444Y40517D02*
X372729Y41170D01*
X366096Y40517D02*
X369444D01*
X362811Y41170D02*
X366096Y40517D01*
X359717Y42452D02*
X362811Y41170D01*
X356933Y44312D02*
X359717Y42452D01*
X354565Y46680D02*
X356933Y44312D01*
X352705Y49464D02*
X354565Y46680D01*
X351423Y52558D02*
X352705Y49464D01*
X350770Y55842D02*
X351423Y52558D01*
X350770Y55842D02*
Y57517D01*
Y59191D01*
X351423Y62476D01*
X352705Y65569D01*
X354565Y68354D01*
X356933Y70722D01*
X359717Y72582D01*
X362811Y73864D01*
X366096Y74517D01*
X369444D01*
Y384517D02*
X372729Y383863D01*
X375822Y382582D01*
X378607Y380722D01*
X380975Y378354D01*
X382835Y375569D01*
X384117Y372476D01*
X384770Y369191D01*
Y367517D02*
Y369191D01*
Y365842D02*
Y367517D01*
X384117Y362558D02*
X384770Y365842D01*
X382835Y359464D02*
X384117Y362558D01*
X380975Y356680D02*
X382835Y359464D01*
X378607Y354312D02*
X380975Y356680D01*
X375822Y352452D02*
X378607Y354312D01*
X372729Y351170D02*
X375822Y352452D01*
X369444Y350517D02*
X372729Y351170D01*
X366096Y350517D02*
X369444D01*
X362811Y351170D02*
X366096Y350517D01*
X359717Y352452D02*
X362811Y351170D01*
X356933Y354312D02*
X359717Y352452D01*
X354565Y356680D02*
X356933Y354312D01*
X352705Y359464D02*
X354565Y356680D01*
X351423Y362558D02*
X352705Y359464D01*
X350770Y365842D02*
X351423Y362558D01*
X350770Y365842D02*
Y367517D01*
Y369191D01*
X351423Y372476D01*
X352705Y375569D01*
X354565Y378354D01*
X356933Y380722D01*
X359717Y382582D01*
X362811Y383863D01*
X366096Y384517D01*
X369444D01*
X382905Y424017D02*
X384383Y424017D01*
X42635D02*
X382905Y424017D01*
X41157D02*
X42635Y424017D01*
X38259Y423440D02*
X41157Y424017D01*
X35529Y422310D02*
X38259Y423440D01*
X33073Y420668D02*
X35529Y422310D01*
X32028Y419623D02*
X33073Y420668D01*
X5663Y393259D02*
X32028Y419623D01*
X4619Y392214D02*
X5663Y393259D01*
X2977Y389757D02*
X4619Y392214D01*
X1847Y387028D02*
X2977Y389757D01*
X1270Y384130D02*
X1847Y387028D01*
X1270Y384130D02*
X1270Y382652D01*
X1270Y42381D02*
X1270Y382652D01*
X1270Y40904D02*
Y42381D01*
Y40904D02*
X1846Y38006D01*
X2977Y35276D01*
X4619Y32819D01*
X5663Y31775D01*
X32028Y5410D01*
X33073Y4365D01*
X35529Y2724D01*
X38259Y1593D01*
X41157Y1017D01*
X42635Y1017D01*
X382905Y1017D01*
X384383D01*
X387281Y1593D01*
X390011Y2724D01*
X392467Y4365D01*
X393512Y5410D01*
X419877Y31775D01*
X420921Y32819D01*
X422563Y35276D01*
X423694Y38006D01*
X424270Y40904D01*
X424270Y42381D01*
X424270Y382652D02*
X424270Y42381D01*
X424270Y382652D02*
X424270Y384130D01*
X423694Y387028D02*
X424270Y384130D01*
X422563Y389757D02*
X423694Y387028D01*
X420921Y392214D02*
X422563Y389757D01*
X419877Y393259D02*
X420921Y392214D01*
X393512Y419623D02*
X419877Y393259D01*
X392467Y420668D02*
X393512Y419623D01*
X390011Y422310D02*
X392467Y420668D01*
X387281Y423440D02*
X390011Y422310D01*
X384383Y424017D02*
X387281Y423440D01*
D102*
X392430Y104140D02*
D03*
X195580Y21590D02*
D03*
X170180D02*
D03*
X220980D02*
D03*
X246380D02*
D03*
X320040Y31750D02*
D03*
X30480Y102870D02*
D03*
X104140Y33020D02*
D03*
X157480Y403860D02*
D03*
X182880D02*
D03*
X132080D02*
D03*
X106680D02*
D03*
D103*
X398780Y169230D02*
D03*
Y249230D02*
D03*
Y229230D02*
D03*
Y209230D02*
D03*
Y269230D02*
D03*
Y189230D02*
D03*
X38100Y189710D02*
D03*
Y269710D02*
D03*
Y209710D02*
D03*
Y229710D02*
D03*
Y249710D02*
D03*
Y169710D02*
D03*
D104*
X228400Y350360D02*
D03*
X314800D02*
D03*
D105*
X228600Y403860D02*
D03*
X315000D02*
D03*
D106*
X184150Y123190D02*
D03*
X193463D02*
D03*
X184150Y130810D02*
D03*
Y115570D02*
D03*
X212090Y130810D02*
D03*
Y115570D02*
D03*
Y123190D02*
D03*
X227620Y160020D02*
D03*
X193463Y115570D02*
D03*
X202777Y130810D02*
D03*
X175260Y256540D02*
D03*
X250190Y148590D02*
D03*
X248920Y179070D02*
D03*
X154940Y342900D02*
D03*
X241300Y367030D02*
D03*
X199390Y381000D02*
D03*
X215900Y165160D02*
D03*
X80010Y217170D02*
D03*
X73660Y228600D02*
D03*
X121920Y219710D02*
D03*
X162560Y248920D02*
D03*
X140823Y277150D02*
D03*
X152400Y273050D02*
D03*
X231140Y292100D02*
D03*
X255901Y269240D02*
D03*
X194918Y253836D02*
D03*
X246380Y234950D02*
D03*
X101600Y287020D02*
D03*
X92710D02*
D03*
X67310Y327660D02*
D03*
X105887Y312420D02*
D03*
X180340Y300990D02*
D03*
X139700Y301014D02*
D03*
X121497Y313267D02*
D03*
X306070Y326390D02*
D03*
X87630Y250190D02*
D03*
X49530Y312420D02*
D03*
X165100Y96520D02*
D03*
X38100Y312420D02*
D03*
X110629Y330741D02*
D03*
X101739D02*
D03*
X72390Y276860D02*
D03*
X166370Y290830D02*
D03*
X306070Y251460D02*
D03*
X283210Y260350D02*
D03*
X312420Y242570D02*
D03*
X220980Y251460D02*
D03*
X180340Y248920D02*
D03*
X332740Y224790D02*
D03*
X259080Y243840D02*
D03*
X222250Y223520D02*
D03*
X309880Y224790D02*
D03*
X271780Y184150D02*
D03*
X363220Y129540D02*
D03*
X350520Y157480D02*
D03*
X339090Y213360D02*
D03*
X248920Y243840D02*
D03*
X234950D02*
D03*
X202777Y115570D02*
D03*
Y123190D02*
D03*
X193463Y130810D02*
D03*
X326390Y148590D02*
D03*
X116840Y143510D02*
D03*
X66040Y151130D02*
D03*
X80010Y168910D02*
D03*
X153670Y304800D02*
D03*
X271780Y55880D02*
D03*
X284480Y72390D02*
D03*
X274320Y299720D02*
D03*
X134620Y194310D02*
D03*
X99060Y264160D02*
D03*
X180340Y176530D02*
D03*
X185420Y208280D02*
D03*
X203200Y182880D02*
D03*
X389890Y323850D02*
D03*
X232410Y321310D02*
D03*
X294640Y184150D02*
D03*
X283210D02*
D03*
X294640Y194310D02*
D03*
X283210D02*
D03*
X271780D02*
D03*
X294640Y205740D02*
D03*
X283210D02*
D03*
X271780D02*
D03*
X248920Y189230D02*
D03*
X278130Y160020D02*
D03*
X288290D02*
D03*
X259080Y87630D02*
D03*
Y72390D02*
D03*
X317500Y179070D02*
D03*
X284480Y87630D02*
D03*
X317500Y189230D02*
D03*
X271780Y72390D02*
D03*
X294640Y55880D02*
D03*
X271780Y87630D02*
D03*
X379730Y135890D02*
D03*
X234950Y205740D02*
D03*
X351790Y16510D02*
D03*
X294640Y43180D02*
D03*
Y30480D02*
D03*
X284480Y55880D02*
D03*
Y43180D02*
D03*
X367030Y26670D02*
D03*
X351790D02*
D03*
X323850Y327660D02*
D03*
X330200Y300990D02*
D03*
X322580Y311150D02*
D03*
X284480Y309880D02*
D03*
X303530Y374650D02*
D03*
X295910D02*
D03*
Y383540D02*
D03*
X303530D02*
D03*
X284480Y368300D02*
D03*
X256540Y337820D02*
D03*
X274320Y368300D02*
D03*
X267075Y338195D02*
D03*
X269240Y321310D02*
D03*
X139700Y208280D02*
D03*
M02*
